<svg xmlns="http://www.w3.org/2000/svg" viewBox="124 7 571 391" width="571" height="391"><path d="M124 7h571v391H124V7z" fill="none"/><path d="M425 56c0-38.667 61-38.667 61 0s-61 38.667-61 0z" stroke="#323232" stroke-width="2" fill="#cf9"/><text font-size="22" x="19.5" y="22.55" font-family="微软雅黑" font-weight="bold" text-anchor="middle" transform="translate(435 42.25)">0</text><path d="M301 157c0-38.667 61-38.667 61 0s-61 38.667-61 0z" stroke="#323232" stroke-width="2" fill="#cf9"/><text font-size="22" x="19.5" y="22.55" font-family="微软雅黑" font-weight="bold" text-anchor="middle" transform="translate(311 143.25)">1</text><path d="M545 144c0-38.667 61-38.667 61 0s-61 38.667-61 0z" stroke="#323232" stroke-width="2" fill="#cf9"/><text font-size="22" x="19.5" y="22.55" font-family="微软雅黑" font-weight="bold" text-anchor="middle" transform="translate(555 130.25)">2</text><path d="M480 254c0-38.667 61-38.667 61 0s-61 38.667-61 0z" stroke="#323232" stroke-width="2" fill="#cf9"/><text font-size="22" x="19.5" y="22.55" font-family="微软雅黑" font-weight="bold" text-anchor="middle" transform="translate(490 240.25)">5</text><path d="M364 254c0-38.667 61-38.667 61 0s-61 38.667-61 0z" stroke="#323232" stroke-width="2" fill="#cf9"/><text font-size="22" x="19.5" y="22.55" font-family="微软雅黑" font-weight="bold" text-anchor="middle" transform="translate(374 240.25)">4</text><path d="M614 254c0-38.667 61-38.667 61 0s-61 38.667-61 0z" stroke="#323232" stroke-width="2" fill="#cf9"/><text font-size="22" x="19.5" y="22.55" font-family="微软雅黑" font-weight="bold" text-anchor="middle" transform="translate(624 240.25)">6</text><path d="M227 254c0-38.667 61-38.667 61 0s-61 38.667-61 0z" stroke="#323232" stroke-width="2" fill="#cf9"/><text font-size="22" x="19.5" y="22.55" font-family="微软雅黑" font-weight="bold" text-anchor="middle" transform="translate(237 240.25)">3</text><path d="M144 349c0-38.667 61-38.667 61 0s-61 38.667-61 0z" stroke="#323232" stroke-width="2" fill="#cf9"/><text font-size="22" x="19.5" y="22.55" font-family="微软雅黑" font-weight="bold" text-anchor="middle" transform="translate(154 335.25)">7</text><g><path d="M428.344 68.042C395 98 384 110 355.468 138.286" stroke="#323232" stroke-width="2" fill="none"/></g><g><path d="M312.294 179.723c-14.361 20.511-22.8 29.862-37.162 50.373" stroke="#323232" stroke-width="2" fill="none"/></g><g><path d="M233.096 272.132C216 297 213 306 196.54 328.872" stroke="#323232" stroke-width="2" fill="none"/></g><g><path d="M356.723 172.706C372 203 375 211 385.368 226.759" stroke="#323232" stroke-width="2" fill="none"/></g><g><path d="M482.536 69C516 92 530 101 557.294 120.277" stroke="#323232" stroke-width="2" fill="none"/></g><g><path d="M555.571 165.936C542 196 536.671 203.259 524.887 228.532" stroke="#323232" stroke-width="2" fill="none"/></g><g><path d="M600.723 160.706C621 193 628 199 644.5 225" stroke="#323232" stroke-width="2" fill="none"/></g></svg>