<svg xmlns="http://www.w3.org/2000/svg" viewBox="322.094 27.188 533 476.727" width="533" height="476.727"><defs><marker id="a" markerUnits="userSpaceOnUse" orient="auto" markerWidth="33.18" markerHeight="21.562" viewBox="-5 -6.882 33.18 21.562" refX="28.18" refY="3.899"><path d="M11.18 3.899L23.18 0v7.798z" stroke="#323232" stroke-width="10" fill="#323232"/></marker><marker id="b" markerUnits="userSpaceOnUse" orient="auto" markerWidth="33.18" markerHeight="21.562" viewBox="-5 -6.882 33.18 21.562" refX="-5" refY="3.899"><path d="M12 3.899l-12 3.9V0z" stroke="#323232" stroke-width="10" fill="#323232"/></marker><marker id="c" markerUnits="userSpaceOnUse" orient="auto" markerWidth="33.18" markerHeight="21.562" viewBox="-5 -6.882 33.18 21.562" refX="28.18" refY="3.899"><path d="M11.18 3.899L23.18 0v7.798z" stroke="#323232" stroke-width="10" fill="#323232"/></marker><marker id="d" markerUnits="userSpaceOnUse" orient="auto" markerWidth="33.18" markerHeight="21.562" viewBox="-5 -6.882 33.18 21.562" refX="-5" refY="3.899"><path d="M12 3.899l-12 3.9V0z" stroke="#323232" stroke-width="10" fill="#323232"/></marker><marker id="e" markerUnits="userSpaceOnUse" orient="auto" markerWidth="22.59" markerHeight="14.68" viewBox="-2.5 -3.441 22.59 14.68" refX="20.09" refY="3.899"><path d="M5.59 3.899L17.59 0v7.798z" stroke="#000" stroke-width="5"/></marker><marker id="f" markerUnits="userSpaceOnUse" orient="auto" markerWidth="22.59" markerHeight="14.68" viewBox="-2.5 -3.441 22.59 14.68" refX="-2.5" refY="3.899"><path d="M12 3.899l-12 3.9V0z" stroke="#000" stroke-width="5"/></marker><marker id="g" markerUnits="userSpaceOnUse" orient="auto" markerWidth="22.59" markerHeight="14.68" viewBox="-2.5 -3.441 22.59 14.68" refX="20.09" refY="3.899"><path d="M5.59 3.899L17.59 0v7.798z" stroke="#323232" stroke-width="5" fill="#323232"/></marker><marker id="h" markerUnits="userSpaceOnUse" orient="auto" markerWidth="22.59" markerHeight="14.68" viewBox="-2.5 -3.441 22.59 14.68" refX="-2.5" refY="3.899"><path d="M12 3.899l-12 3.9V0z" stroke="#323232" stroke-width="5" fill="#323232"/></marker></defs><path d="M322.094 27.188h533v476.727h-533V27.188z" fill="none"/><path d="M342.094 375.37h493v108.545h-493z" stroke="#323232" stroke-width="2" fill="#fc9"/><path d="M529.094 382.46h93v35h-93z" fill="none"/><text font-weight="bold" text-decoration="blink" font-family="微软雅黑" text-anchor="middle" font-size="21" x="46.5" y="21.525" transform="translate(529.094 386.835)">主内存</text><path d="M342.094 173.006h147v105h-147zM676.094 173.006h147v105h-147z" stroke="#323232" stroke-width="2" fill="#f99"/><path d="M367.094 47.188h97v52h-97z" stroke="#323232" stroke-width="2" fill="#fcc"/><text text-decoration="blink" font-family="微软雅黑" text-anchor="middle" font-size="13" x="38.5" y="13.325" transform="translate(377.094 65.063)">线程A</text><path d="M701.094 50.188h97v46h-97z" stroke="#323232" stroke-width="2" fill="#fcc"/><text text-decoration="blink" font-family="微软雅黑" text-anchor="middle" font-size="13" x="38.5" y="13.325" transform="translate(711.094 65.063)">线程B</text><path d="M415.594 306.186v20.592h.5v20.593" stroke="#323232" stroke-width="10" fill="none" marker-start="url(#a)" marker-end="url(#b)"/><path d="M749.738 306.186l.211 41.185" stroke="#323232" stroke-width="10" fill="none" marker-start="url(#c)" marker-end="url(#d)"/><path d="M415.594 119.278v33.638" stroke="#000" stroke-width="5" fill="none" marker-start="url(#e)" marker-end="url(#f)"/><path d="M749.594 116.278v36.638" stroke="#323232" stroke-width="5" fill="none" marker-start="url(#g)" marker-end="url(#h)"/><path d="M367.094 178.188h88v26h-88z" fill="none"/><text text-decoration="blink" font-family="微软雅黑" text-anchor="middle" font-size="13" x="44" y="13.325" transform="translate(367.094 183.063)">本地内存A</text><path d="M705.594 178.188h88v26h-88z" fill="none"/><text text-decoration="blink" font-family="微软雅黑" text-anchor="middle" font-size="13" x="44" y="13.325" transform="translate(705.594 183.063)">本地内存B</text><g><path d="M368.094 242.006c0-32 95-32 95 0s-95 32-95 0z" stroke="#000" stroke-width="2" fill="#f66"/><g font-family="微软雅黑" text-anchor="middle" font-size="13"><text text-decoration="blink" x="37.5" y="13.325" transform="translate(378.094 225.756)">共享变量的</text><text text-decoration="blink" x="37.5" y="29.575" transform="translate(378.094 225.756)">副本</text></g></g><g><path d="M705.594 237.006c0-32 95-32 95 0s-95 32-95 0z" stroke="#323232" stroke-width="2" fill="#f66"/><g font-family="微软雅黑" text-anchor="middle" font-size="13"><text text-decoration="blink" x="37.5" y="13.325" transform="translate(715.594 220.756)">共享变量的</text><text text-decoration="blink" x="37.5" y="29.575" transform="translate(715.594 220.756)">副本</text></g></g><g><path d="M426.094 426.37c0-24 95-24 95 0s-95 24-95 0z" stroke="#323232" stroke-width="2" fill="#f66"/><text text-decoration="blink" font-family="微软雅黑" text-anchor="middle" font-size="13" x="37.5" y="13.325" transform="translate(436.094 418.244)">共享变量</text></g><g><path d="M588.094 430.37c0-24 95-24 95 0s-95 24-95 0z" stroke="#323232" stroke-width="2" fill="#f66"/><text text-decoration="blink" font-family="微软雅黑" text-anchor="middle" font-size="13" x="37.5" y="13.325" transform="translate(598.094 422.244)">共享变量</text></g><g><path d="M717.094 422.37c0-24 95-24 95 0s-95 24-95 0z" stroke="#323232" stroke-width="2" fill="#f66"/><text text-decoration="blink" font-family="微软雅黑" text-anchor="middle" font-size="13" x="37.5" y="13.325" transform="translate(727.094 414.244)">共享变量</text></g></svg>