<svg xmlns="http://www.w3.org/2000/svg" viewBox="317.503 197.733 452.5 343.455" width="452.5" height="343.455"><defs><marker id="a" markerUnits="userSpaceOnUse" orient="auto" markerWidth="16.236" markerHeight="10.551" viewBox="-1 -1.376 16.236 10.551" refX="-1" refY="3.899"><path d="M12 3.899l-12 3.9V0z" stroke="#323232" stroke-width="2" fill="#323232"/></marker><marker id="b" markerUnits="userSpaceOnUse" orient="auto" markerWidth="16.236" markerHeight="10.551" viewBox="-1 -1.376 16.236 10.551" refX="-1" refY="3.899"><path d="M12 3.899l-12 3.9V0z" stroke="#323232" stroke-width="2" fill="#323232"/></marker><marker id="c" markerUnits="userSpaceOnUse" orient="auto" markerWidth="16.236" markerHeight="10.551" viewBox="-1 -1.376 16.236 10.551" refX="-1" refY="3.899"><path d="M12 3.899l-12 3.9V0z" stroke="#323232" stroke-width="2" fill="#323232"/></marker><marker id="d" markerUnits="userSpaceOnUse" orient="auto" markerWidth="16.236" markerHeight="10.551" viewBox="-1 -1.376 16.236 10.551" refX="-1" refY="3.899"><path d="M12 3.899l-12 3.9V0z" stroke="#323232" stroke-width="2" fill="#323232"/></marker><marker id="e" markerUnits="userSpaceOnUse" orient="auto" markerWidth="16.236" markerHeight="10.551" viewBox="-1 -1.376 16.236 10.551" refX="-1" refY="3.899"><path d="M12 3.899l-12 3.9V0z" stroke="#323232" stroke-width="2" fill="#323232"/></marker><marker id="f" markerUnits="userSpaceOnUse" orient="auto" markerWidth="16.236" markerHeight="10.551" viewBox="-1 -1.376 16.236 10.551" refX="-1" refY="3.899"><path d="M12 3.899l-12 3.9V0z" stroke="#323232" stroke-width="2" fill="#323232"/></marker></defs><path d="M317.503 197.733h452.5v343.455h-452.5V197.733z" fill="none"/><path d="M344.003 461.188h406v60h-406z" stroke="#323232" stroke-width="2" fill="#f66"/><path d="M344.003 333.733h109v74h-109z" stroke="#323232" stroke-width="2" fill="#f99"/><path d="M638.003 333.733h109v74h-109z" stroke="#000" stroke-width="2" fill="#f99"/><path d="M348.503 217.733h100v45h-100z" stroke="#323232" stroke-width="2" fill="#cfc"/><text text-decoration="blink" font-family="微软雅黑" text-anchor="middle" font-size="13" x="40" y="13.325" transform="translate(358.503 232.108)">处理器A</text><path d="M642.503 217.733h100v45h-100z" stroke="#323232" stroke-width="2" fill="#cfc"/><text text-decoration="blink" font-family="微软雅黑" text-anchor="middle" font-size="13" x="40" y="13.325" transform="translate(652.503 232.108)">处理器B</text><path d="M337.503 329.37h113v46h-113z" fill="none"/><text text-decoration="blink" font-family="微软雅黑" text-anchor="middle" font-size="13" x="56.5" y="13.325" transform="translate(337.503 344.244)">写缓冲区A</text><path d="M636.003 329.37h113v46h-113z" fill="none"/><text text-decoration="blink" font-family="微软雅黑" text-anchor="middle" font-size="13" x="56.5" y="13.325" transform="translate(636.003 344.244)">写缓冲区B</text><path d="M364.503 375.37h68v28h-68z" fill="none"/><text text-decoration="blink" font-family="微软雅黑" text-anchor="middle" font-size="13" x="34" y="13.325" transform="translate(364.503 381.244)">a=1</text><path d="M662.003 375.37h68v28h-68z" fill="none"/><text text-decoration="blink" font-family="微软雅黑" text-anchor="middle" font-size="13" x="34" y="13.325" transform="translate(662.003 381.244)">b=2</text><path d="M506.003 476.37h82v36h-82z" fill="none"/><g font-family="微软雅黑" text-anchor="middle" font-size="13"><text text-decoration="blink" x="41" y="13.325" transform="translate(506.003 478.12)">内存</text><text text-decoration="blink" x="41" y="29.575" transform="translate(506.003 478.12)">a=b=0</text></g><path d="M398.503 262.733v35.5h0v20.264" stroke="#323232" stroke-width="2" fill="none" marker-end="url(#a)"/><path d="M392.003 282.49h13v16.25h-13z" fill="#fff"/><text text-decoration="blink" font-family="微软雅黑" text-anchor="middle" font-size="13" y="13.325" transform="translate(398.503 282.49)">写</text><path d="M692.503 262.733v35.5h0v20.264" stroke="#323232" stroke-width="2" fill="none" marker-end="url(#b)"/><path d="M686.003 282.49h13v16.25h-13z" fill="#fff"/><text text-decoration="blink" font-family="微软雅黑" text-anchor="middle" font-size="13" y="13.325" transform="translate(692.503 282.49)">写</text><g><path d="M398.503 407.733v26.727h0v11.491" stroke="#323232" stroke-width="2" fill="none" marker-end="url(#c)"/><path d="M385.503 418.717h26v16.25h-26z" fill="#fff"/><text text-decoration="blink" font-family="微软雅黑" text-anchor="middle" font-size="13" y="13.325" transform="translate(398.503 418.717)">刷新</text></g><g><path d="M692.503 407.733v26.727h0v11.491" stroke="#323232" stroke-width="2" fill="none" marker-end="url(#d)"/><path d="M679.503 418.717h26v16.25h-26z" fill="#fff"/><text text-decoration="blink" font-family="微软雅黑" text-anchor="middle" font-size="13" y="13.325" transform="translate(692.503 418.717)">刷新</text></g><g><path d="M448.503 240.233c43.5 129.136 46.5 136.136 66.36 206.474" stroke="#323232" stroke-width="2" fill="none" marker-end="url(#e)"/><path d="M484.048 357.394h13v16.25h-13z" fill="#fff"/><text text-decoration="blink" font-family="微软雅黑" text-anchor="middle" font-size="13" y="13.325" transform="translate(490.548 357.394)">读</text></g><g><path d="M642.503 240.233c-35.5 98.136-41.5 125.136-64.375 206.47" stroke="#323232" stroke-width="2" fill="none" marker-end="url(#f)"/><path d="M599.081 341.644h13v16.25h-13z" fill="#fff"/><text text-decoration="blink" font-family="微软雅黑" text-anchor="middle" font-size="13" y="13.325" transform="translate(605.581 341.644)">读</text></g><g><path d="M348.503 286.37h41v28h-41z" fill="none"/><text text-decoration="blink" font-family="微软雅黑" text-anchor="middle" font-size="13" x="20.5" y="13.325" transform="translate(348.503 292.244)">A1</text></g><g><path d="M490.003 329.37h41v28h-41z" fill="none"/><text text-decoration="blink" font-family="微软雅黑" text-anchor="middle" font-size="13" x="20.5" y="13.325" transform="translate(490.003 335.244)">A2</text></g><g><path d="M352.003 422.37h41v28h-41z" fill="none"/><text text-decoration="blink" font-family="微软雅黑" text-anchor="middle" font-size="13" x="20.5" y="13.325" transform="translate(352.003 428.244)">A3</text></g><g><path d="M694.503 287.37h48v26h-48z" fill="none"/><text text-decoration="blink" font-family="微软雅黑" text-anchor="middle" font-size="13" x="24" y="13.325" transform="translate(694.503 292.244)">B1</text></g><g><path d="M570.003 325.37h48v26h-48z" fill="none"/><text text-decoration="blink" font-family="微软雅黑" text-anchor="middle" font-size="13" x="24" y="13.325" transform="translate(570.003 330.244)">B2</text></g><g><path d="M701.003 424.37h48v26h-48z" fill="none"/><text text-decoration="blink" font-family="微软雅黑" text-anchor="middle" font-size="13" x="24" y="13.325" transform="translate(701.003 429.244)">B3</text></g></svg>