<svg xmlns="http://www.w3.org/2000/svg" viewBox="96 47 774 472" width="774" height="472"><defs><marker id="a" markerUnits="userSpaceOnUse" orient="auto" markerWidth="16.236" markerHeight="10.551" viewBox="-1 -1.376 16.236 10.551" refX="-1" refY="3.899"><path d="M12 3.899l-12 3.9V0z" stroke="#323232" stroke-width="2" fill="#323232"/></marker><marker id="b" markerUnits="userSpaceOnUse" orient="auto" markerWidth="16.236" markerHeight="10.551" viewBox="-1 -1.376 16.236 10.551" refX="-1" refY="3.899"><path d="M12 3.899l-12 3.9V0z" stroke="#323232" stroke-width="2" fill="#fff"/></marker><marker id="c" markerUnits="userSpaceOnUse" orient="auto" markerWidth="16.236" markerHeight="10.551" viewBox="-1 -1.376 16.236 10.551" refX="-1" refY="3.899"><path d="M12 3.899l-12 3.9V0z" stroke="#323232" stroke-width="2" fill="#fff"/></marker><marker id="d" markerUnits="userSpaceOnUse" orient="auto" markerWidth="16.236" markerHeight="10.551" viewBox="-1 -1.376 16.236 10.551" refX="-1" refY="3.899"><path d="M12 3.899l-12 3.9V0z" stroke="#323232" stroke-width="2" fill="#fff"/></marker><marker id="e" markerUnits="userSpaceOnUse" orient="auto" markerWidth="16.236" markerHeight="10.551" viewBox="-1 -1.376 16.236 10.551" refX="-1" refY="3.899"><path d="M12 3.899l-12 3.9V0z" stroke="#323232" stroke-width="2" fill="#fff"/></marker><marker id="f" markerUnits="userSpaceOnUse" orient="auto" markerWidth="16.236" markerHeight="10.551" viewBox="-1 -1.376 16.236 10.551" refX="-1" refY="3.899"><path d="M12 3.899l-12 3.9V0z" stroke="#323232" stroke-width="2" fill="#fff"/></marker></defs><path d="M96 47h774v472H96V47z" fill="#fff"/><path d="M391 71q0-4 4-4h139q4 0 4 4v107q0 4-4 4H395q-4 0-4-4z" stroke="#323232" stroke-width="2" fill="#fff"/><path d="M391 97h147m-147 42.5h147" stroke="#323232" stroke-width="2" fill="none"/><path d="M391 67h147v115H391z" fill="none"/><text font-weight="bold" text-decoration="blink" font-family="微软雅黑" text-anchor="middle" font-size="13" x="63.5" y="13.325" transform="translate(401 73.875)">手机软件</text><path d="M591 234q0-4 4-4h139q4 0 4 4v107q0 4-4 4H595q-4 0-4-4z" stroke="#323232" stroke-width="2" fill="#fff"/><path d="M591 260h147m-147 42.5h147" stroke="#323232" stroke-width="2" fill="none"/><path d="M591 230h147v115H591z" fill="none"/><text font-weight="bold" text-decoration="blink" font-family="微软雅黑" text-anchor="middle" font-size="13" x="63.5" y="13.325" transform="translate(601 236.875)">游戏</text><path d="M211 234q0-4 4-4h139q4 0 4 4v107q0 4-4 4H215q-4 0-4-4z" stroke="#323232" stroke-width="2" fill="#fff"/><path d="M211 260h147m-147 42.5h147" stroke="#323232" stroke-width="2" fill="none"/><path d="M211 230h147v115H211z" fill="none"/><text font-weight="bold" text-decoration="blink" font-family="微软雅黑" text-anchor="middle" font-size="13" x="63.5" y="13.325" transform="translate(221 236.875)">通讯录</text><g><path d="M306 388q0-4 4-4h139q4 0 4 4v107q0 4-4 4H310q-4 0-4-4z" stroke="#323232" stroke-width="2" fill="#fff"/><path d="M306 414h147m-147 42.5h147" stroke="#323232" stroke-width="2" fill="none"/><path d="M306 384h147v115H306z" fill="none"/><text font-weight="bold" text-decoration="blink" font-family="微软雅黑" text-anchor="middle" font-size="13" x="63.5" y="13.325" transform="translate(316 390.875)">手机品牌N通讯录</text></g><g><path d="M116 388q0-4 4-4h139q4 0 4 4v107q0 4-4 4H120q-4 0-4-4z" stroke="#323232" stroke-width="2" fill="#fff"/><path d="M116 414h147m-147 42.5h147" stroke="#323232" stroke-width="2" fill="none"/><path d="M116 384h147v115H116z" fill="none"/><text font-weight="bold" text-decoration="blink" font-family="微软雅黑" text-anchor="middle" font-size="13" x="63.5" y="13.325" transform="translate(126 390.875)">手机品牌M通讯录</text></g><g><path d="M703 388q0-4 4-4h139q4 0 4 4v107q0 4-4 4H707q-4 0-4-4z" stroke="#323232" stroke-width="2" fill="#fff"/><path d="M703 414h147m-147 42.5h147" stroke="#323232" stroke-width="2" fill="none"/><path d="M703 384h147v115H703z" fill="none"/><text font-weight="bold" text-decoration="blink" font-family="微软雅黑" text-anchor="middle" font-size="13" x="63.5" y="13.325" transform="translate(713 390.875)">手机品牌N游戏</text></g><g><path d="M502 388q0-4 4-4h139q4 0 4 4v107q0 4-4 4H506q-4 0-4-4z" stroke="#323232" stroke-width="2" fill="#fff"/><path d="M502 414h147m-147 42.5h147" stroke="#323232" stroke-width="2" fill="none"/><path d="M502 384h147v115H502z" fill="none"/><text font-weight="bold" text-decoration="blink" font-family="微软雅黑" text-anchor="middle" font-size="13" x="63.5" y="13.325" transform="translate(512 390.875)">手机品牌M游戏</text></g><g><path d="M189.5 384v-19.5h95v-4.264" stroke="#323232" stroke-width="2" fill="none" marker-end="url(#a)"/></g><g><path d="M379.5 384v-19.5h-95v-4.264" stroke="#323232" stroke-width="2" fill="none" marker-end="url(#b)"/></g><g><path d="M284.5 230v-24h180v-8.764" stroke="#323232" stroke-width="2" fill="none" marker-end="url(#c)"/></g><g><path d="M664.5 230v-24h-200v-8.764" stroke="#323232" stroke-width="2" fill="none" marker-end="url(#d)"/></g><g><path d="M575.5 384v-19.5h89v-4.264" stroke="#323232" stroke-width="2" fill="none" marker-end="url(#e)"/></g><g><path d="M776.5 384v-19.5h-112v-4.264" stroke="#323232" stroke-width="2" fill="none" marker-end="url(#f)"/></g></svg>