<svg xmlns="http://www.w3.org/2000/svg" viewBox="82 86 915 359" width="915" height="359"><defs><marker id="a" markerUnits="userSpaceOnUse" orient="auto" markerWidth="16.236" markerHeight="10.551" viewBox="-1 -1.376 16.236 10.551" refX="-1" refY="3.899"><path d="M12 3.899l-12 3.9V0z" stroke="#323232" stroke-width="2" fill="#fff"/></marker><marker id="b" markerUnits="userSpaceOnUse" orient="auto" markerWidth="16.236" markerHeight="10.551" viewBox="-1 -1.376 16.236 10.551" refX="-1" refY="3.899"><path d="M12 3.899l-12 3.9V0z" stroke="#323232" stroke-width="2" fill="#fff"/></marker><marker id="c" markerUnits="userSpaceOnUse" orient="auto" markerWidth="16.236" markerHeight="10.551" viewBox="-1 -1.376 16.236 10.551" refX="-1" refY="3.899"><path d="M12 3.899l-12 3.9V0z" stroke="#323232" stroke-width="2" fill="#fff"/></marker><marker id="d" markerUnits="userSpaceOnUse" orient="auto" markerWidth="16.236" markerHeight="10.551" viewBox="-1 -1.376 16.236 10.551" refX="-1" refY="3.899"><path d="M12 3.899l-12 3.9V0z" stroke="#323232" stroke-width="2" fill="#fff"/></marker><marker id="e" markerUnits="userSpaceOnUse" orient="auto" markerWidth="20.61" markerHeight="10.888" viewBox="-2.305 -1.591 20.61 10.888" refX="16" refY="3.853"><path d="M0 3.853L8 0l8 3.853-8 3.852z" stroke="#323232" stroke-width="2" fill="#fff"/></marker><marker id="f" markerUnits="userSpaceOnUse" orient="auto" markerWidth="14.289" markerHeight="19.055" viewBox="-0.588 -0.809 14.289 19.055" refX="12" refY="8.719"><path d="M0 0l12 8.719-12 8.718" stroke="#323232" stroke-width="2" fill="none"/></marker></defs><path d="M82 86h915v359H82V86z" fill="#fff"/><path d="M701 110q0-4 4-4h139q4 0 4 4v107q0 4-4 4H705q-4 0-4-4z" stroke="#323232" stroke-width="2" fill="#fff"/><path d="M701 136h147m-147 42.5h147" stroke="#323232" stroke-width="2" fill="none"/><path d="M701 106h147v115H701z" fill="none"/><text font-weight="bold" text-decoration="blink" font-family="微软雅黑" text-anchor="middle" font-size="13" x="63.5" y="13.325" transform="translate(711 112.875)">手机软件</text><path d="M830 314q0-4 4-4h139q4 0 4 4v107q0 4-4 4H834q-4 0-4-4z" stroke="#323232" stroke-width="2" fill="#fff"/><path d="M830 340h147m-147 42.5h147" stroke="#323232" stroke-width="2" fill="none"/><path d="M830 310h147v115H830z" fill="none"/><text font-weight="bold" text-decoration="blink" font-family="微软雅黑" text-anchor="middle" font-size="13" x="63.5" y="13.325" transform="translate(840 316.875)">游戏</text><g><path d="M589 314q0-4 4-4h139q4 0 4 4v107q0 4-4 4H593q-4 0-4-4z" stroke="#323232" stroke-width="2" fill="#fff"/><path d="M589 340h147m-147 42.5h147" stroke="#323232" stroke-width="2" fill="none"/><path d="M589 310h147v115H589z" fill="none"/><text font-weight="bold" text-decoration="blink" font-family="微软雅黑" text-anchor="middle" font-size="13" x="63.5" y="13.325" transform="translate(599 316.875)">通讯录</text></g><g><path d="M333 314q0-4 4-4h139q4 0 4 4v107q0 4-4 4H337q-4 0-4-4z" stroke="#323232" stroke-width="2" fill="#fff"/><path d="M333 340h147m-147 42.5h147" stroke="#323232" stroke-width="2" fill="none"/><path d="M333 310h147v115H333z" fill="none"/><text font-weight="bold" text-decoration="blink" font-family="微软雅黑" text-anchor="middle" font-size="13" x="63.5" y="13.325" transform="translate(343 316.875)">手机品牌N</text></g><g><path d="M102 314q0-4 4-4h139q4 0 4 4v107q0 4-4 4H106q-4 0-4-4z" stroke="#323232" stroke-width="2" fill="#fff"/><path d="M102 340h147m-147 42.5h147" stroke="#323232" stroke-width="2" fill="none"/><path d="M102 310h147v115H102z" fill="none"/><text font-weight="bold" text-decoration="blink" font-family="微软雅黑" text-anchor="middle" font-size="13" x="63.5" y="13.325" transform="translate(112 316.875)">手机品牌M</text></g><g><path d="M213 110q0-4 4-4h139q4 0 4 4v107q0 4-4 4H217q-4 0-4-4z" stroke="#323232" stroke-width="2" fill="#fff"/><path d="M213 136h147m-147 42.5h147" stroke="#323232" stroke-width="2" fill="none"/><path d="M213 106h147v115H213z" fill="none"/><text font-weight="bold" text-decoration="blink" font-family="微软雅黑" text-anchor="middle" font-size="13" x="63.5" y="13.325" transform="translate(223 112.875)">手机品牌</text></g><g><path d="M662.5 310v-44.5h112v-29.264" stroke="#323232" stroke-width="2" fill="none" marker-end="url(#a)"/></g><g><path d="M903.5 310v-44.5h-129v-29.264" stroke="#323232" stroke-width="2" fill="none" marker-end="url(#b)"/></g><g><path d="M175.5 310v-44.5h111v-29.264" stroke="#323232" stroke-width="2" fill="none" marker-end="url(#c)"/></g><g><path d="M406.5 310v-44.5h-120v-29.264" stroke="#323232" stroke-width="2" fill="none" marker-end="url(#d)"/></g><g><path d="M378.305 163.5H701" stroke="#323232" stroke-width="2" fill="none" marker-start="url(#e)" marker-end="url(#f)"/></g></svg>