<svg xmlns="http://www.w3.org/2000/svg" viewBox="50 110 937 312" width="937" height="312"><defs><marker id="a" markerUnits="userSpaceOnUse" orient="auto" markerWidth="20.61" markerHeight="10.888" viewBox="-2.305 -1.591 20.61 10.888" refX="16" refY="3.853"><path d="M0 3.853L8 0l8 3.853-8 3.852z" stroke="#323232" stroke-width="2" fill="#fff"/></marker><marker id="b" markerUnits="userSpaceOnUse" orient="auto" markerWidth="14.289" markerHeight="19.055" viewBox="-0.588 -0.809 14.289 19.055" refX="12" refY="8.719"><path d="M0 0l12 8.719-12 8.718" stroke="#323232" stroke-width="2" fill="none"/></marker><marker id="c" markerUnits="userSpaceOnUse" orient="auto" markerWidth="14.289" markerHeight="19.055" viewBox="-0.588 -0.809 14.289 19.055" refX="12" refY="8.719"><path d="M0 0l12 8.719-12 8.718" stroke="#323232" stroke-width="2" fill="none"/></marker></defs><path d="M50 110h937v312H50V110z" fill="#fff"/><path d="M401 256q0-4 4-4h202q4 0 4 4v142q0 4-4 4H405q-4 0-4-4z" stroke="#323232" stroke-width="2" fill="#fff"/><path d="M401 282h210m-210 60h210" stroke="#323232" stroke-width="2" fill="none"/><path d="M401 252h210v150H401z" fill="none"/><text font-weight="bold" text-decoration="blink" font-family="微软雅黑" text-anchor="middle" font-size="13" x="95" y="13.325" transform="translate(411 258.875)">RoleStateMemento</text><text font-weight="bold" text-decoration="blink" font-family="微软雅黑" text-anchor="middle" font-size="13" x="95" y="13.325" transform="translate(411 363.875)">+getXXX() :</text><g><path d="M70 162q0-4 4-4h229q4 0 4 4v136q0 4-4 4H74q-4 0-4-4z" stroke="#323232" stroke-width="2" fill="#fff"/><path d="M70 188h237M70 245h237" stroke="#323232" stroke-width="2" fill="none"/><path d="M70 158h237v144H70z" fill="none"/><text font-weight="bold" text-decoration="blink" font-family="微软雅黑" text-anchor="middle" font-size="13" x="108.5" y="13.325" transform="translate(80 164.875)">Caretaker</text><g font-weight="bold" font-family="微软雅黑" text-anchor="middle" font-size="13"><text text-decoration="blink" x="108.5" y="13.325" transform="translate(80 257.25)">+push() : void</text><text text-decoration="blink" x="108.5" y="29.575" transform="translate(80 257.25)">+get() : RoleStateMemento</text></g></g><g><path d="M687 134q0-4 4-4h272q4 0 4 4v148q0 4-4 4H691q-4 0-4-4z" stroke="#323232" stroke-width="2" fill="#fff"/><path d="M687 160h280m-280 63h280" stroke="#323232" stroke-width="2" fill="none"/><path d="M687 130h280v156H687z" fill="none"/><text font-weight="bold" text-decoration="blink" font-family="微软雅黑" text-anchor="middle" font-size="13" x="130" y="13.325" transform="translate(697 136.875)">GameRole</text><g font-weight="bold" font-family="微软雅黑" text-anchor="middle" font-size="13"><text text-decoration="blink" x="130" y="13.325" transform="translate(697 238.25)">+saveState() : RoleStateMemento</text><text text-decoration="blink" x="130" y="29.575" transform="translate(697 238.25)">+recoveryState() : void</text></g></g><g><path d="M325.305 230H354v83h47" stroke="#323232" stroke-width="2" fill="none" marker-start="url(#a)" marker-end="url(#b)"/></g><g><path d="M687 208h-38v119h-38" stroke="#323232" stroke-width="2" stroke-dasharray="10.0 4.0" fill="none" marker-end="url(#c)"/></g></svg>