<svg xmlns="http://www.w3.org/2000/svg" viewBox="49 56.75 953 452.25" width="953" height="452.25"><defs><marker id="a" markerUnits="userSpaceOnUse" orient="auto" markerWidth="16.236" markerHeight="10.551" viewBox="-1 -1.376 16.236 10.551" refX="-1" refY="3.899"><path d="M12 3.899l-12 3.9V0z" stroke="#323232" stroke-width="2" fill="#323232"/></marker><marker id="b" markerUnits="userSpaceOnUse" orient="auto" markerWidth="16.236" markerHeight="10.551" viewBox="-1 -1.376 16.236 10.551" refX="-1" refY="3.899"><path d="M12 3.899l-12 3.9V0z" stroke="#323232" stroke-width="2" fill="#fff"/></marker><marker id="c" markerUnits="userSpaceOnUse" orient="auto" markerWidth="16.236" markerHeight="10.551" viewBox="-1 -1.376 16.236 10.551" refX="-1" refY="3.899"><path d="M12 3.899l-12 3.9V0z" stroke="#323232" stroke-width="2" fill="#fff"/></marker><marker id="d" markerUnits="userSpaceOnUse" orient="auto" markerWidth="16.236" markerHeight="10.551" viewBox="-1 -1.376 16.236 10.551" refX="-1" refY="3.899"><path d="M12 3.899l-12 3.9V0z" stroke="#323232" stroke-width="2" fill="#fff"/></marker><marker id="e" markerUnits="userSpaceOnUse" orient="auto" markerWidth="14.289" markerHeight="19.055" viewBox="-0.588 -0.809 14.289 19.055" refX="12" refY="8.719"><path d="M0 0l12 8.719-12 8.718" stroke="#323232" stroke-width="2" fill="none"/></marker><marker id="f" markerUnits="userSpaceOnUse" orient="auto" markerWidth="14.289" markerHeight="19.055" viewBox="-0.588 -0.809 14.289 19.055" refX="12" refY="8.719"><path d="M0 0l12 8.719-12 8.718" stroke="#323232" stroke-width="2" fill="none"/></marker></defs><path d="M49 56.75h953V509H49V56.75z" fill="#fff"/><path d="M69 346q0-4 4-4h178q4 0 4 4v88q0 4-4 4H73q-4 0-4-4z" stroke="#323232" stroke-width="2" fill="#fff"/><path d="M69 372h186M69 405h186" stroke="#323232" stroke-width="2" fill="none"/><path d="M69 342h186v96H69z" fill="none"/><text font-weight="bold" text-decoration="blink" font-family="微软雅黑" text-anchor="middle" font-size="13" x="83" y="13.325" transform="translate(79 348.875)">Add</text><text font-weight="bold" text-decoration="blink" font-family="微软雅黑" text-anchor="middle" font-size="13" x="83" y="13.325" transform="translate(79 413.375)">+getResult() : double</text><path d="M165 103q0-4 4-4h178q4 0 4 4v89q0 4-4 4H169q-4 0-4-4z" stroke="#323232" stroke-width="2" fill="#fff"/><path d="M165 129h186" stroke="#323232" stroke-width="2" fill="none"/><path d="M165 99h186v97H165z" fill="none"/><g font-weight="bold" font-family="微软雅黑" text-anchor="middle" font-size="13"><text text-decoration="blink" x="83" y="13.325" transform="translate(175 97.75)">&lt;&lt;interface&gt;&gt;</text><text text-decoration="blink" x="83" y="29.575" transform="translate(175 97.75)">Operation</text></g><text font-weight="bold" text-decoration="blink" font-family="微软雅黑" text-anchor="middle" font-size="13" x="83" y="13.325" transform="translate(175 154.375)">+getResult() : double</text><path d="M315 346q0-4 4-4h185q4 0 4 4v88q0 4-4 4H319q-4 0-4-4z" stroke="#323232" stroke-width="2" fill="#fff"/><path d="M315 372h193m-193 33h193" stroke="#323232" stroke-width="2" fill="none"/><path d="M315 342h193v96H315z" fill="none"/><text font-weight="bold" text-decoration="blink" font-family="微软雅黑" text-anchor="middle" font-size="13" x="86.5" y="13.325" transform="translate(325 348.875)">Multiplication</text><text font-weight="bold" text-decoration="blink" font-family="微软雅黑" text-anchor="middle" font-size="13" x="86.5" y="13.325" transform="translate(325 413.375)">+getResult() : double</text><g><path d="M162 342v-73h96v-57.764" stroke="#323232" stroke-width="2" stroke-dasharray="10.0 4.0" fill="none" marker-end="url(#a)"/></g><g><path d="M411.5 342v-73H258v-57.764" stroke="#323232" stroke-width="2" stroke-dasharray="10.0 4.0" fill="none" marker-end="url(#b)"/></g><g><path d="M653 81q0-4 4-4h281q4 0 4 4v75q0 4-4 4H657q-4 0-4-4z" stroke="#323232" stroke-width="2" fill="#fff"/><path d="M653 109h289" stroke="#323232" stroke-width="2" fill="none"/><path d="M653 77h289v83H653z" fill="none"/><g font-weight="bold" font-family="微软雅黑" text-anchor="middle" font-size="13"><text text-decoration="blink" x="134.5" y="13.325" transform="translate(663 76.75)">&lt;&lt;interface&gt;&gt;</text><text text-decoration="blink" x="134.5" y="29.575" transform="translate(663 76.75)">OperationFactory</text></g><text font-weight="bold" text-decoration="blink" font-family="微软雅黑" text-anchor="middle" font-size="13" x="134.5" y="13.325" transform="translate(663 127.375)">+createOperation() : Operation</text></g><g><path d="M483 221q0-4 4-4h258q4 0 4 4v99q0 4-4 4H487q-4 0-4-4z" stroke="#323232" stroke-width="2" fill="#fff"/><path d="M483 247h266m-266 41h266" stroke="#323232" stroke-width="2" fill="none"/><path d="M483 217h266v107H483z" fill="none"/><text font-weight="bold" text-decoration="blink" font-family="微软雅黑" text-anchor="middle" font-size="13" x="123" y="13.325" transform="translate(493 223.875)">AddFactory</text><text font-weight="bold" text-decoration="blink" font-family="微软雅黑" text-anchor="middle" font-size="13" x="123" y="13.325" transform="translate(493 300.875)">+createOperation() : Operation</text></g><g><path d="M717 349q0-4 4-4h257q4 0 4 4v106q0 4-4 4H721q-4 0-4-4z" stroke="#323232" stroke-width="2" fill="#fff"/><path d="M717 375h265m-265 41h265" stroke="#323232" stroke-width="2" fill="none"/><path d="M717 345h265v114H717z" fill="none"/><text font-weight="bold" text-decoration="blink" font-family="微软雅黑" text-anchor="middle" font-size="13" x="122.5" y="13.325" transform="translate(727 351.875)">MultiplicationFactory</text><text font-weight="bold" text-decoration="blink" font-family="微软雅黑" text-anchor="middle" font-size="13" x="122.5" y="13.325" transform="translate(727 428.875)">+createOperation() : Operation</text></g><g><path d="M616 217v-28.5h181.5v-13.264" stroke="#323232" stroke-width="2" stroke-dasharray="10.0 4.0" fill="none" marker-end="url(#c)"/></g><g><path d="M849.5 345v-92.5h-52v-77.264" stroke="#323232" stroke-width="2" stroke-dasharray="10.0 4.0" fill="none" marker-end="url(#d)"/></g><g><path d="M616 324v144H162v-30" stroke="#323232" stroke-width="2" stroke-dasharray="10.0 4.0" fill="none" marker-end="url(#e)"/></g><g><path d="M849.5 459v30h-438v-51" stroke="#323232" stroke-width="2" stroke-dasharray="10.0 4.0" fill="none" marker-end="url(#f)"/></g></svg>