<svg xmlns="http://www.w3.org/2000/svg" viewBox="51 59.5 827 357.5" width="827" height="357.5"><defs><marker id="a" markerUnits="userSpaceOnUse" orient="auto" markerWidth="16.236" markerHeight="10.551" viewBox="-1 -1.376 16.236 10.551" refX="-1" refY="3.899"><path d="M12 3.899l-12 3.9V0z" stroke="#323232" stroke-width="2" fill="#323232"/></marker><marker id="b" markerUnits="userSpaceOnUse" orient="auto" markerWidth="16.236" markerHeight="10.551" viewBox="-1 -1.376 16.236 10.551" refX="-1" refY="3.899"><path d="M12 3.899l-12 3.9V0z" stroke="#323232" stroke-width="2" fill="#fff"/></marker><marker id="c" markerUnits="userSpaceOnUse" orient="auto" markerWidth="14.289" markerHeight="19.055" viewBox="-0.588 -0.809 14.289 19.055" refX="12" refY="8.719"><path d="M0 0l12 8.719-12 8.718" stroke="#323232" stroke-width="2" fill="none"/></marker></defs><path d="M51 59.5h827V417H51V59.5z" fill="#fff"/><path d="M71 312q0-4 4-4h193q4 0 4 4v81q0 4-4 4H75q-4 0-4-4z" stroke="#323232" stroke-width="2" fill="#fff"/><path d="M71 338h201M71 367.5h201" stroke="#323232" stroke-width="2" fill="none"/><path d="M71 308h201v89H71z" fill="none"/><text font-weight="bold" text-decoration="blink" font-family="微软雅黑" text-anchor="middle" font-size="13" x="90.5" y="13.325" transform="translate(81 314.875)">Add</text><text font-weight="bold" text-decoration="blink" font-family="微软雅黑" text-anchor="middle" font-size="13" x="90.5" y="13.325" transform="translate(81 374.125)">+getResult() : double</text><path d="M183 99q0-4 4-4h206q4 0 4 4v70q0 4-4 4H187q-4 0-4-4z" stroke="#323232" stroke-width="2" fill="#fff"/><path d="M183 125h214" stroke="#323232" stroke-width="2" fill="none"/><path d="M183 95h214v78H183z" fill="none"/><text font-weight="bold" text-decoration="blink" font-family="微软雅黑" text-anchor="middle" font-size="13" x="97" y="13.325" transform="translate(193 101.875)">Operation</text><text font-weight="bold" text-decoration="blink" font-family="微软雅黑" text-anchor="middle" font-size="13" x="97" y="13.325" transform="translate(193 140.875)">+ getResult() : double</text><g><path d="M326 312q0-4 4-4h213q4 0 4 4v81q0 4-4 4H330q-4 0-4-4z" stroke="#323232" stroke-width="2" fill="#fff"/><path d="M326 338h221m-221 29.5h221" stroke="#323232" stroke-width="2" fill="none"/><path d="M326 308h221v89H326z" fill="none"/><text font-weight="bold" text-decoration="blink" font-family="微软雅黑" text-anchor="middle" font-size="13" x="100.5" y="13.325" transform="translate(336 314.875)">Division</text><text font-weight="bold" text-decoration="blink" font-family="微软雅黑" text-anchor="middle" font-size="13" x="100.5" y="13.325" transform="translate(336 374.125)">+getResult() : double</text></g><g><path d="M171.5 308v-67.5H290v-52.264" stroke="#323232" stroke-width="2" fill="none" marker-end="url(#a)"/></g><g><path d="M436.5 308v-67.5H290v-52.264" stroke="#323232" stroke-width="2" fill="none" marker-end="url(#b)"/></g><g><path d="M609 83.5q0-4 4-4h241q4 0 4 4v101q0 4-4 4H613q-4 0-4-4z" stroke="#323232" stroke-width="2" fill="#fff"/><path d="M609 109.5h249m-249 41h249" stroke="#323232" stroke-width="2" fill="none"/><path d="M609 79.5h249v109H609z" fill="none"/><text font-weight="bold" text-decoration="blink" font-family="微软雅黑" text-anchor="middle" font-size="13" x="114.5" y="13.325" transform="translate(619 86.375)">OperationFactory</text><text font-weight="bold" text-decoration="blink" font-family="微软雅黑" text-anchor="middle" font-size="13" x="114.5" y="13.325" transform="translate(619 163.375)">+createOperate() : Operation</text></g><g><path d="M609 134H503h0-106" stroke="#323232" stroke-width="2" fill="none" marker-end="url(#c)"/></g></svg>