<svg xmlns="http://www.w3.org/2000/svg" viewBox="68 50.75 963 552.75" width="963" height="552.75"><defs><marker id="a" markerUnits="userSpaceOnUse" orient="auto" markerWidth="16.236" markerHeight="10.551" viewBox="-1 -1.376 16.236 10.551" refX="-1" refY="3.899"><path d="M12 3.899l-12 3.9V0z" stroke="#323232" stroke-width="2" fill="#fff"/></marker><marker id="b" markerUnits="userSpaceOnUse" orient="auto" markerWidth="16.236" markerHeight="10.551" viewBox="-1 -1.376 16.236 10.551" refX="-1" refY="3.899"><path d="M12 3.899l-12 3.9V0z" stroke="#323232" stroke-width="2" fill="#fff"/></marker><marker id="c" markerUnits="userSpaceOnUse" orient="auto" markerWidth="14.289" markerHeight="19.055" viewBox="-0.588 -0.809 14.289 19.055" refX="12" refY="8.719"><path d="M0 0l12 8.719-12 8.718" stroke="#323232" stroke-width="2" fill="none"/></marker><marker id="d" markerUnits="userSpaceOnUse" orient="auto" markerWidth="20.61" markerHeight="10.888" viewBox="-2.305 -1.591 20.61 10.888" refX="16" refY="3.853"><path d="M0 3.853L8 0l8 3.853-8 3.852z" stroke="#323232" stroke-width="2" fill="#fff"/></marker><marker id="e" markerUnits="userSpaceOnUse" orient="auto" markerWidth="14.289" markerHeight="19.055" viewBox="-0.588 -0.809 14.289 19.055" refX="12" refY="8.719"><path d="M0 0l12 8.719-12 8.718" stroke="#323232" stroke-width="2" fill="none"/></marker><marker id="f" markerUnits="userSpaceOnUse" orient="auto" markerWidth="20.61" markerHeight="10.888" viewBox="-2.305 -1.591 20.61 10.888" refX="16" refY="3.853"><path d="M0 3.853L8 0l8 3.853-8 3.852z" stroke="#323232" stroke-width="2" fill="#323232"/></marker><marker id="g" markerUnits="userSpaceOnUse" orient="auto" markerWidth="14.289" markerHeight="19.055" viewBox="-0.588 -0.809 14.289 19.055" refX="12" refY="8.719"><path d="M0 0l12 8.719-12 8.718" stroke="#323232" stroke-width="2" fill="none"/></marker><marker id="h" markerUnits="userSpaceOnUse" orient="auto" markerWidth="14.289" markerHeight="19.055" viewBox="-0.588 -0.809 14.289 19.055" refX="12" refY="8.719"><path d="M0 0l12 8.719-12 8.718" stroke="#323232" stroke-width="2" fill="none"/></marker><marker id="i" markerUnits="userSpaceOnUse" orient="auto" markerWidth="14.289" markerHeight="19.055" viewBox="-0.588 -0.809 14.289 19.055" refX="12" refY="8.719"><path d="M0 0l12 8.719-12 8.718" stroke="#323232" stroke-width="2" fill="none"/></marker></defs><path d="M68 50.75h963V603.5H68V50.75z" fill="#fff"/><path d="M112 83q0-4 4-4h101q4 0 4 4v42q0 4-4 4H116q-4 0-4-4z" stroke="#323232" stroke-width="2" fill="#fff"/><path d="M112 109h109" stroke="#323232" stroke-width="2" fill="none"/><path d="M112 79h109v50H112z" fill="none"/><text font-weight="bold" text-decoration="blink" font-family="微软雅黑" text-anchor="middle" font-size="13" x="44.5" y="13.325" transform="translate(122 85.875)">动物</text><text font-weight="bold" text-decoration="blink" font-family="微软雅黑" text-anchor="middle" font-size="13" x="44.5" y="13.325" transform="translate(122 110.875)">+繁殖()</text><path d="M104.75 178q0-4 4-4h115.5q4 0 4 4v71q0 4-4 4h-115.5q-4 0-4-4z" stroke="#323232" stroke-width="2" fill="#fff"/><path d="M104.75 204h123.5m-123.5 24.5h123.5" stroke="#323232" stroke-width="2" fill="none"/><path d="M104.75 174h123.5v79h-123.5z" fill="none"/><text font-weight="bold" text-decoration="blink" font-family="微软雅黑" text-anchor="middle" font-size="13" x="51.75" y="13.325" transform="translate(114.75 180.875)">鸟</text><text font-weight="bold" text-decoration="blink" font-family="微软雅黑" text-anchor="middle" font-size="13" x="51.75" y="13.325" transform="translate(114.75 208.125)">-羽毛</text><text font-weight="bold" text-decoration="blink" font-family="微软雅黑" text-anchor="middle" font-size="13" x="51.75" y="13.325" transform="translate(114.75 232.625)">+飞翔()</text><path d="M166.5 174v-22.5h0v-7.264" stroke="#323232" stroke-width="2" fill="none" marker-end="url(#a)"/><path d="M169 148h68v20h-68z" fill="none"/><text text-decoration="blink" font-family="微软雅黑" text-anchor="middle" font-size="13" x="34" y="13.325" transform="translate(169 149.875)">继承关系</text><path d="M291 75q0-4 4-4h132q4 0 4 4v64q0 4-4 4H295q-4 0-4-4z" stroke="#323232" stroke-width="2" fill="#fff"/><path d="M291 103h140" stroke="#323232" stroke-width="2" fill="none"/><path d="M291 71h140v72H291z" fill="none"/><g font-weight="bold" font-family="微软雅黑" text-anchor="middle" font-size="13"><text text-decoration="blink" x="60" y="13.325" transform="translate(301 70.75)">&lt;&lt;interface&gt;&gt;</text><text text-decoration="blink" x="60" y="29.575" transform="translate(301 70.75)">飞翔</text></g><text font-weight="bold" text-decoration="blink" font-family="微软雅黑" text-anchor="middle" font-size="13" x="60" y="13.325" transform="translate(301 120.375)">+飞()</text><path d="M297.5 198q0-4 4-4h119q4 0 4 4v101q0 4-4 4h-119q-4 0-4-4z" stroke="#323232" stroke-width="2" fill="#fff"/><path d="M297.5 224h127m-127 36h127" stroke="#323232" stroke-width="2" fill="none"/><path d="M297.5 194h127v109h-127z" fill="none"/><text font-weight="bold" text-decoration="blink" font-family="微软雅黑" text-anchor="middle" font-size="13" x="53.5" y="13.325" transform="translate(307.5 200.875)">大雁</text><text font-weight="bold" text-decoration="blink" font-family="微软雅黑" text-anchor="middle" font-size="13" x="53.5" y="13.325" transform="translate(307.5 233.875)">-翅膀</text><g font-weight="bold" font-family="微软雅黑" text-anchor="middle" font-size="13"><text text-decoration="blink" x="53.5" y="13.325" transform="translate(307.5 268.25)">+下蛋()</text><text text-decoration="blink" x="53.5" y="29.575" transform="translate(307.5 268.25)">+飞()</text></g><path d="M361 194v-25.5h0v-10.264" stroke="#323232" stroke-width="2" stroke-dasharray="10.0 4.0" fill="none" marker-end="url(#b)"/><path d="M345 157h108v32H345z" fill="none"/><text text-decoration="blink" font-family="微软雅黑" text-anchor="middle" font-size="13" x="54" y="13.325" transform="translate(345 164.875)">实现接口</text><g><path d="M481 81q0-4 4-4h113q4 0 4 4v83q0 4-4 4H485q-4 0-4-4z" stroke="#323232" stroke-width="2" fill="#fff"/><path d="M481 107h121m-121 36h121" stroke="#323232" stroke-width="2" fill="none"/><path d="M481 77h121v91H481z" fill="none"/><text font-weight="bold" text-decoration="blink" font-family="微软雅黑" text-anchor="middle" font-size="13" x="50.5" y="13.325" transform="translate(491 83.875)">企鹅</text><text font-weight="bold" text-decoration="blink" font-family="微软雅黑" text-anchor="middle" font-size="13" x="50.5" y="13.325" transform="translate(491 116.875)">-气候</text></g><g><path d="M686 81q0-4 4-4h117q4 0 4 4v83q0 4-4 4H690q-4 0-4-4z" stroke="#323232" stroke-width="2" fill="#fff"/><path d="M686 107h125m-125 36h125" stroke="#323232" stroke-width="2" fill="none"/><path d="M686 77h125v91H686z" fill="none"/><text font-weight="bold" text-decoration="blink" font-family="微软雅黑" text-anchor="middle" font-size="13" x="52.5" y="13.325" transform="translate(696 83.875)">气候</text></g><g><path d="M602 122.5h84" stroke="#323232" stroke-width="2" fill="none" marker-end="url(#c)"/></g><g><path d="M607 129h69v35h-69z" fill="none"/><text text-decoration="blink" font-family="微软雅黑" text-anchor="middle" font-size="13" x="34.5" y="13.325" transform="translate(607 138.375)">关联关系</text></g><g><path d="M504 208q0-4 4-4h108q4 0 4 4v81q0 4-4 4H508q-4 0-4-4z" stroke="#323232" stroke-width="2" fill="#fff"/><path d="M504 234h116m-116 36h116" stroke="#323232" stroke-width="2" fill="none"/><path d="M504 204h116v89H504z" fill="none"/><text font-weight="bold" text-decoration="blink" font-family="微软雅黑" text-anchor="middle" font-size="13" x="48" y="13.325" transform="translate(514 210.875)">雁群</text></g><g><path d="M725 208q0-4 4-4h102q4 0 4 4v81q0 4-4 4H729q-4 0-4-4z" stroke="#323232" stroke-width="2" fill="#fff"/><path d="M725 234h110m-110 43h110" stroke="#323232" stroke-width="2" fill="none"/><path d="M725 204h110v89H725z" fill="none"/><text font-weight="bold" text-decoration="blink" font-family="微软雅黑" text-anchor="middle" font-size="13" x="45" y="13.325" transform="translate(735 210.875)">大雁</text></g><g><path d="M638.305 248.5H725" stroke="#323232" stroke-width="2" fill="none" marker-start="url(#d)" marker-end="url(#e)"/></g><g><path d="M634 248h77v51h-77z" fill="none"/><text text-decoration="blink" font-family="微软雅黑" text-anchor="middle" font-size="13" x="38.5" y="13.325" transform="translate(634 265.375)">聚合关系</text></g><g><path d="M88 393q0-4 4-4h90q4 0 4 4v93q0 4-4 4H92q-4 0-4-4z" stroke="#323232" stroke-width="2" fill="#fff"/><path d="M88 419h98m-98 41h98" stroke="#323232" stroke-width="2" fill="none"/><path d="M88 389h98v101H88z" fill="none"/><text font-weight="bold" text-decoration="blink" font-family="微软雅黑" text-anchor="middle" font-size="13" x="39" y="13.325" transform="translate(98 395.875)">鸟</text></g><g><path d="M305.5 391.5q0-4 4-4H442q4 0 4 4v96q0 4-4 4H309.5q-4 0-4-4z" stroke="#323232" stroke-width="2" fill="#fff"/><path d="M305.5 417.5H446m-140.5 43H446" stroke="#323232" stroke-width="2" fill="none"/><path d="M305.5 387.5H446v104H305.5z" fill="none"/><text font-weight="bold" text-decoration="blink" font-family="微软雅黑" text-anchor="middle" font-size="13" x="60.25" y="13.325" transform="translate(315.5 394.375)">翅膀</text></g><g><path d="M204.305 439.5H305.5" stroke="#323232" stroke-width="2" fill="none" marker-start="url(#f)" marker-end="url(#g)"/></g><g><path d="M194.5 405h111v29h-111z" fill="none"/><text text-decoration="blink" font-family="微软雅黑" text-anchor="middle" font-size="13" x="55.5" y="13.325" transform="translate(194.5 411.375)">合成(组合)</text></g><g><path d="M190.25 445h38v35h-38z" fill="none"/><text font-weight="bold" text-decoration="blink" font-family="微软雅黑" text-anchor="middle" font-size="18" x="19" y="18.45" transform="translate(190.25 451.25)">1</text></g><g><path d="M265.5 443h32v39h-32z" fill="none"/><text font-weight="bold" text-decoration="blink" font-family="微软雅黑" text-anchor="middle" font-size="16" x="16" y="16.4" transform="translate(265.5 452.5)">2</text></g><g><path d="M504 334q0-4 4-4h96q4 0 4 4v84q0 4-4 4h-96q-4 0-4-4z" stroke="#323232" stroke-width="2" fill="#fff"/><path d="M504 360h104m-104 36h104" stroke="#323232" stroke-width="2" fill="none"/><path d="M504 330h104v92H504z" fill="none"/><text font-weight="bold" text-decoration="blink" font-family="微软雅黑" text-anchor="middle" font-size="13" x="42" y="13.325" transform="translate(514 336.875)">氧气</text></g><g><path d="M501 486q0-4 4-4h99q4 0 4 4v93.5q0 4-4 4h-99q-4 0-4-4z" stroke="#323232" stroke-width="2" fill="#fff"/><path d="M501 512h107m-107 43h107" stroke="#323232" stroke-width="2" fill="none"/><path d="M501 482h107v101.5H501z" fill="none"/><text font-weight="bold" text-decoration="blink" font-family="微软雅黑" text-anchor="middle" font-size="13" x="43.5" y="13.325" transform="translate(511 488.875)">水</text></g><g><path d="M686 406q0-4 4-4h317q4 0 4 4v96q0 4-4 4H690q-4 0-4-4z" stroke="#323232" stroke-width="2" fill="#fff"/><path d="M686 432h325m-325 41h325" stroke="#323232" stroke-width="2" fill="none"/><path d="M686 402h325v104H686z" fill="none"/><text font-weight="bold" text-decoration="blink" font-family="微软雅黑" text-anchor="middle" font-size="13" x="152.5" y="13.325" transform="translate(696 408.875)">动物</text><text font-weight="bold" text-decoration="blink" font-family="微软雅黑" text-anchor="middle" font-size="13" x="152.5" y="13.325" transform="translate(696 485.875)">+新陈代谢(int O2 : 氧气, int water : 水 )</text></g><g><path d="M686 454h-39v-78h-39" stroke="#323232" stroke-width="2" stroke-dasharray="10.0 4.0" fill="none" marker-end="url(#h)"/></g><g><path d="M686 454h-39v78.75h-39" stroke="#323232" stroke-width="2" stroke-dasharray="10.0 4.0" fill="none" marker-end="url(#i)"/></g><g><path d="M616 537h135v23H616z" fill="none"/><text text-decoration="blink" font-family="微软雅黑" text-anchor="middle" font-size="13" x="67.5" y="13.325" transform="translate(616 540.375)">依赖关系</text></g></svg>