<svg xmlns="http://www.w3.org/2000/svg" viewBox="61 43 861 545" width="861" height="545"><defs><marker id="a" markerUnits="userSpaceOnUse" orient="auto" markerWidth="16.236" markerHeight="10.551" viewBox="-1 -1.376 16.236 10.551" refX="-1" refY="3.899"><path d="M12 3.899l-12 3.9V0z" stroke="#323232" stroke-width="2" fill="#323232"/></marker><marker id="b" markerUnits="userSpaceOnUse" orient="auto" markerWidth="16.236" markerHeight="10.551" viewBox="-1 -1.376 16.236 10.551" refX="-1" refY="3.899"><path d="M12 3.899l-12 3.9V0z" stroke="#323232" stroke-width="2" fill="#323232"/></marker><marker id="c" markerUnits="userSpaceOnUse" orient="auto" markerWidth="16.236" markerHeight="10.551" viewBox="-1 -1.376 16.236 10.551" refX="-1" refY="3.899"><path d="M12 3.899l-12 3.9V0z" stroke="#323232" stroke-width="2" fill="#fff"/></marker><marker id="d" markerUnits="userSpaceOnUse" orient="auto" markerWidth="20.61" markerHeight="10.888" viewBox="-2.305 -1.591 20.61 10.888" refX="16" refY="3.853"><path d="M0 3.853L8 0l8 3.853-8 3.852z" stroke="#323232" stroke-width="2" fill="#fff"/></marker><marker id="e" markerUnits="userSpaceOnUse" orient="auto" markerWidth="14.289" markerHeight="19.055" viewBox="-0.588 -0.809 14.289 19.055" refX="12" refY="8.719"><path d="M0 0l12 8.719-12 8.718" stroke="#323232" stroke-width="2" fill="none"/></marker></defs><path d="M61 43h861v545H61V43z" fill="#fff"/><path d="M365 67q0-4 4-4h232q4 0 4 4v187q0 4-4 4H369q-4 0-4-4z" stroke="#323232" stroke-width="2" fill="#fff"/><path d="M365 93h240m-240 82.5h240" stroke="#323232" stroke-width="2" fill="none"/><path d="M365 63h240v195H365z" fill="none"/><text font-weight="bold" text-decoration="blink" font-family="微软雅黑" text-anchor="middle" font-size="13" x="110" y="13.325" transform="translate(375 69.875)">Company</text><text font-weight="bold" text-decoration="blink" font-family="微软雅黑" text-anchor="middle" font-size="13" x="110" y="13.325" transform="translate(375 126.125)">-name : String</text><g font-weight="bold" font-family="微软雅黑" text-anchor="middle" font-size="13"><text text-decoration="blink" x="110" y="13.325" transform="translate(375 184.25)">#add(Company c) : void</text><text text-decoration="blink" x="110" y="29.575" transform="translate(375 184.25)">#remove(Company c) : void</text><text text-decoration="blink" x="110" y="45.825" transform="translate(375 184.25)">#display(int depth) : void</text><text text-decoration="blink" x="110" y="62.075" transform="translate(375 184.25)">#lineOfDuty() : void</text></g><path d="M371.5 365q0-4 4-4h219q4 0 4 4v167q0 4-4 4h-219q-4 0-4-4z" stroke="#323232" stroke-width="2" fill="#fff"/><path d="M371.5 391h227m-227 72.5h227" stroke="#323232" stroke-width="2" fill="none"/><path d="M371.5 361h227v175h-227z" fill="none"/><text font-weight="bold" text-decoration="blink" font-family="微软雅黑" text-anchor="middle" font-size="13" x="103.5" y="13.325" transform="translate(381.5 367.875)">HRDepartment</text><g font-weight="bold" font-family="微软雅黑" text-anchor="middle" font-size="13"><text text-decoration="blink" x="103.5" y="13.325" transform="translate(381.5 467.25)">+add(Company c) : void</text><text text-decoration="blink" x="103.5" y="29.575" transform="translate(381.5 467.25)">+remove(Company c) : void</text><text text-decoration="blink" x="103.5" y="45.825" transform="translate(381.5 467.25)">+display(int depth) : void</text><text text-decoration="blink" x="103.5" y="62.075" transform="translate(381.5 467.25)">+lineOfDuty() : void</text></g><g><path d="M111 365q0-4 4-4h217q4 0 4 4v199q0 4-4 4H115q-4 0-4-4z" stroke="#323232" stroke-width="2" fill="#fff"/><path d="M111 391h225m-225 88.5h225" stroke="#323232" stroke-width="2" fill="none"/><path d="M111 361h225v207H111z" fill="none"/><text font-weight="bold" text-decoration="blink" font-family="微软雅黑" text-anchor="middle" font-size="13" x="102.5" y="13.325" transform="translate(121 367.875)">ConcreteCompany</text><text font-weight="bold" text-decoration="blink" font-family="微软雅黑" text-anchor="middle" font-size="13" x="102.5" y="13.325" transform="translate(121 427.125)">-children : List&lt;Company&gt;</text><g font-weight="bold" font-family="微软雅黑" text-anchor="middle" font-size="13"><text text-decoration="blink" x="102.5" y="13.325" transform="translate(121 491.25)">+add(Company c) : void</text><text text-decoration="blink" x="102.5" y="29.575" transform="translate(121 491.25)">+remove(Company c) : void</text><text text-decoration="blink" x="102.5" y="45.825" transform="translate(121 491.25)">+display(int depth) : void</text><text text-decoration="blink" x="102.5" y="62.075" transform="translate(121 491.25)">+lineOfDuty() : void</text></g></g><g><path d="M663 365q0-4 4-4h231q4 0 4 4v167q0 4-4 4H667q-4 0-4-4z" stroke="#323232" stroke-width="2" fill="#fff"/><path d="M663 391h239m-239 72.5h239" stroke="#323232" stroke-width="2" fill="none"/><path d="M663 361h239v175H663z" fill="none"/><text font-weight="bold" text-decoration="blink" font-family="微软雅黑" text-anchor="middle" font-size="13" x="109.5" y="13.325" transform="translate(673 367.875)">FinaceDepartment</text><g font-weight="bold" font-family="微软雅黑" text-anchor="middle" font-size="13"><text text-decoration="blink" x="109.5" y="13.325" transform="translate(673 467.25)">+add(Company c) : void</text><text text-decoration="blink" x="109.5" y="29.575" transform="translate(673 467.25)">+remove(Company c) : void</text><text text-decoration="blink" x="109.5" y="45.825" transform="translate(673 467.25)">+display(int depth) : void</text><text text-decoration="blink" x="109.5" y="62.075" transform="translate(673 467.25)">+lineOfDuty() : void</text></g></g><g><path d="M223.5 361v-51.5H485v-36.264" stroke="#323232" stroke-width="2" fill="none" marker-end="url(#a)"/></g><g><path d="M485 361v-51.5h0v-36.264" stroke="#323232" stroke-width="2" fill="none" marker-end="url(#b)"/></g><g><path d="M782.5 361v-51.5H485v-36.264" stroke="#323232" stroke-width="2" fill="none" marker-end="url(#c)"/></g><g><path d="M92.695 464.5H81v-304h284" stroke="#323232" stroke-width="2" fill="none" marker-start="url(#d)" marker-end="url(#e)"/></g></svg>