<svg xmlns="http://www.w3.org/2000/svg" viewBox="179 130 554 356" width="554" height="356"><defs><marker id="a" markerUnits="userSpaceOnUse" orient="auto" markerWidth="16.236" markerHeight="10.551" viewBox="-1 -1.376 16.236 10.551" refX="-1" refY="3.899"><path d="M12 3.899l-12 3.9V0z" stroke="#323232" stroke-width="2" fill="#fff"/></marker><marker id="b" markerUnits="userSpaceOnUse" orient="auto" markerWidth="16.236" markerHeight="10.551" viewBox="-1 -1.376 16.236 10.551" refX="-1" refY="3.899"><path d="M12 3.899l-12 3.9V0z" stroke="#323232" stroke-width="2" fill="#fff"/></marker><marker id="c" markerUnits="userSpaceOnUse" orient="auto" markerWidth="14.289" markerHeight="19.055" viewBox="-0.588 -0.809 14.289 19.055" refX="12" refY="8.719"><path d="M0 0l12 8.719-12 8.718" stroke="#323232" stroke-width="2" fill="none"/></marker></defs><path d="M179 130h554v356H179V130z" fill="#fff"/><path d="M199 338.75q0-4 4-4h172q4 0 4 4v117q0 4-4 4H203q-4 0-4-4z" stroke="#323232" stroke-width="2" fill="#fff"/><path d="M199 364.75h180m-180 47.5h180" stroke="#323232" stroke-width="2" fill="none"/><path d="M199 334.75h180v125H199z" fill="none"/><text font-weight="bold" text-decoration="blink" font-family="微软雅黑" text-anchor="middle" font-size="13" x="80" y="13.325" transform="translate(209 341.625)">ConcreteIterator</text><g font-weight="bold" font-family="微软雅黑" text-anchor="middle" font-size="13"><text text-decoration="blink" x="80" y="13.325" transform="translate(209 419.75)">+hasNext()</text><text text-decoration="blink" x="80" y="29.575" transform="translate(209 419.75)">+next()</text></g><path d="M202 154q0-4 4-4h166q4 0 4 4v77q0 4-4 4H206q-4 0-4-4z" stroke="#323232" stroke-width="2" fill="#fff"/><path d="M202 180h174" stroke="#323232" stroke-width="2" fill="none"/><path d="M202 150h174v85H202z" fill="none"/><text font-weight="bold" text-decoration="blink" font-family="微软雅黑" text-anchor="middle" font-size="13" x="77" y="13.325" transform="translate(212 156.875)">Iterator</text><g font-weight="bold" font-family="微软雅黑" text-anchor="middle" font-size="13"><text text-decoration="blink" x="77" y="13.325" transform="translate(212 191.25)">+hasNext()</text><text text-decoration="blink" x="77" y="29.575" transform="translate(212 191.25)">+next()</text></g><g><path d="M289 334.75v-49.875h0v-34.639" stroke="#323232" stroke-width="2" stroke-dasharray="10.0 4.0" fill="none" marker-end="url(#a)"/></g><g><path d="M529.25 332.5q0-4 4-4h172.5q4 0 4 4V462q0 4-4 4h-172.5q-4 0-4-4z" stroke="#323232" stroke-width="2" fill="#fff"/><path d="M529.25 358.5h180.5m-180.5 53.75h180.5" stroke="#323232" stroke-width="2" fill="none"/><path d="M529.25 328.5h180.5V466h-180.5z" fill="none"/><text font-weight="bold" text-decoration="blink" font-family="微软雅黑" text-anchor="middle" font-size="13" x="80.25" y="13.325" transform="translate(539.25 335.375)">ConcreteAggregate</text><g font-weight="bold" font-family="微软雅黑" text-anchor="middle" font-size="13"><text text-decoration="blink" x="80.25" y="13.325" transform="translate(539.25 414.75)">+push()</text><text text-decoration="blink" x="80.25" y="29.575" transform="translate(539.25 414.75)">+remove()</text><text text-decoration="blink" x="80.25" y="45.825" transform="translate(539.25 414.75)">+createIterator()</text></g></g><g><path d="M526 161q0-4 4-4h179q4 0 4 4v75q0 4-4 4H530q-4 0-4-4z" stroke="#323232" stroke-width="2" fill="#fff"/><path d="M526 187h187" stroke="#323232" stroke-width="2" fill="none"/><path d="M526 157h187v83H526z" fill="none"/><text font-weight="bold" text-decoration="blink" font-family="微软雅黑" text-anchor="middle" font-size="13" x="83.5" y="13.325" transform="translate(536 163.875)">Aggregate</text><text font-weight="bold" text-decoration="blink" font-family="微软雅黑" text-anchor="middle" font-size="13" x="83.5" y="13.325" transform="translate(536 205.375)">+createIterator()</text></g><g><path d="M619.5 328.5v-44.25h0v-29.014" stroke="#323232" stroke-width="2" stroke-dasharray="10.0 4.0" fill="none" marker-end="url(#b)"/></g><g><path d="M529.25 397.25h-75.125 0H379" stroke="#323232" stroke-width="2" fill="none" marker-end="url(#c)"/></g></svg>