<svg xmlns="http://www.w3.org/2000/svg" viewBox="136 47.5 830 376.5" width="830" height="376.5"><defs><marker id="a" markerUnits="userSpaceOnUse" orient="auto" markerWidth="16.236" markerHeight="10.551" viewBox="-1 -1.376 16.236 10.551" refX="-1" refY="3.899"><path d="M12 3.899l-12 3.9V0z" stroke="#323232" stroke-width="2" fill="#323232"/></marker><marker id="b" markerUnits="userSpaceOnUse" orient="auto" markerWidth="16.236" markerHeight="10.551" viewBox="-1 -1.376 16.236 10.551" refX="-1" refY="3.899"><path d="M12 3.899l-12 3.9V0z" stroke="#323232" stroke-width="2" fill="#323232"/></marker><marker id="c" markerUnits="userSpaceOnUse" orient="auto" markerWidth="16.236" markerHeight="10.551" viewBox="-1 -1.376 16.236 10.551" refX="-1" refY="3.899"><path d="M12 3.899l-12 3.9V0z" stroke="#323232" stroke-width="2" fill="#fff"/></marker><marker id="d" markerUnits="userSpaceOnUse" orient="auto" markerWidth="20.61" markerHeight="10.888" viewBox="-2.305 -1.591 20.61 10.888" refX="16" refY="3.853"><path d="M0 3.853L8 0l8 3.853-8 3.852z" stroke="#323232" stroke-width="2" fill="#fff"/></marker><marker id="e" markerUnits="userSpaceOnUse" orient="auto" markerWidth="14.289" markerHeight="19.055" viewBox="-0.588 -0.809 14.289 19.055" refX="12" refY="8.719"><path d="M0 0l12 8.719-12 8.718" stroke="#323232" stroke-width="2" fill="none"/></marker><marker id="f" markerUnits="userSpaceOnUse" orient="auto" markerWidth="14.289" markerHeight="19.055" viewBox="-0.588 -0.809 14.289 19.055" refX="12" refY="8.719"><path d="M0 0l12 8.719-12 8.718" stroke="#323232" stroke-width="2" fill="none"/></marker></defs><path d="M136 47.5h830V424H136V47.5z" fill="#fff"/><path d="M357 312q0-4 4-4h161q4 0 4 4v88q0 4-4 4H361q-4 0-4-4z" stroke="#323232" stroke-width="2" fill="#fff"/><path d="M357 338h169m-169 33h169" stroke="#323232" stroke-width="2" fill="none"/><path d="M357 308h169v96H357z" fill="none"/><text font-weight="bold" text-decoration="blink" font-family="微软雅黑" text-anchor="middle" font-size="13" x="74.5" y="13.325" transform="translate(367 314.875)">Morning</text><text font-weight="bold" text-decoration="blink" font-family="微软雅黑" text-anchor="middle" font-size="13" x="74.5" y="13.325" transform="translate(367 379.375)">+handle() : void</text><path d="M565 110q0-4 4-4h159q4 0 4 4v71q0 4-4 4H569q-4 0-4-4z" stroke="#323232" stroke-width="2" fill="#fff"/><path d="M565 136h167" stroke="#323232" stroke-width="2" fill="none"/><path d="M565 106h167v79H565z" fill="none"/><text font-weight="bold" text-decoration="blink" font-family="微软雅黑" text-anchor="middle" font-size="13" x="73.5" y="13.325" transform="translate(575 112.875)">State</text><text font-weight="bold" text-decoration="blink" font-family="微软雅黑" text-anchor="middle" font-size="13" x="73.5" y="13.325" transform="translate(575 152.375)">#handle() : void</text><g><path d="M441.5 308v-61.5h207v-46.264" stroke="#323232" stroke-width="2" fill="none" marker-end="url(#a)"/></g><g><path d="M777 312q0-4 4-4h161q4 0 4 4v88q0 4-4 4H781q-4 0-4-4z" stroke="#323232" stroke-width="2" fill="#fff"/><path d="M777 338h169m-169 33h169" stroke="#323232" stroke-width="2" fill="none"/><path d="M777 308h169v96H777z" fill="none"/><text font-weight="bold" text-decoration="blink" font-family="微软雅黑" text-anchor="middle" font-size="13" x="74.5" y="13.325" transform="translate(787 314.875)">Afternoon</text><text font-weight="bold" text-decoration="blink" font-family="微软雅黑" text-anchor="middle" font-size="13" x="74.5" y="13.325" transform="translate(787 379.375)">+handle() : void</text></g><g><path d="M564 312q0-4 4-4h161q4 0 4 4v88q0 4-4 4H568q-4 0-4-4z" stroke="#323232" stroke-width="2" fill="#fff"/><path d="M564 338h169m-169 33h169" stroke="#323232" stroke-width="2" fill="none"/><path d="M564 308h169v96H564z" fill="none"/><text font-weight="bold" text-decoration="blink" font-family="微软雅黑" text-anchor="middle" font-size="13" x="74.5" y="13.325" transform="translate(574 314.875)">Noon</text><text font-weight="bold" text-decoration="blink" font-family="微软雅黑" text-anchor="middle" font-size="13" x="74.5" y="13.325" transform="translate(574 379.375)">+handle() : void</text></g><g><path d="M156 101.5q0-4 4-4h161q4 0 4 4v88q0 4-4 4H160q-4 0-4-4z" stroke="#323232" stroke-width="2" fill="#fff"/><path d="M156 127.5h169m-169 33h169" stroke="#323232" stroke-width="2" fill="none"/><path d="M156 97.5h169v96H156z" fill="none"/><text font-weight="bold" text-decoration="blink" font-family="微软雅黑" text-anchor="middle" font-size="13" x="74.5" y="13.325" transform="translate(166 104.375)">Context</text><text font-weight="bold" text-decoration="blink" font-family="微软雅黑" text-anchor="middle" font-size="13" x="74.5" y="13.325" transform="translate(166 168.875)">+work() : void</text></g><g><path d="M648.5 308v-61.5h0v-46.264" stroke="#323232" stroke-width="2" fill="none" marker-end="url(#b)"/></g><g><path d="M861.5 308v-61.5h-213v-46.264" stroke="#323232" stroke-width="2" fill="none" marker-end="url(#c)"/></g><g><path d="M343.305 145.5H565" stroke="#323232" stroke-width="2" fill="none" marker-start="url(#d)" marker-end="url(#e)"/></g><g><path d="M648.5 106V67.5h-408v30" stroke="#323232" stroke-width="2" stroke-dasharray="10.0 4.0" fill="none" marker-end="url(#f)"/></g></svg>