<svg xmlns="http://www.w3.org/2000/svg" viewBox="64 66 673 387" width="673" height="387"><defs><marker id="a" markerUnits="userSpaceOnUse" orient="auto" markerWidth="14.289" markerHeight="19.055" viewBox="-0.588 -0.809 14.289 19.055" refX="12" refY="8.719"><path d="M0 0l12 8.719-12 8.718" stroke="#323232" stroke-width="2" fill="none"/></marker><marker id="b" markerUnits="userSpaceOnUse" orient="auto" markerWidth="14.289" markerHeight="19.055" viewBox="-0.588 -0.809 14.289 19.055" refX="12" refY="8.719"><path d="M0 0l12 8.719-12 8.718" stroke="#323232" stroke-width="2" fill="none"/></marker><marker id="c" markerUnits="userSpaceOnUse" orient="auto" markerWidth="20.61" markerHeight="10.888" viewBox="-2.305 -1.591 20.61 10.888" refX="16" refY="3.853"><path d="M0 3.853L8 0l8 3.853-8 3.852z" stroke="#323232" stroke-width="2" fill="#fff"/></marker><marker id="d" markerUnits="userSpaceOnUse" orient="auto" markerWidth="14.289" markerHeight="19.055" viewBox="-0.588 -0.809 14.289 19.055" refX="12" refY="8.719"><path d="M0 0l12 8.719-12 8.718" stroke="#323232" stroke-width="2" fill="none"/></marker></defs><path d="M64 66h673v387H64V66z" fill="#fff"/><path d="M554 324q0-4 4-4h155q4 0 4 4v105q0 4-4 4H558q-4 0-4-4z" stroke="#323232" stroke-width="2" fill="#fff"/><path d="M554 350h163m-163 43h163" stroke="#323232" stroke-width="2" fill="none"/><path d="M554 320h163v113H554z" fill="none"/><text font-weight="bold" text-decoration="blink" font-family="微软雅黑" text-anchor="middle" font-size="13" x="71.5" y="13.325" transform="translate(564 326.875)">NationalDebt</text><path d="M327 324q0-4 4-4h155q4 0 4 4v105q0 4-4 4H331q-4 0-4-4z" stroke="#323232" stroke-width="2" fill="#fff"/><path d="M327 350h163m-163 43h163" stroke="#323232" stroke-width="2" fill="none"/><path d="M327 320h163v113H327z" fill="none"/><text font-weight="bold" text-decoration="blink" font-family="微软雅黑" text-anchor="middle" font-size="13" x="71.5" y="13.325" transform="translate(337 326.875)">StockB</text><g><path d="M84 324q0-4 4-4h155q4 0 4 4v105q0 4-4 4H88q-4 0-4-4z" stroke="#323232" stroke-width="2" fill="#fff"/><path d="M84 350h163M84 393h163" stroke="#323232" stroke-width="2" fill="none"/><path d="M84 320h163v113H84z" fill="none"/><text font-weight="bold" text-decoration="blink" font-family="微软雅黑" text-anchor="middle" font-size="13" x="71.5" y="13.325" transform="translate(94 326.875)">StockA</text></g><g><path d="M327 90q0-4 4-4h155q4 0 4 4v104q0 4-4 4H331q-4 0-4-4z" stroke="#323232" stroke-width="2" fill="#fff"/><path d="M327 116h163m-163 41h163" stroke="#323232" stroke-width="2" fill="none"/><path d="M327 86h163v112H327z" fill="none"/><text font-weight="bold" text-decoration="blink" font-family="微软雅黑" text-anchor="middle" font-size="13" x="71.5" y="13.325" transform="translate(337 92.875)">Fund</text><g font-weight="bold" font-family="微软雅黑" text-anchor="middle" font-size="13"><text text-decoration="blink" x="71.5" y="13.325" transform="translate(337 161.75)">+buy() : void</text><text text-decoration="blink" x="71.5" y="29.575" transform="translate(337 161.75)">+sell() : void</text></g></g><g><path d="M408.5 198v61h-243v61" stroke="#323232" stroke-width="2" fill="none" marker-end="url(#a)"/></g><g><path d="M408.5 198v61h0v61" stroke="#323232" stroke-width="2" fill="none" marker-end="url(#b)"/></g><g><path d="M408.5 216.305V259h227v61" stroke="#323232" stroke-width="2" fill="none" marker-start="url(#c)" marker-end="url(#d)"/></g></svg>