<svg id="SvgjsSvg1050" width="462" height="262" xmlns="http://www.w3.org/2000/svg" version="1.1" xmlns:xlink="http://www.w3.org/1999/xlink" xmlns:svgjs="http://svgjs.com/svgjs"><defs id="SvgjsDefs1051"></defs><g id="SvgjsG1052" transform="translate(92,25)"><path id="SvgjsPath1053" d="M 0 0L 165 0L 165 36L 0 36Z" stroke="none" fill="none"></path><g id="SvgjsG1054"><text id="SvgjsText1055" font-family="微软雅黑" text-anchor="middle" font-size="21px" width="165px" fill="#323232" font-weight="700" align="middle" anchor="middle" family="微软雅黑" size="21px" weight="700" font-style="" opacity="1" y="-0.1499999999999999" transform="rotate(0)"><tspan id="SvgjsTspan1056" dy="26" x="82.5"><tspan id="SvgjsTspan1057" style="text-decoration:;">arr = [1,3,3,8,6,7]</tspan></tspan></text></g></g><g id="SvgjsG1058" transform="translate(37,154)"><path id="SvgjsPath1059" d="M 0 0L 38 0L 38 38L 0 38Z" stroke="rgba(50,50,50,1)" stroke-width="2" fill-opacity="1" fill="#ffffff"></path><g id="SvgjsG1060"><text id="SvgjsText1061" font-family="微软雅黑" text-anchor="middle" font-size="21px" width="18px" fill="#323232" font-weight="700" align="middle" anchor="middle" family="微软雅黑" size="21px" weight="700" font-style="" opacity="1" y="0.8500000000000001" transform="rotate(0)"><tspan id="SvgjsTspan1062" dy="26" x="19"><tspan id="SvgjsTspan1063" style="text-decoration:;">1</tspan></tspan></text></g></g><g id="SvgjsG1064" transform="translate(137,154)"><path id="SvgjsPath1065" d="M 0 0L 38 0L 38 38L 0 38Z" stroke="rgba(50,50,50,1)" stroke-width="2" fill-opacity="1" fill="#ffffff"></path><g id="SvgjsG1066"><text id="SvgjsText1067" font-family="微软雅黑" text-anchor="middle" font-size="21px" width="18px" fill="#323232" font-weight="700" align="middle" anchor="middle" family="微软雅黑" size="21px" weight="700" font-style="" opacity="1" y="0.8500000000000001" transform="rotate(0)"><tspan id="SvgjsTspan1068" dy="26" x="19"><tspan id="SvgjsTspan1069" style="text-decoration:;">3</tspan></tspan></text></g></g><g id="SvgjsG1070" transform="translate(246,154)"><path id="SvgjsPath1071" d="M 0 0L 38 0L 38 38L 0 38Z" stroke="rgba(50,50,50,1)" stroke-width="2" fill-opacity="1" fill="#ffffff"></path><g id="SvgjsG1072"><text id="SvgjsText1073" font-family="微软雅黑" text-anchor="middle" font-size="21px" width="18px" fill="#323232" font-weight="700" align="middle" anchor="middle" family="微软雅黑" size="21px" weight="700" font-style="" opacity="1" y="0.8500000000000001" transform="rotate(0)"><tspan id="SvgjsTspan1074" dy="26" x="19"><tspan id="SvgjsTspan1075" style="text-decoration:;">8</tspan></tspan></text></g></g><g id="SvgjsG1076" transform="translate(361,154)"><path id="SvgjsPath1077" d="M 0 0L 38 0L 38 38L 0 38Z" stroke="rgba(50,50,50,1)" stroke-width="2" fill-opacity="1" fill="#ffffff"></path><g id="SvgjsG1078"><text id="SvgjsText1079" font-family="微软雅黑" text-anchor="middle" font-size="21px" width="18px" fill="#323232" font-weight="700" align="middle" anchor="middle" family="微软雅黑" size="21px" weight="700" font-style="" opacity="1" y="0.8500000000000001" transform="rotate(0)"><tspan id="SvgjsTspan1080" dy="26" x="19"><tspan id="SvgjsTspan1081" style="text-decoration:;">7</tspan></tspan></text></g></g><g id="SvgjsG1082" transform="translate(137,102)"><path id="SvgjsPath1083" d="M 0 0L 38 0L 38 38L 0 38Z" stroke="rgba(50,50,50,1)" stroke-width="2" fill-opacity="1" fill="#ffffff"></path><g id="SvgjsG1084"><text id="SvgjsText1085" font-family="微软雅黑" text-anchor="middle" font-size="21px" width="18px" fill="#323232" font-weight="700" align="middle" anchor="middle" family="微软雅黑" size="21px" weight="700" font-style="" opacity="1" y="0.8500000000000001" transform="rotate(0)"><tspan id="SvgjsTspan1086" dy="26" x="19"><tspan id="SvgjsTspan1087" style="text-decoration:;">3</tspan></tspan></text></g></g><g id="SvgjsG1088" transform="translate(246,102)"><path id="SvgjsPath1089" d="M 0 0L 38 0L 38 38L 0 38Z" stroke="rgba(50,50,50,1)" stroke-width="2" fill-opacity="1" fill="#ffffff"></path><g id="SvgjsG1090"><text id="SvgjsText1091" font-family="微软雅黑" text-anchor="middle" font-size="21px" width="18px" fill="#323232" font-weight="700" align="middle" anchor="middle" family="微软雅黑" size="21px" weight="700" font-style="" opacity="1" y="0.8500000000000001" transform="rotate(0)"><tspan id="SvgjsTspan1092" dy="26" x="19"><tspan id="SvgjsTspan1093" style="text-decoration:;">6</tspan></tspan></text></g></g><g id="SvgjsG1094" transform="translate(175,147)"><path id="SvgjsPath1095" d="M 0 10C 0 -3.3333333333333335 34 -3.3333333333333335 34 10C 34 23.333333333333332 0 23.333333333333332 0 10Z" stroke="rgba(50,50,50,1)" stroke-width="2" fill-opacity="1" fill="#ffffff"></path><g id="SvgjsG1096"><text id="SvgjsText1097" font-family="微软雅黑" text-anchor="middle" font-size="13px" width="14px" fill="#323232" font-weight="700" align="middle" anchor="middle" family="微软雅黑" size="13px" weight="700" font-style="italic" opacity="1" y="0.050000000000000044" transform="rotate(0)"><tspan id="SvgjsTspan1098" dy="16" x="17"><tspan id="SvgjsTspan1099" style="text-decoration:;">1</tspan></tspan></text></g></g><g id="SvgjsG1100" transform="translate(75,147)"><path id="SvgjsPath1101" d="M 0 10C 0 -3.3333333333333335 34 -3.3333333333333335 34 10C 34 23.333333333333332 0 23.333333333333332 0 10Z" stroke="rgba(50,50,50,1)" stroke-width="2" fill-opacity="1" fill="#ffffff"></path><g id="SvgjsG1102"><text id="SvgjsText1103" font-family="微软雅黑" text-anchor="middle" font-size="13px" width="14px" fill="#323232" font-weight="700" align="middle" anchor="middle" family="微软雅黑" size="13px" weight="700" font-style="italic" opacity="1" y="0.050000000000000044" transform="rotate(0)"><tspan id="SvgjsTspan1104" dy="16" x="17"><tspan id="SvgjsTspan1105" style="text-decoration:;">1</tspan></tspan></text></g></g><g id="SvgjsG1106" transform="translate(179,95)"><path id="SvgjsPath1107" d="M 0 10C 0 -3.3333333333333335 34 -3.3333333333333335 34 10C 34 23.333333333333332 0 23.333333333333332 0 10Z" stroke="rgba(50,50,50,1)" stroke-width="2" fill-opacity="1" fill="#ffffff"></path><g id="SvgjsG1108"><text id="SvgjsText1109" font-family="微软雅黑" text-anchor="middle" font-size="13px" width="14px" fill="#323232" font-weight="700" align="middle" anchor="middle" family="微软雅黑" size="13px" weight="700" font-style="italic" opacity="1" y="0.050000000000000044" transform="rotate(0)"><tspan id="SvgjsTspan1110" dy="16" x="17"><tspan id="SvgjsTspan1111" style="text-decoration:;">1</tspan></tspan></text></g></g><g id="SvgjsG1112" transform="translate(288,147)"><path id="SvgjsPath1113" d="M 0 10C 0 -3.3333333333333335 34 -3.3333333333333335 34 10C 34 23.333333333333332 0 23.333333333333332 0 10Z" stroke="rgba(50,50,50,1)" stroke-width="2" fill-opacity="1" fill="#ffffff"></path><g id="SvgjsG1114"><text id="SvgjsText1115" font-family="微软雅黑" text-anchor="middle" font-size="13px" width="14px" fill="#323232" font-weight="700" align="middle" anchor="middle" family="微软雅黑" size="13px" weight="700" font-style="italic" opacity="1" y="0.050000000000000044" transform="rotate(0)"><tspan id="SvgjsTspan1116" dy="16" x="17"><tspan id="SvgjsTspan1117" style="text-decoration:;">2</tspan></tspan></text></g></g><g id="SvgjsG1118" transform="translate(288,95)"><path id="SvgjsPath1119" d="M 0 10C 0 -3.3333333333333335 34 -3.3333333333333335 34 10C 34 23.333333333333332 0 23.333333333333332 0 10Z" stroke="rgba(50,50,50,1)" stroke-width="2" fill-opacity="1" fill="#ffffff"></path><g id="SvgjsG1120"><text id="SvgjsText1121" font-family="微软雅黑" text-anchor="middle" font-size="13px" width="14px" fill="#323232" font-weight="700" align="middle" anchor="middle" family="微软雅黑" size="13px" weight="700" font-style="italic" opacity="1" y="0.050000000000000044" transform="rotate(0)"><tspan id="SvgjsTspan1122" dy="16" x="17"><tspan id="SvgjsTspan1123" style="text-decoration:;">2</tspan></tspan></text></g></g><g id="SvgjsG1124" transform="translate(403,147)"><path id="SvgjsPath1125" d="M 0 10C 0 -3.3333333333333335 34 -3.3333333333333335 34 10C 34 23.333333333333332 0 23.333333333333332 0 10Z" stroke="rgba(50,50,50,1)" stroke-width="2" fill-opacity="1" fill="#ffffff"></path><g id="SvgjsG1126"><text id="SvgjsText1127" font-family="微软雅黑" text-anchor="middle" font-size="13px" width="14px" fill="#323232" font-weight="700" align="middle" anchor="middle" family="微软雅黑" size="13px" weight="700" font-style="italic" opacity="1" y="0.050000000000000044" transform="rotate(0)"><tspan id="SvgjsTspan1128" dy="16" x="17"><tspan id="SvgjsTspan1129" style="text-decoration:;">2</tspan></tspan></text></g></g><g id="SvgjsG1130" transform="translate(25,208)"><path id="SvgjsPath1131" d="M 0 0L 65 0L 65 29L 0 29Z" stroke="none" fill="none"></path><g id="SvgjsG1132"><text id="SvgjsText1133" font-family="微软雅黑" text-anchor="middle" font-size="16px" width="65px" fill="#323232" font-weight="700" align="middle" anchor="middle" family="微软雅黑" size="16px" weight="700" font-style="" opacity="1" y="2.1" transform="rotate(0)"><tspan id="SvgjsTspan1134" dy="20" x="32.5"><tspan id="SvgjsTspan1135" style="text-decoration:;">len=1</tspan></tspan></text></g></g><g id="SvgjsG1136" transform="translate(123.5,208)"><path id="SvgjsPath1137" d="M 0 0L 65 0L 65 29L 0 29Z" stroke="none" fill="none"></path><g id="SvgjsG1138"><text id="SvgjsText1139" font-family="微软雅黑" text-anchor="middle" font-size="16px" width="65px" fill="#323232" font-weight="700" align="middle" anchor="middle" family="微软雅黑" size="16px" weight="700" font-style="" opacity="1" y="2.1" transform="rotate(0)"><tspan id="SvgjsTspan1140" dy="20" x="32.5"><tspan id="SvgjsTspan1141" style="text-decoration:;">len=2</tspan></tspan></text></g></g><g id="SvgjsG1142" transform="translate(232.5,208)"><path id="SvgjsPath1143" d="M 0 0L 65 0L 65 29L 0 29Z" stroke="none" fill="none"></path><g id="SvgjsG1144"><text id="SvgjsText1145" font-family="微软雅黑" text-anchor="middle" font-size="16px" width="65px" fill="#323232" font-weight="700" align="middle" anchor="middle" family="微软雅黑" size="16px" weight="700" font-style="" opacity="1" y="2.1" transform="rotate(0)"><tspan id="SvgjsTspan1146" dy="20" x="32.5"><tspan id="SvgjsTspan1147" style="text-decoration:;">len=3</tspan></tspan></text></g></g><g id="SvgjsG1148" transform="translate(351,208)"><path id="SvgjsPath1149" d="M 0 0L 65 0L 65 29L 0 29Z" stroke="none" fill="none"></path><g id="SvgjsG1150"><text id="SvgjsText1151" font-family="微软雅黑" text-anchor="middle" font-size="16px" width="65px" fill="#323232" font-weight="700" align="middle" anchor="middle" family="微软雅黑" size="16px" weight="700" font-style="" opacity="1" y="2.1" transform="rotate(0)"><tspan id="SvgjsTspan1152" dy="20" x="32.5"><tspan id="SvgjsTspan1153" style="text-decoration:;">len=4</tspan></tspan></text></g></g></svg>