<svg xmlns="http://www.w3.org/2000/svg" viewBox="46 69 858 485" width="858" height="485"><defs><marker id="a" markerUnits="userSpaceOnUse" orient="auto" markerWidth="16.236" markerHeight="10.551" viewBox="-1 -1.376 16.236 10.551" refX="-1" refY="3.899"><path d="M12 3.899l-12 3.9V0z" stroke="#323232" stroke-width="2" fill="#fff"/></marker><marker id="b" markerUnits="userSpaceOnUse" orient="auto" markerWidth="16.236" markerHeight="10.551" viewBox="-1 -1.376 16.236 10.551" refX="-1" refY="3.899"><path d="M12 3.899l-12 3.9V0z" stroke="#323232" stroke-width="2" fill="#fff"/></marker><marker id="c" markerUnits="userSpaceOnUse" orient="auto" markerWidth="16.236" markerHeight="10.551" viewBox="-1 -1.376 16.236 10.551" refX="-1" refY="3.899"><path d="M12 3.899l-12 3.9V0z" stroke="#323232" stroke-width="2" fill="#fff"/></marker><marker id="d" markerUnits="userSpaceOnUse" orient="auto" markerWidth="20.61" markerHeight="10.888" viewBox="-2.305 -1.591 20.61 10.888" refX="16" refY="3.853"><path d="M0 3.853L8 0l8 3.853-8 3.852z" stroke="#323232" stroke-width="2" fill="#fff"/></marker><marker id="e" markerUnits="userSpaceOnUse" orient="auto" markerWidth="14.289" markerHeight="19.055" viewBox="-0.588 -0.809 14.289 19.055" refX="12" refY="8.719"><path d="M0 0l12 8.719-12 8.718" stroke="#323232" stroke-width="2" fill="none"/></marker><marker id="f" markerUnits="userSpaceOnUse" orient="auto" markerWidth="14.289" markerHeight="19.055" viewBox="-0.588 -0.809 14.289 19.055" refX="12" refY="8.719"><path d="M0 0l12 8.719-12 8.718" stroke="#323232" stroke-width="2" fill="none"/></marker><marker id="g" markerUnits="userSpaceOnUse" orient="auto" markerWidth="14.289" markerHeight="19.055" viewBox="-0.588 -0.809 14.289 19.055" refX="12" refY="8.719"><path d="M0 0l12 8.719-12 8.718" stroke="#323232" stroke-width="2" fill="none"/></marker></defs><path d="M46 69h858v485H46V69z" fill="#fff"/><path d="M66 332q0-4 4-4h202q4 0 4 4v142q0 4-4 4H70q-4 0-4-4z" stroke="#323232" stroke-width="2" fill="#fff"/><path d="M66 358h210M66 418h210" stroke="#323232" stroke-width="2" fill="none"/><path d="M66 328h210v150H66z" fill="none"/><text font-weight="bold" text-decoration="blink" font-family="微软雅黑" text-anchor="middle" font-size="13" x="95" y="13.325" transform="translate(76 334.875)">StockObserver</text><g font-weight="bold" font-family="微软雅黑" text-anchor="middle" font-size="13"><text text-decoration="blink" x="95" y="13.325" transform="translate(76 371.75)">-name : String</text><text text-decoration="blink" x="95" y="29.575" transform="translate(76 371.75)">-subject : Subject</text></g><text font-weight="bold" text-decoration="blink" font-family="微软雅黑" text-anchor="middle" font-size="13" x="95" y="13.325" transform="translate(76 439.875)">+update() : void</text><path d="M160 110q0-4 4-4h150q4 0 4 4v103q0 4-4 4H164q-4 0-4-4z" stroke="#323232" stroke-width="2" fill="#fff"/><path d="M160 136h158" stroke="#323232" stroke-width="2" fill="none"/><path d="M160 106h158v111H160z" fill="none"/><text font-weight="bold" text-decoration="blink" font-family="微软雅黑" text-anchor="middle" font-size="13" x="69" y="13.325" transform="translate(170 112.875)">Observer</text><text font-weight="bold" text-decoration="blink" font-family="微软雅黑" text-anchor="middle" font-size="13" x="69" y="13.325" transform="translate(170 168.375)">+update() : void</text><g><path d="M315 332q0-4 4-4h202q4 0 4 4v142q0 4-4 4H319q-4 0-4-4z" stroke="#323232" stroke-width="2" fill="#fff"/><path d="M315 358h210m-210 60h210" stroke="#323232" stroke-width="2" fill="none"/><path d="M315 328h210v150H315z" fill="none"/><text font-weight="bold" text-decoration="blink" font-family="微软雅黑" text-anchor="middle" font-size="13" x="95" y="13.325" transform="translate(325 334.875)">FootballObserver</text><g font-weight="bold" font-family="微软雅黑" text-anchor="middle" font-size="13"><text text-decoration="blink" x="95" y="13.325" transform="translate(325 371.75)">-name : String</text><text text-decoration="blink" x="95" y="29.575" transform="translate(325 371.75)">-subject : Subject</text></g><text font-weight="bold" text-decoration="blink" font-family="微软雅黑" text-anchor="middle" font-size="13" x="95" y="13.325" transform="translate(325 439.875)">+update() : void</text></g><g><path d="M677.5 336q0-4 4-4h195q4 0 4 4v194q0 4-4 4h-195q-4 0-4-4z" stroke="#323232" stroke-width="2" fill="#fff"/><path d="M677.5 362h203m-203 86h203" stroke="#323232" stroke-width="2" fill="none"/><path d="M677.5 332h203v202h-203z" fill="none"/><text font-weight="bold" text-decoration="blink" font-family="微软雅黑" text-anchor="middle" font-size="13" x="91.5" y="13.325" transform="translate(687.5 338.875)">Secretary</text><g font-weight="bold" font-family="微软雅黑" text-anchor="middle" font-size="13"><text text-decoration="blink" x="91.5" y="13.325" transform="translate(687.5 388.75)">-observers : List</text><text text-decoration="blink" x="91.5" y="29.575" transform="translate(687.5 388.75)">-state : String</text></g><g font-weight="bold" font-family="微软雅黑" text-anchor="middle" font-size="13"><text text-decoration="blink" x="91.5" y="13.325" transform="translate(687.5 458.5)">+attach(xx) : void</text><text text-decoration="blink" x="91.5" y="29.575" transform="translate(687.5 458.5)">+detach(xx) : void</text><text text-decoration="blink" x="91.5" y="45.825" transform="translate(687.5 458.5)">+notifyALL() : void</text><text text-decoration="blink" x="91.5" y="62.075" transform="translate(687.5 458.5)">+getState() : String</text></g></g><g><path d="M674 93q0-4 4-4h202q4 0 4 4v142q0 4-4 4H678q-4 0-4-4z" stroke="#323232" stroke-width="2" fill="#fff"/><path d="M674 119h210" stroke="#323232" stroke-width="2" fill="none"/><path d="M674 89h210v150H674z" fill="none"/><text font-weight="bold" text-decoration="blink" font-family="微软雅黑" text-anchor="middle" font-size="13" x="95" y="13.325" transform="translate(684 95.875)">Subject</text><g font-weight="bold" font-family="微软雅黑" text-anchor="middle" font-size="13"><text text-decoration="blink" x="95" y="13.325" transform="translate(684 146.5)">+attach(xx) : void</text><text text-decoration="blink" x="95" y="29.575" transform="translate(684 146.5)">+detach(xx) : void</text><text text-decoration="blink" x="95" y="45.825" transform="translate(684 146.5)">+notifyALL() : void</text><text text-decoration="blink" x="95" y="62.075" transform="translate(684 146.5)">+getState() : String</text></g></g><g><path d="M171 328v-55.5h68v-40.264" stroke="#323232" stroke-width="2" stroke-dasharray="10.0 4.0" fill="none" marker-end="url(#a)"/></g><g><path d="M420 328v-55.5H239v-40.264" stroke="#323232" stroke-width="2" stroke-dasharray="10.0 4.0" fill="none" marker-end="url(#b)"/></g><g><path d="M779 332v-46.5h0v-31.264" stroke="#323232" stroke-width="2" stroke-dasharray="10.0 4.0" fill="none" marker-end="url(#c)"/></g><g><path d="M659.195 433H579.75V161.5H318" stroke="#323232" stroke-width="2" fill="none" marker-start="url(#d)" marker-end="url(#e)"/></g><g><path d="M171 478v30h473V164h30" stroke="#323232" stroke-width="2" fill="none" marker-end="url(#f)"/></g><g><path d="M420 478v56h207V164h47" stroke="#323232" stroke-width="2" fill="none" marker-end="url(#g)"/></g></svg>