<svg xmlns="http://www.w3.org/2000/svg" viewBox="85 101 659 491" width="659" height="491"><defs><marker id="a" markerUnits="userSpaceOnUse" orient="auto" markerWidth="16.236" markerHeight="10.551" viewBox="-1 -1.376 16.236 10.551" refX="-1" refY="3.899"><path d="M12 3.899l-12 3.9V0z" stroke="#323232" stroke-width="2" fill="#323232"/></marker><marker id="b" markerUnits="userSpaceOnUse" orient="auto" markerWidth="16.236" markerHeight="10.551" viewBox="-1 -1.376 16.236 10.551" refX="-1" refY="3.899"><path d="M12 3.899l-12 3.9V0z" stroke="#323232" stroke-width="2" fill="#fff"/></marker><marker id="c" markerUnits="userSpaceOnUse" orient="auto" markerWidth="16.236" markerHeight="10.551" viewBox="-1 -1.376 16.236 10.551" refX="-1" refY="3.899"><path d="M12 3.899l-12 3.9V0z" stroke="#323232" stroke-width="2" fill="#323232"/></marker><marker id="d" markerUnits="userSpaceOnUse" orient="auto" markerWidth="16.236" markerHeight="10.551" viewBox="-1 -1.376 16.236 10.551" refX="-1" refY="3.899"><path d="M12 3.899l-12 3.9V0z" stroke="#323232" stroke-width="2" fill="#fff"/></marker><marker id="e" markerUnits="userSpaceOnUse" orient="auto" markerWidth="14.289" markerHeight="19.055" viewBox="-0.588 -0.809 14.289 19.055" refX="12" refY="8.719"><path d="M0 0l12 8.719-12 8.718" stroke="#323232" stroke-width="2" fill="none"/></marker><marker id="f" markerUnits="userSpaceOnUse" orient="auto" markerWidth="14.289" markerHeight="19.055" viewBox="-0.588 -0.809 14.289 19.055" refX="12" refY="8.719"><path d="M0 0l12 8.719-12 8.718" stroke="#323232" stroke-width="2" fill="none"/></marker></defs><path d="M85 101h659v491H85V101z" fill="#fff"/><path d="M428 246q0-4 4-4h88q4 0 4 4v70q0 4-4 4h-88q-4 0-4-4z" stroke="#323232" stroke-width="2" fill="#fff"/><path d="M428 272h96m-96 24h96" stroke="#323232" stroke-width="2" fill="none"/><path d="M428 242h96v78h-96z" fill="none"/><text font-weight="bold" text-decoration="blink" font-family="微软雅黑" text-anchor="middle" font-size="13" x="38" y="13.325" transform="translate(438 248.875)">ProductA1</text><path d="M486 125q0-4 4-4h139q4 0 4 4v62q0 4-4 4H490q-4 0-4-4z" stroke="#323232" stroke-width="2" fill="#fff"/><path d="M486 151h147" stroke="#323232" stroke-width="2" fill="none"/><path d="M486 121h147v70H486z" fill="none"/><text font-weight="bold" text-decoration="blink" font-family="微软雅黑" text-anchor="middle" font-size="13" x="63.5" y="13.325" transform="translate(496 127.875)">AbstractProductA</text><path d="M591 246q0-4 4-4h92q4 0 4 4v70q0 4-4 4h-92q-4 0-4-4z" stroke="#323232" stroke-width="2" fill="#fff"/><path d="M591 272h100m-100 24h100" stroke="#323232" stroke-width="2" fill="none"/><path d="M591 242h100v78H591z" fill="none"/><text font-weight="bold" text-decoration="blink" font-family="微软雅黑" text-anchor="middle" font-size="13" x="40" y="13.325" transform="translate(601 248.875)">ProductA2</text><g><path d="M476 242v-25.5h83.5v-10.264" stroke="#323232" stroke-width="2" stroke-dasharray="10.0 4.0" fill="none" marker-end="url(#a)"/></g><g><path d="M641 242v-25.5h-81.5v-10.264" stroke="#323232" stroke-width="2" stroke-dasharray="10.0 4.0" fill="none" marker-end="url(#b)"/></g><g><path d="M419 487q0-4 4-4h97q4 0 4 4v81q0 4-4 4h-97q-4 0-4-4z" stroke="#323232" stroke-width="2" fill="#fff"/><path d="M419 513h105m-105 29.5h105" stroke="#323232" stroke-width="2" fill="none"/><path d="M419 483h105v89H419z" fill="none"/><text font-weight="bold" text-decoration="blink" font-family="微软雅黑" text-anchor="middle" font-size="13" x="42.5" y="13.325" transform="translate(429 489.875)">ProductB1</text></g><g><path d="M482 369q0-4 4-4h154q4 0 4 4v61q0 4-4 4H486q-4 0-4-4z" stroke="#323232" stroke-width="2" fill="#fff"/><path d="M482 395h162" stroke="#323232" stroke-width="2" fill="none"/><path d="M482 365h162v69H482z" fill="none"/><text font-weight="bold" text-decoration="blink" font-family="微软雅黑" text-anchor="middle" font-size="13" x="71" y="13.325" transform="translate(492 371.875)">AbstractProductB</text></g><g><path d="M621 484.5q0-4 4-4h95q4 0 4 4V568q0 4-4 4h-95q-4 0-4-4z" stroke="#323232" stroke-width="2" fill="#fff"/><path d="M621 510.5h103m-103 30.75h103" stroke="#323232" stroke-width="2" fill="none"/><path d="M621 480.5h103V572H621z" fill="none"/><text font-weight="bold" text-decoration="blink" font-family="微软雅黑" text-anchor="middle" font-size="13" x="41.5" y="13.325" transform="translate(631 487.375)">ProductB2</text></g><g><path d="M471.5 483v-24.5H563v-9.264" stroke="#323232" stroke-width="2" stroke-dasharray="10.0 4.0" fill="none" marker-end="url(#c)"/></g><g><path d="M672.5 480.5v-23.25H563v-8.014" stroke="#323232" stroke-width="2" stroke-dasharray="10.0 4.0" fill="none" marker-end="url(#d)"/></g><g><path d="M105 236q0-4 4-4h155q4 0 4 4v119q0 4-4 4H109q-4 0-4-4z" stroke="#323232" stroke-width="2" fill="#fff"/><path d="M105 262h163m-163 43h163" stroke="#323232" stroke-width="2" fill="none"/><path d="M105 232h163v127H105z" fill="none"/><text font-weight="bold" text-decoration="blink" font-family="微软雅黑" text-anchor="middle" font-size="13" x="71.5" y="13.325" transform="translate(115 238.875)">Factory</text><g font-weight="bold" font-family="微软雅黑" text-anchor="middle" font-size="13"><text text-decoration="blink" x="71.5" y="13.325" transform="translate(115 309.5)">+createProductA()</text><text text-decoration="blink" x="71.5" y="29.575" transform="translate(115 309.5)">+createProductB()</text></g></g><g><path d="M268 295.5h109V156h109" stroke="#323232" stroke-width="2" stroke-dasharray="10.0 4.0" fill="none" marker-end="url(#e)"/></g><g><path d="M268 295.5h107v104h107" stroke="#323232" stroke-width="2" stroke-dasharray="10.0 4.0" fill="none" marker-end="url(#f)"/></g></svg>