<svg xmlns="http://www.w3.org/2000/svg" viewBox="106 117 906 722.5" width="906" height="722.5"><defs><marker id="a" markerUnits="userSpaceOnUse" orient="auto" markerWidth="16.236" markerHeight="10.551" viewBox="-1 -1.376 16.236 10.551" refX="-1" refY="3.899"><path d="M12 3.899l-12 3.9V0z" stroke="#323232" stroke-width="2" fill="#fff"/></marker><marker id="b" markerUnits="userSpaceOnUse" orient="auto" markerWidth="16.236" markerHeight="10.551" viewBox="-1 -1.376 16.236 10.551" refX="-1" refY="3.899"><path d="M12 3.899l-12 3.9V0z" stroke="#323232" stroke-width="2" fill="#fff"/></marker><marker id="c" markerUnits="userSpaceOnUse" orient="auto" markerWidth="16.236" markerHeight="10.551" viewBox="-1 -1.376 16.236 10.551" refX="-1" refY="3.899"><path d="M12 3.899l-12 3.9V0z" stroke="#323232" stroke-width="2" fill="#fff"/></marker><marker id="d" markerUnits="userSpaceOnUse" orient="auto" markerWidth="16.236" markerHeight="10.551" viewBox="-1 -1.376 16.236 10.551" refX="-1" refY="3.899"><path d="M12 3.899l-12 3.9V0z" stroke="#323232" stroke-width="2" fill="#fff"/></marker><marker id="e" markerUnits="userSpaceOnUse" orient="auto" markerWidth="16.236" markerHeight="10.551" viewBox="-1 -1.376 16.236 10.551" refX="-1" refY="3.899"><path d="M12 3.899l-12 3.9V0z" stroke="#323232" stroke-width="2" fill="#fff"/></marker><marker id="f" markerUnits="userSpaceOnUse" orient="auto" markerWidth="16.236" markerHeight="10.551" viewBox="-1 -1.376 16.236 10.551" refX="-1" refY="3.899"><path d="M12 3.899l-12 3.9V0z" stroke="#323232" stroke-width="2" fill="#fff"/></marker><marker id="g" markerUnits="userSpaceOnUse" orient="auto" markerWidth="14.289" markerHeight="19.055" viewBox="-0.588 -0.809 14.289 19.055" refX="12" refY="8.719"><path d="M0 0l12 8.719-12 8.718" stroke="#323232" stroke-width="2" fill="none"/></marker><marker id="h" markerUnits="userSpaceOnUse" orient="auto" markerWidth="14.289" markerHeight="19.055" viewBox="-0.588 -0.809 14.289 19.055" refX="12" refY="8.719"><path d="M0 0l12 8.719-12 8.718" stroke="#323232" stroke-width="2" fill="none"/></marker><marker id="i" markerUnits="userSpaceOnUse" orient="auto" markerWidth="14.289" markerHeight="19.055" viewBox="-0.588 -0.809 14.289 19.055" refX="12" refY="8.719"><path d="M0 0l12 8.719-12 8.718" stroke="#323232" stroke-width="2" fill="none"/></marker><marker id="j" markerUnits="userSpaceOnUse" orient="auto" markerWidth="14.289" markerHeight="19.055" viewBox="-0.588 -0.809 14.289 19.055" refX="12" refY="8.719"><path d="M0 0l12 8.719-12 8.718" stroke="#323232" stroke-width="2" fill="none"/></marker></defs><path d="M106 117h906v722.5H106V117z" fill="#fff"/><path d="M126 318q0-4 4-4h103q4 0 4 4v75q0 4-4 4H130q-4 0-4-4z" stroke="#323232" stroke-width="2" fill="#fff"/><path d="M126 344h111m-111 26.5h111" stroke="#323232" stroke-width="2" fill="none"/><path d="M126 314h111v83H126z" fill="none"/><text font-weight="bold" text-decoration="blink" font-family="微软雅黑" text-anchor="middle" font-size="13" x="45.5" y="13.325" transform="translate(136 320.875)">ProductA1</text><path d="M198 154q0-4 4-4h139q4 0 4 4v71q0 4-4 4H202q-4 0-4-4z" stroke="#323232" stroke-width="2" fill="#fff"/><path d="M198 180h147" stroke="#323232" stroke-width="2" fill="none"/><path d="M198 150h147v79H198z" fill="none"/><text font-weight="bold" text-decoration="blink" font-family="微软雅黑" text-anchor="middle" font-size="13" x="63.5" y="13.325" transform="translate(208 156.875)">AbstractProductA</text><path d="M726 141q0-4 4-4h137q4 0 4 4v62q0 4-4 4H730q-4 0-4-4z" stroke="#323232" stroke-width="2" fill="#fff"/><path d="M726 167h145" stroke="#323232" stroke-width="2" fill="none"/><path d="M726 137h145v70H726z" fill="none"/><text font-weight="bold" text-decoration="blink" font-family="微软雅黑" text-anchor="middle" font-size="13" x="62.5" y="13.325" transform="translate(736 143.875)">AbstractFactory</text><path d="M584 318q0-4 4-4h171q4 0 4 4v115q0 4-4 4H588q-4 0-4-4z" stroke="#323232" stroke-width="2" fill="#fff"/><path d="M584 344h179m-179 46.5h179" stroke="#323232" stroke-width="2" fill="none"/><path d="M584 314h179v123H584z" fill="none"/><text font-weight="bold" text-decoration="blink" font-family="微软雅黑" text-anchor="middle" font-size="13" x="79.5" y="13.325" transform="translate(594 320.875)">ConcreteFactory1</text><g font-weight="bold" font-family="微软雅黑" text-anchor="middle" font-size="13"><text text-decoration="blink" x="79.5" y="13.325" transform="translate(594 397.5)">+createProductA()</text><text text-decoration="blink" x="79.5" y="29.575" transform="translate(594 397.5)">+createProductB()</text></g><g><path d="M294 318q0-4 4-4h98q4 0 4 4v76q0 4-4 4h-98q-4 0-4-4z" stroke="#323232" stroke-width="2" fill="#fff"/><path d="M294 344h106m-106 27h106" stroke="#323232" stroke-width="2" fill="none"/><path d="M294 314h106v84H294z" fill="none"/><text font-weight="bold" text-decoration="blink" font-family="微软雅黑" text-anchor="middle" font-size="13" x="43" y="13.325" transform="translate(304 320.875)">ProductA2</text></g><g><path d="M831 314q0-4 4-4h153q4 0 4 4v115q0 4-4 4H835q-4 0-4-4z" stroke="#323232" stroke-width="2" fill="#fff"/><path d="M831 340h161m-161 46.5h161" stroke="#323232" stroke-width="2" fill="none"/><path d="M831 310h161v123H831z" fill="none"/><text font-weight="bold" text-decoration="blink" font-family="微软雅黑" text-anchor="middle" font-size="13" x="70.5" y="13.325" transform="translate(841 316.875)">ConcreteFactory2</text><g font-weight="bold" font-family="微软雅黑" text-anchor="middle" font-size="13"><text text-decoration="blink" x="70.5" y="13.325" transform="translate(841 393.5)">+createProductA()</text><text text-decoration="blink" x="70.5" y="29.575" transform="translate(841 393.5)">+createProductB()</text></g></g><g><path d="M369 677.5q0-4 4-4h109q4 0 4 4v79q0 4-4 4H373q-4 0-4-4z" stroke="#323232" stroke-width="2" fill="#fff"/><path d="M369 703.5h117M369 732h117" stroke="#323232" stroke-width="2" fill="none"/><path d="M369 673.5h117v87H369z" fill="none"/><text font-weight="bold" text-decoration="blink" font-family="微软雅黑" text-anchor="middle" font-size="13" x="48.5" y="13.325" transform="translate(379 680.375)">ProductB2</text></g><g><path d="M175 676q0-4 4-4h118q4 0 4 4v82q0 4-4 4H179q-4 0-4-4z" stroke="#323232" stroke-width="2" fill="#fff"/><path d="M175 702h126m-126 30h126" stroke="#323232" stroke-width="2" fill="none"/><path d="M175 672h126v90H175z" fill="none"/><text font-weight="bold" text-decoration="blink" font-family="微软雅黑" text-anchor="middle" font-size="13" x="53" y="13.325" transform="translate(185 678.875)">ProductB1</text></g><g><path d="M250 534q0-4 4-4h154q4 0 4 4v74q0 4-4 4H254q-4 0-4-4z" stroke="#323232" stroke-width="2" fill="#fff"/><path d="M250 560h162" stroke="#323232" stroke-width="2" fill="none"/><path d="M250 530h162v82H250z" fill="none"/><text font-weight="bold" text-decoration="blink" font-family="微软雅黑" text-anchor="middle" font-size="13" x="71" y="13.325" transform="translate(260 536.875)">AbstractProductB</text></g><g><path d="M181.5 314v-42.5h90v-27.264" stroke="#323232" stroke-width="2" stroke-dasharray="10.0 4.0" fill="none" marker-end="url(#a)"/></g><g><path d="M347 314v-42.5h-75.5v-27.264" stroke="#323232" stroke-width="2" stroke-dasharray="10.0 4.0" fill="none" marker-end="url(#b)"/></g><g><path d="M673.5 314v-53.5h125v-38.264" stroke="#323232" stroke-width="2" stroke-dasharray="10.0 4.0" fill="none" marker-end="url(#c)"/></g><g><path d="M911.5 310v-51.5h-113v-36.264" stroke="#323232" stroke-width="2" stroke-dasharray="10.0 4.0" fill="none" marker-end="url(#d)"/></g><g><path d="M238 672v-30h93v-14.764" stroke="#323232" stroke-width="2" stroke-dasharray="10.0 4.0" fill="none" marker-end="url(#e)"/></g><g><path d="M427.5 673.5v-30.75H331v-15.514" stroke="#323232" stroke-width="2" stroke-dasharray="10.0 4.0" fill="none" marker-end="url(#f)"/></g><g><path d="M673.5 437v30h-492v-70" stroke="#323232" stroke-width="2" stroke-dasharray="10.0 4.0" fill="none" marker-end="url(#g)"/></g><g><path d="M673.5 437v355H238v-30" stroke="#323232" stroke-width="2" stroke-dasharray="10.0 4.0" fill="none" marker-end="url(#h)"/></g><g><path d="M911.5 433v52H347v-87" stroke="#323232" stroke-width="2" stroke-dasharray="10.0 4.0" fill="none" marker-end="url(#i)"/></g><g><path d="M911.5 433v386.5h-484v-59" stroke="#323232" stroke-width="2" stroke-dasharray="10.0 4.0" fill="none" marker-end="url(#j)"/></g></svg>