<svg xmlns="http://www.w3.org/2000/svg" viewBox="46 66.75 904 470.25" width="904" height="470.25"><defs><marker id="a" markerUnits="userSpaceOnUse" orient="auto" markerWidth="16.236" markerHeight="10.551" viewBox="-1 -1.376 16.236 10.551" refX="-1" refY="3.899"><path d="M12 3.899l-12 3.9V0z" stroke="#323232" stroke-width="2" fill="#323232"/></marker><marker id="b" markerUnits="userSpaceOnUse" orient="auto" markerWidth="16.236" markerHeight="10.551" viewBox="-1 -1.376 16.236 10.551" refX="-1" refY="3.899"><path d="M12 3.899l-12 3.9V0z" stroke="#323232" stroke-width="2" fill="#fff"/></marker><marker id="c" markerUnits="userSpaceOnUse" orient="auto" markerWidth="14.289" markerHeight="19.055" viewBox="-0.588 -0.809 14.289 19.055" refX="12" refY="8.719"><path d="M0 0l12 8.719-12 8.718" stroke="#323232" stroke-width="2" fill="none"/></marker><marker id="d" markerUnits="userSpaceOnUse" orient="auto" markerWidth="14.289" markerHeight="19.055" viewBox="-0.588 -0.809 14.289 19.055" refX="12" refY="8.719"><path d="M0 0l12 8.719-12 8.718" stroke="#323232" stroke-width="2" fill="none"/></marker><marker id="e" markerUnits="userSpaceOnUse" orient="auto" markerWidth="14.289" markerHeight="19.055" viewBox="-0.588 -0.809 14.289 19.055" refX="12" refY="8.719"><path d="M0 0l12 8.719-12 8.718" stroke="#323232" stroke-width="2" fill="none"/></marker></defs><path d="M46 66.75h904V537H46V66.75z" fill="#fff"/><path d="M66 308q0-4 4-4h210q4 0 4 4v175q0 4-4 4H70q-4 0-4-4z" stroke="#323232" stroke-width="2" fill="#fff"/><path d="M66 334h218M66 410.5h218" stroke="#323232" stroke-width="2" fill="none"/><path d="M66 304h218v183H66z" fill="none"/><text font-weight="bold" text-decoration="blink" font-family="微软雅黑" text-anchor="middle" font-size="13" x="99" y="13.325" transform="translate(76 310.875)">Proxy</text><text font-weight="bold" text-decoration="blink" font-family="微软雅黑" text-anchor="middle" font-size="13" x="99" y="13.325" transform="translate(76 364.125)">-pursuer : Pursuer</text><g font-weight="bold" font-family="微软雅黑" text-anchor="middle" font-size="13"><text text-decoration="blink" x="99" y="13.325" transform="translate(76 424.375)">+giveFlowers() : void</text><text text-decoration="blink" x="99" y="29.575" transform="translate(76 424.375)">+giveTickets() : void</text><text text-decoration="blink" x="99" y="45.825" transform="translate(76 424.375)">+drinkMoreWater() : void</text></g><path d="M163 92q0-4 4-4h210q4 0 4 4v108q0 4-4 4H167q-4 0-4-4z" stroke="#323232" stroke-width="2" fill="#fff"/><path d="M163 118h218" stroke="#323232" stroke-width="2" fill="none"/><path d="M163 88h218v116H163z" fill="none"/><g font-weight="bold" font-family="微软雅黑" text-anchor="middle" font-size="13"><text text-decoration="blink" x="99" y="13.325" transform="translate(173 86.75)">&lt;&lt;interface&gt;&gt;</text><text text-decoration="blink" x="99" y="29.575" transform="translate(173 86.75)">Policy</text></g><g font-weight="bold" font-family="微软雅黑" text-anchor="middle" font-size="13"><text text-decoration="blink" x="99" y="13.325" transform="translate(173 136.625)">+giveFlowers() : void</text><text text-decoration="blink" x="99" y="29.575" transform="translate(173 136.625)">+giveTickets() : void</text><text text-decoration="blink" x="99" y="45.825" transform="translate(173 136.625)">+drinkMoreWater() : void</text></g><g><path d="M416 308q0-4 4-4h213q4 0 4 4v175q0 4-4 4H420q-4 0-4-4z" stroke="#323232" stroke-width="2" fill="#fff"/><path d="M416 334h221m-221 76.5h221" stroke="#323232" stroke-width="2" fill="none"/><path d="M416 304h221v183H416z" fill="none"/><text font-weight="bold" text-decoration="blink" font-family="微软雅黑" text-anchor="middle" font-size="13" x="100.5" y="13.325" transform="translate(426 310.875)">Pursuer</text><text font-weight="bold" text-decoration="blink" font-family="微软雅黑" text-anchor="middle" font-size="13" x="100.5" y="13.325" transform="translate(426 364.125)">-girl : SchoolGirl</text><g font-weight="bold" font-family="微软雅黑" text-anchor="middle" font-size="13"><text text-decoration="blink" x="100.5" y="13.325" transform="translate(426 424.375)">+giveFlowers() : void</text><text text-decoration="blink" x="100.5" y="29.575" transform="translate(426 424.375)">+giveTickets() : void</text><text text-decoration="blink" x="100.5" y="45.825" transform="translate(426 424.375)">+drinkMoreWater() : void</text></g></g><g><path d="M175 304v-50h97v-34.764" stroke="#323232" stroke-width="2" stroke-dasharray="10.0 4.0" fill="none" marker-end="url(#a)"/></g><g><path d="M526.5 304v-50H272v-34.764" stroke="#323232" stroke-width="2" stroke-dasharray="10.0 4.0" fill="none" marker-end="url(#b)"/></g><g><path d="M764 347.5q0-4 4-4h158q4 0 4 4v96q0 4-4 4H768q-4 0-4-4z" stroke="#323232" stroke-width="2" fill="#fff"/><path d="M764 373.5h166m-166 36h166" stroke="#323232" stroke-width="2" fill="none"/><path d="M764 343.5h166v104H764z" fill="none"/><text font-weight="bold" text-decoration="blink" font-family="微软雅黑" text-anchor="middle" font-size="13" x="73" y="13.325" transform="translate(774 350.375)">SchoolGirl</text><text font-weight="bold" text-decoration="blink" font-family="微软雅黑" text-anchor="middle" font-size="13" x="73" y="13.325" transform="translate(774 383.375)">-name : String</text></g><g><path d="M284 395.5h132" stroke="#323232" stroke-width="2" fill="none" marker-end="url(#c)"/></g><g><path d="M637 395.5h127" stroke="#323232" stroke-width="2" fill="none" marker-end="url(#d)"/></g><g><path d="M175 487v30h672v-69.5" stroke="#323232" stroke-width="2" stroke-dasharray="10.0 4.0" fill="none" marker-end="url(#e)"/></g></svg>