<svg xmlns="http://www.w3.org/2000/svg" viewBox="-71.5 136 743.5 975" width="743.5" height="975"><path d="M-71.5 136H672v975H-71.5V136z" fill="none"/><path d="M305.5 950h96v141h-96zM533 649.5h119V797H533zM136 642h275v236H136zM128 225h514v325H128z" stroke="#323232" stroke-width="2" fill="#fff"/><path d="M231 189c0-38.667 61-38.667 61 0s-61 38.667-61 0z" stroke="#323232" stroke-width="2" fill="#cf9"/><text font-size="22" x="19.5" y="22.55" font-family="微软雅黑" font-weight="bold" text-anchor="middle" transform="translate(241 175.25)">4</text><path d="M329 185c0-38.667 61-38.667 61 0s-61 38.667-61 0z" stroke="#323232" stroke-width="2" fill="#cf9"/><text font-size="22" x="19.5" y="22.55" font-family="微软雅黑" font-weight="bold" text-anchor="middle" transform="translate(339 171.25)">3</text><path d="M441 185c0-38.667 61-38.667 61 0s-61 38.667-61 0z" stroke="#323232" stroke-width="2" fill="#cf9"/><text font-size="22" x="19.5" y="22.55" font-family="微软雅黑" font-weight="bold" text-anchor="middle" transform="translate(451 171.25)">5</text><path d="M558 185c0-38.667 61-38.667 61 0s-61 38.667-61 0z" stroke="#323232" stroke-width="2" fill="#cf9"/><text font-size="22" x="19.5" y="22.55" font-family="微软雅黑" font-weight="bold" text-anchor="middle" transform="translate(568 171.25)">2</text><path d="M226 273c0-35.333 61-35.333 61 0s-61 35.333-61 0z" stroke="#323232" stroke-width="2" fill="#fff"/><path d="M329 270.5c0-38.667 61-38.667 61 0s-61 38.667-61 0z" stroke="#323232" stroke-width="2" fill="#cf9"/><text font-size="22" x="19.5" y="22.55" font-family="微软雅黑" font-weight="bold" text-anchor="middle" transform="translate(339 256.75)">3</text><path d="M445 273c0-38.667 61-38.667 61 0s-61 38.667-61 0z" stroke="#323232" stroke-width="2" fill="#cf9"/><text font-size="22" x="19.5" y="22.55" font-family="微软雅黑" font-weight="bold" text-anchor="middle" transform="translate(455 259.25)">5</text><path d="M562 273c0-38.667 61-38.667 61 0s-61 38.667-61 0z" stroke="#323232" stroke-width="2" fill="#0c0"/><text font-size="22" x="19.5" y="22.55" font-family="微软雅黑" font-weight="bold" text-anchor="middle" transform="translate(572 259.25)">2</text><path d="M562 353.5c0-35.333 61-35.333 61 0s-61 35.333-61 0z" stroke="#323232" stroke-width="2" fill="#fff"/><path d="M329 348.5c0-38.667 61-38.667 61 0s-61 38.667-61 0z" stroke="#323232" stroke-width="2" fill="#0c0"/><text font-size="22" x="19.5" y="22.55" font-family="微软雅黑" font-weight="bold" text-anchor="middle" transform="translate(339 334.75)">3</text><path d="M445 351c0-38.667 61-38.667 61 0s-61 38.667-61 0z" stroke="#323232" stroke-width="2" fill="#cf9"/><text font-size="22" x="19.5" y="22.55" font-family="微软雅黑" font-weight="bold" text-anchor="middle" transform="translate(455 337.25)">5</text><path d="M226 351c0-38.667 61-38.667 61 0s-61 38.667-61 0z" stroke="#323232" stroke-width="2" fill="#cf9"/><text font-size="22" x="19.5" y="22.55" font-family="微软雅黑" font-weight="bold" text-anchor="middle" transform="translate(236 337.25)">2</text><path d="M445 430.5c0-35.333 61-35.333 61 0s-61 35.333-61 0z" stroke="#323232" stroke-width="2" fill="#fff"/><path d="M329 425.5c0-38.667 61-38.667 61 0s-61 38.667-61 0z" stroke="#323232" stroke-width="2" fill="#cf9"/><text font-size="22" x="19.5" y="22.55" font-family="微软雅黑" font-weight="bold" text-anchor="middle" transform="translate(339 411.75)">3</text><path d="M562 430.5c0-38.667 61-38.667 61 0s-61 38.667-61 0z" stroke="#323232" stroke-width="2" fill="#cf9"/><text font-size="22" x="19.5" y="22.55" font-family="微软雅黑" font-weight="bold" text-anchor="middle" transform="translate(572 416.75)">5</text><path d="M226 428c0-38.667 61-38.667 61 0s-61 38.667-61 0z" stroke="#323232" stroke-width="2" fill="#cf9"/><text font-size="22" x="19.5" y="22.55" font-family="微软雅黑" font-weight="bold" text-anchor="middle" transform="translate(236 414.25)">2</text><path d="M445 503c0-38.667 61-38.667 61 0s-61 38.667-61 0z" stroke="#323232" stroke-width="2" fill="#c00"/><text font-size="22" x="19.5" y="22.55" font-family="微软雅黑" font-weight="bold" text-anchor="middle" transform="translate(455 489.25)">4</text><path d="M329 500.5c0-38.667 61-38.667 61 0s-61 38.667-61 0z" stroke="#323232" stroke-width="2" fill="#cf9"/><text font-size="22" x="19.5" y="22.55" font-family="微软雅黑" font-weight="bold" text-anchor="middle" transform="translate(339 486.75)">3</text><path d="M562 507c0-38.667 61-38.667 61 0s-61 38.667-61 0z" stroke="#323232" stroke-width="2" fill="#cf9"/><text font-size="22" x="19.5" y="22.55" font-family="微软雅黑" font-weight="bold" text-anchor="middle" transform="translate(572 493.25)">5</text><path d="M226 503c0-38.667 61-38.667 61 0s-61 38.667-61 0z" stroke="#323232" stroke-width="2" fill="#cf9"/><text font-size="22" x="19.5" y="22.55" font-family="微软雅黑" font-weight="bold" text-anchor="middle" transform="translate(236 489.25)">2</text><path d="M139 250h50v46h-50z" stroke="#323232" stroke-width="2" fill="#fcc"/><text font-size="21" x="14" y="21.525" font-family="微软雅黑" font-weight="bold" text-anchor="middle" transform="translate(149 259.875)">4</text><path d="M139 322h50v46h-50z" stroke="#323232" stroke-width="2" fill="#fcc"/><text font-size="21" x="14" y="21.525" font-family="微软雅黑" font-weight="bold" text-anchor="middle" transform="translate(149 331.875)">4</text><path d="M139 405h50v46h-50z" stroke="#323232" stroke-width="2" fill="#fcc"/><text font-size="21" x="14" y="21.525" font-family="微软雅黑" font-weight="bold" text-anchor="middle" transform="translate(149 414.875)">4</text><g fill="none"><path d="M113 244q-9 0-9 9v128q0 9-13 9 13 0 13 9v128q0 9 9 9" stroke="#323232" stroke-width="2"/><path d="M9 244h104v292H9z"/></g><g><path d="M82 277.5v225H40v-225z" fill="none"/><text font-size="19" x="111.5" y="19.475" font-family="微软雅黑" font-weight="bold" text-anchor="middle" transform="rotate(90 -102.313 175.188)">第1次循环</text></g><g><path d="M330 679.5c0-38.667 61-38.667 61 0s-61 38.667-61 0z" stroke="#323232" stroke-width="2" fill="#cf9"/><text font-size="22" x="19.5" y="22.55" font-family="微软雅黑" font-weight="bold" text-anchor="middle" transform="translate(340 665.75)">3</text></g><g><path d="M147 734h50v46h-50z" stroke="#323232" stroke-width="2" fill="#fcc"/><text font-size="21" x="14" y="21.525" font-family="微软雅黑" font-weight="bold" text-anchor="middle" transform="translate(157 743.875)">2</text></g><g><path d="M227 756c0-35.333 61-35.333 61 0s-61 35.333-61 0z" stroke="#323232" stroke-width="2" fill="#fff"/></g><g><path d="M330 756c0-38.667 61-38.667 61 0s-61 38.667-61 0z" stroke="#323232" stroke-width="2" fill="#cf9"/><text font-size="22" x="19.5" y="22.55" font-family="微软雅黑" font-weight="bold" text-anchor="middle" transform="translate(340 742.25)">3</text></g><g><path d="M227 679.5c0-38.667 61-38.667 61 0s-61 38.667-61 0z" stroke="#323232" stroke-width="2" fill="#cf9"/><text font-size="22" x="19.5" y="22.55" font-family="微软雅黑" font-weight="bold" text-anchor="middle" transform="translate(237 665.75)">2</text></g><g><path d="M559 686c0-38.667 61-38.667 61 0s-61 38.667-61 0z" stroke="#323232" stroke-width="2" fill="#cf9"/><text font-size="22" x="19.5" y="22.55" font-family="微软雅黑" font-weight="bold" text-anchor="middle" transform="translate(569 672.25)">5</text></g><g><path d="M562 763c0-38.667 61-38.667 61 0s-61 38.667-61 0z" stroke="#323232" stroke-width="2" fill="#c00"/><text font-size="22" x="19.5" y="22.55" font-family="微软雅黑" font-weight="bold" text-anchor="middle" transform="translate(572 749.25)">5</text></g><g fill="none"><path d="M113 643q-2.6 0-2.6 9v53q0 9-19.4 9 19.4 0 19.4 9v53q0 9 2.6 9" stroke="#323232" stroke-width="2"/><path d="M87 643h26v142H87z"/></g><g><path d="M85.25 654v138.5h-46.5V654z" fill="none"/><text font-size="19" x="68.25" y="19.475" font-family="微软雅黑" font-weight="bold" text-anchor="middle" transform="rotate(90 -290.063 363.938)">第2次循环</text></g><g><path d="M295.161 553.664h11.308v59.703h10.976l-16.63 16.63-16.63-16.63h10.976v-59.703z" stroke="#323232" stroke-width="2" fill="#fff"/></g><g><path d="M587.572 560.363h9.856v57.78h9.567L592.5 632.636l-14.495-14.495h9.567v-57.779z" stroke="#323232" stroke-width="2" fill="#fff"/></g><g><path d="M150 583h110v27H150z" fill="none"/><text font-size="30" x="54" y="30.75" font-family="微软雅黑" font-weight="bold" text-anchor="middle" transform="translate(150 577.75)">递归</text></g><g><path d="M227 832.5c0-38.667 61-38.667 61 0s-61 38.667-61 0z" stroke="#323232" stroke-width="2" fill="#c00"/><text font-size="22" x="19.5" y="22.55" font-family="微软雅黑" font-weight="bold" text-anchor="middle" transform="translate(237 818.75)">2</text></g><g><path d="M330 836c0-38.667 61-38.667 61 0s-61 38.667-61 0z" stroke="#323232" stroke-width="2" fill="#cf9"/><text font-size="22" x="19.5" y="22.55" font-family="微软雅黑" font-weight="bold" text-anchor="middle" transform="translate(340 822.25)">3</text></g><g><path d="M323 982c0-38.667 61-38.667 61 0s-61 38.667-61 0z" stroke="#323232" stroke-width="2" fill="#cf9"/><text font-size="22" x="19.5" y="22.55" font-family="微软雅黑" font-weight="bold" text-anchor="middle" transform="translate(333 968.25)">3</text></g><g><path d="M323 1059c0-38.667 61-38.667 61 0s-61 38.667-61 0z" stroke="#323232" stroke-width="2" fill="#c00"/><text font-size="22" x="19.5" y="22.55" font-family="微软雅黑" font-weight="bold" text-anchor="middle" transform="translate(333 1045.25)">3</text></g><g><path d="M350.9 884h10.2v46h9.9l-15 15-15-15h9.9v-46z" stroke="#323232" stroke-width="2" fill="#fff"/></g><g fill="none"><path d="M113 948q-9 0-9 9v52q0 9-13 9 13 0 13 9v52q0 9 9 9" stroke="#323232" stroke-width="2"/><path d="M13 948h100v140H13z"/></g><g><path d="M85.25 945.75v138.5h-46.5v-138.5z" fill="none"/><text font-size="19" x="68.25" y="19.475" font-family="微软雅黑" font-weight="bold" text-anchor="middle" transform="rotate(90 -435.938 509.813)">第3次循环</text></g></svg>