<svg xmlns="http://www.w3.org/2000/svg" viewBox="59 60 553 476" width="553" height="476"><defs><marker id="a" markerUnits="userSpaceOnUse" orient="auto" markerWidth="16.236" markerHeight="10.551" viewBox="-1 -1.376 16.236 10.551" refX="-1" refY="3.899"><path d="M12 3.899l-12 3.9V0z" stroke="#323232" stroke-width="2" fill="#323232"/></marker><marker id="b" markerUnits="userSpaceOnUse" orient="auto" markerWidth="16.236" markerHeight="10.551" viewBox="-1 -1.376 16.236 10.551" refX="-1" refY="3.899"><path d="M12 3.899l-12 3.9V0z" stroke="#323232" stroke-width="2" fill="#fff"/></marker><marker id="c" markerUnits="userSpaceOnUse" orient="auto" markerWidth="16.236" markerHeight="10.551" viewBox="-1 -1.376 16.236 10.551" refX="-1" refY="3.899"><path d="M12 3.899l-12 3.9V0z" stroke="#323232" stroke-width="2" fill="#fff"/></marker><marker id="d" markerUnits="userSpaceOnUse" orient="auto" markerWidth="16.236" markerHeight="10.551" viewBox="-1 -1.376 16.236 10.551" refX="-1" refY="3.899"><path d="M12 3.899l-12 3.9V0z" stroke="#323232" stroke-width="2" fill="#fff"/></marker><marker id="e" markerUnits="userSpaceOnUse" orient="auto" markerWidth="20.61" markerHeight="10.888" viewBox="-2.305 -1.591 20.61 10.888" refX="16" refY="3.853"><path d="M0 3.853L8 0l8 3.853-8 3.852z" stroke="#323232" stroke-width="2" fill="#fff"/></marker><marker id="f" markerUnits="userSpaceOnUse" orient="auto" markerWidth="14.289" markerHeight="19.055" viewBox="-0.588 -0.809 14.289 19.055" refX="12" refY="8.719"><path d="M0 0l12 8.719-12 8.718" stroke="#323232" stroke-width="2" fill="none"/></marker></defs><path d="M59 60h553v476H59V60z" fill="#fff"/><path d="M79 224q0-4 4-4h144q4 0 4 4v97q0 4-4 4H83q-4 0-4-4z" stroke="#323232" stroke-width="2" fill="#fff"/><path d="M79 250h152M79 287.5h152" stroke="#323232" stroke-width="2" fill="none"/><path d="M79 220h152v105H79z" fill="none"/><text font-weight="bold" text-decoration="blink" font-family="微软雅黑" text-anchor="middle" font-size="13" x="66" y="13.325" transform="translate(89 226.875)">Person</text><text font-weight="bold" text-decoration="blink" font-family="微软雅黑" text-anchor="middle" font-size="13" x="66" y="13.325" transform="translate(89 260.625)">-name : String</text><text font-weight="bold" text-decoration="blink" font-family="微软雅黑" text-anchor="middle" font-size="13" x="66" y="13.325" transform="translate(89 298.125)">+show() : void</text><path d="M148 84q0-4 4-4h189q4 0 4 4v66q0 4-4 4H152q-4 0-4-4z" stroke="#323232" stroke-width="2" fill="#fff"/><path d="M148 110h197" stroke="#323232" stroke-width="2" fill="none"/><path d="M148 80h197v74H148z" fill="none"/><text font-weight="bold" text-decoration="blink" font-family="微软雅黑" text-anchor="middle" font-size="13" x="88.5" y="13.325" transform="translate(158 86.875)">Finery</text><text font-weight="bold" text-decoration="blink" font-family="微软雅黑" text-anchor="middle" font-size="13" x="88.5" y="13.325" transform="translate(158 123.875)">#show() : void</text><g><path d="M309 224q0-4 4-4h173q4 0 4 4v121q0 4-4 4H313q-4 0-4-4z" stroke="#323232" stroke-width="2" fill="#fff"/><path d="M309 250h181m-181 49.5h181" stroke="#323232" stroke-width="2" fill="none"/><path d="M309 220h181v129H309z" fill="none"/><text font-weight="bold" text-decoration="blink" font-family="微软雅黑" text-anchor="middle" font-size="13" x="80.5" y="13.325" transform="translate(319 226.875)">Decorator</text><text font-weight="bold" text-decoration="blink" font-family="微软雅黑" text-anchor="middle" font-size="13" x="80.5" y="13.325" transform="translate(319 266.625)">-component : Finery</text><g font-weight="bold" font-family="微软雅黑" text-anchor="middle" font-size="13"><text text-decoration="blink" x="80.5" y="13.325" transform="translate(319 308)">+decorate() : void</text><text text-decoration="blink" x="80.5" y="29.575" transform="translate(319 308)">+show() : void</text></g></g><g><path d="M155 220v-33h91.5v-17.764" stroke="#323232" stroke-width="2" fill="none" marker-end="url(#a)"/></g><g><path d="M399.5 220v-33h-153v-17.764" stroke="#323232" stroke-width="2" fill="none" marker-end="url(#b)"/></g><g><path d="M201 409q0-4 4-4h127q4 0 4 4v103q0 4-4 4H205q-4 0-4-4z" stroke="#323232" stroke-width="2" fill="#fff"/><path d="M201 435h135m-135 41h135" stroke="#323232" stroke-width="2" fill="none"/><path d="M201 405h135v111H201z" fill="none"/><text font-weight="bold" text-decoration="blink" font-family="微软雅黑" text-anchor="middle" font-size="13" x="57.5" y="13.325" transform="translate(211 411.875)">Tshirt</text><text font-weight="bold" text-decoration="blink" font-family="微软雅黑" text-anchor="middle" font-size="13" x="57.5" y="13.325" transform="translate(211 487.875)">+show() : void</text></g><g><path d="M457 407q0-4 4-4h127q4 0 4 4v105q0 4-4 4H461q-4 0-4-4z" stroke="#323232" stroke-width="2" fill="#fff"/><path d="M457 433h135m-135 43h135" stroke="#323232" stroke-width="2" fill="none"/><path d="M457 403h135v113H457z" fill="none"/><text font-weight="bold" text-decoration="blink" font-family="微软雅黑" text-anchor="middle" font-size="13" x="57.5" y="13.325" transform="translate(467 409.875)">Pans</text><text font-weight="bold" text-decoration="blink" font-family="微软雅黑" text-anchor="middle" font-size="13" x="57.5" y="13.325" transform="translate(467 487.125)">+show() : void</text></g><g><path d="M268.5 405v-28h131v-12.764" stroke="#323232" stroke-width="2" fill="none" marker-end="url(#c)"/></g><g><path d="M524.5 403v-27h-125v-11.764" stroke="#323232" stroke-width="2" fill="none" marker-end="url(#d)"/></g><g><path d="M508.305 284.5H520V117H345" stroke="#323232" stroke-width="2" fill="none" marker-start="url(#e)" marker-end="url(#f)"/></g></svg>