<svg xmlns="http://www.w3.org/2000/svg" viewBox="160 88 469 374" width="469" height="374"><defs><marker id="a" markerUnits="userSpaceOnUse" orient="auto" markerWidth="16.236" markerHeight="10.551" viewBox="-1 -1.376 16.236 10.551" refX="-1" refY="3.899"><path d="M12 3.899l-12 3.9V0z" stroke="#323232" stroke-width="2" fill="#323232"/></marker><marker id="b" markerUnits="userSpaceOnUse" orient="auto" markerWidth="16.236" markerHeight="10.551" viewBox="-1 -1.376 16.236 10.551" refX="-1" refY="3.899"><path d="M12 3.899l-12 3.9V0z" stroke="#323232" stroke-width="2" fill="#fff"/></marker><marker id="c" markerUnits="userSpaceOnUse" orient="auto" markerWidth="20.61" markerHeight="10.888" viewBox="-2.305 -1.591 20.61 10.888" refX="16" refY="3.853"><path d="M0 3.853L8 0l8 3.853-8 3.852z" stroke="#323232" stroke-width="2" fill="#fff"/></marker><marker id="d" markerUnits="userSpaceOnUse" orient="auto" markerWidth="14.289" markerHeight="19.055" viewBox="-0.588 -0.809 14.289 19.055" refX="12" refY="8.719"><path d="M0 0l12 8.719-12 8.718" stroke="#323232" stroke-width="2" fill="none"/></marker></defs><path d="M160 88h469v374H160V88z" fill="#fff"/><path d="M304 142q0-4 4-4h166q4 0 4 4v108q0 4-4 4H308q-4 0-4-4z" stroke="#323232" stroke-width="2" fill="#fff"/><path d="M304 168h174m-174 43h174" stroke="#323232" stroke-width="2" fill="none"/><path d="M304 138h174v116H304z" fill="none"/><text font-weight="bold" text-decoration="blink" font-family="微软雅黑" text-anchor="middle" font-size="13" x="77" y="13.325" transform="translate(314 144.875)">Manager</text><text font-weight="bold" text-decoration="blink" font-family="微软雅黑" text-anchor="middle" font-size="13" x="77" y="13.325" transform="translate(314 181.375)">-superior : Manager</text><text font-weight="bold" text-decoration="blink" font-family="微软雅黑" text-anchor="middle" font-size="13" x="77" y="13.325" transform="translate(314 224.375)">+handle() : void</text><g><path d="M459 333q0-4 4-4h142q4 0 4 4v105q0 4-4 4H463q-4 0-4-4z" stroke="#323232" stroke-width="2" fill="#fff"/><path d="M459 359h150m-150 41.5h150" stroke="#323232" stroke-width="2" fill="none"/><path d="M459 329h150v113H459z" fill="none"/><text font-weight="bold" text-decoration="blink" font-family="微软雅黑" text-anchor="middle" font-size="13" x="65" y="13.325" transform="translate(469 335.875)">President</text><text font-weight="bold" text-decoration="blink" font-family="微软雅黑" text-anchor="middle" font-size="13" x="65" y="13.325" transform="translate(469 413.125)">+handle() : void</text></g><g><path d="M180 333q0-4 4-4h142q4 0 4 4v105q0 4-4 4H184q-4 0-4-4z" stroke="#323232" stroke-width="2" fill="#fff"/><path d="M180 359h150m-150 41.5h150" stroke="#323232" stroke-width="2" fill="none"/><path d="M180 329h150v113H180z" fill="none"/><text font-weight="bold" text-decoration="blink" font-family="微软雅黑" text-anchor="middle" font-size="13" x="65" y="13.325" transform="translate(190 335.875)">Minister</text><text font-weight="bold" text-decoration="blink" font-family="微软雅黑" text-anchor="middle" font-size="13" x="65" y="13.325" transform="translate(190 413.125)">+handle() : void</text></g><g><path d="M255 329v-37.5h136v-22.264" stroke="#323232" stroke-width="2" fill="none" marker-end="url(#a)"/></g><g><path d="M534 329v-37.5H391v-22.264" stroke="#323232" stroke-width="2" fill="none" marker-end="url(#b)"/></g><g><path d="M496.305 196H508v-88H391v30" stroke="#323232" stroke-width="2" fill="none" marker-start="url(#c)" marker-end="url(#d)"/></g></svg>