<svg xmlns="http://www.w3.org/2000/svg" viewBox="32.503 76.188 899.5 460.5" width="899.5" height="460.5"><defs><marker id="a" markerUnits="userSpaceOnUse" orient="auto" markerWidth="16.236" markerHeight="10.551" viewBox="-1 -1.376 16.236 10.551" refX="-1" refY="3.899"><path d="M12 3.899l-12 3.9V0z" stroke="#323232" stroke-width="2" fill="#323232"/></marker><marker id="b" markerUnits="userSpaceOnUse" orient="auto" markerWidth="16.236" markerHeight="10.551" viewBox="-1 -1.376 16.236 10.551" refX="-1" refY="3.899"><path d="M12 3.899l-12 3.9V0z" stroke="#323232" stroke-width="2" fill="#323232"/></marker><marker id="c" markerUnits="userSpaceOnUse" orient="auto" markerWidth="16.236" markerHeight="10.551" viewBox="-1 -1.376 16.236 10.551" refX="-1" refY="3.899"><path d="M12 3.899l-12 3.9V0z" stroke="#323232" stroke-width="2" fill="#323232"/></marker><marker id="d" markerUnits="userSpaceOnUse" orient="auto" markerWidth="16.236" markerHeight="10.551" viewBox="-1 -1.376 16.236 10.551" refX="-1" refY="3.899"><path d="M12 3.899l-12 3.9V0z" stroke="#323232" stroke-width="2" fill="#323232"/></marker><marker id="e" markerUnits="userSpaceOnUse" orient="auto" markerWidth="16.236" markerHeight="10.551" viewBox="-1 -1.376 16.236 10.551" refX="-1" refY="3.899"><path d="M12 3.899l-12 3.9V0z" stroke="#323232" stroke-width="2" fill="#323232"/></marker><marker id="f" markerUnits="userSpaceOnUse" orient="auto" markerWidth="16.236" markerHeight="10.551" viewBox="-1 -1.376 16.236 10.551" refX="-1" refY="3.899"><path d="M12 3.899l-12 3.9V0z" stroke="#323232" stroke-width="2" fill="#323232"/></marker><marker id="g" markerUnits="userSpaceOnUse" orient="auto" markerWidth="16.236" markerHeight="10.551" viewBox="-1 -1.376 16.236 10.551" refX="-1" refY="3.899"><path d="M12 3.899l-12 3.9V0z" stroke="#323232" stroke-width="2" fill="#323232"/></marker><marker id="h" markerUnits="userSpaceOnUse" orient="auto" markerWidth="16.236" markerHeight="10.551" viewBox="-1 -1.376 16.236 10.551" refX="-1" refY="3.899"><path d="M12 3.899l-12 3.9V0z" stroke="#323232" stroke-width="2" fill="#323232"/></marker><marker id="i" markerUnits="userSpaceOnUse" orient="auto" markerWidth="16.236" markerHeight="10.551" viewBox="-1 -1.376 16.236 10.551" refX="-1" refY="3.899"><path d="M12 3.899l-12 3.9V0z" stroke="#323232" stroke-width="2" fill="#323232"/></marker><marker id="j" markerUnits="userSpaceOnUse" orient="auto" markerWidth="16.236" markerHeight="10.551" viewBox="-1 -1.376 16.236 10.551" refX="-1" refY="3.899"><path d="M12 3.899l-12 3.9V0z" stroke="#323232" stroke-width="2" fill="#323232"/></marker></defs><path d="M32.503 76.188h899.5v460.5h-899.5v-460.5z" fill="none"/><path d="M416.753 124.688c0-38 117-38 117 0s-117 38-117 0z" stroke="#323232" stroke-width="2" fill="#fff"/><text text-decoration="blink" font-family="微软雅黑" text-anchor="middle" font-size="13" x="48.5" y="13.325" transform="translate(426.753 116.563)">NEW</text><path d="M678.003 460.938c0-36.667 123-36.667 123 0 0 36.666-123 36.666-123 0z" stroke="#323232" stroke-width="2" fill="#fff"/><text text-decoration="blink" font-family="微软雅黑" text-anchor="middle" font-size="13" x="51.5" y="13.325" transform="translate(688.003 452.813)">BLOCKED</text><path d="M52.503 295.188c0-38.667 125-38.667 125 0 0 38.666-125 38.666-125 0z" stroke="#323232" stroke-width="2" fill="#fff"/><text text-decoration="blink" font-family="微软雅黑" text-anchor="middle" font-size="13" x="52.5" y="13.325" transform="translate(62.503 287.063)">WAITING</text><path d="M777.003 287.688c0-40.667 135-40.667 135 0 0 40.666-135 40.666-135 0z" stroke="#323232" stroke-width="2" fill="#fff"/><text text-decoration="blink" font-family="微软雅黑" text-anchor="middle" font-size="13" x="57.5" y="13.325" transform="translate(787.003 279.563)">TIMED_WAITING</text><path d="M412.253 485.938c0-41 126-41 126 0s-126 41-126 0z" stroke="#323232" stroke-width="2" fill="#fff"/><text text-decoration="blink" font-family="微软雅黑" text-anchor="middle" font-size="13" x="53" y="13.325" transform="translate(422.253 477.813)">TERMINATED</text><path d="M475.253 153.188v32.5h0v17.263" stroke="#323232" stroke-width="2" fill="none" marker-end="url(#a)"/><path d="M167.003 265.188c70-46 153-44 204.445-8.632" stroke="#323232" stroke-width="2" fill="none" marker-end="url(#b)"/><path d="M388.003 317.188c-98 51-135 42-208.28 6.623" stroke="#323232" stroke-width="2" fill="none" marker-end="url(#c)"/><path d="M387.503 218.188h175.5v146h-175.5z" stroke="#323232" stroke-width="2" fill="#fff"/><path d="M427.628 284.188c0-17.334 95.25-17.334 95.25 0 0 17.333-95.25 17.333-95.25 0z" stroke="#323232" stroke-width="2" fill="#fff"/><text text-decoration="blink" font-family="微软雅黑" text-anchor="middle" font-size="13" x="37.625" y="13.325" transform="translate(437.628 276.063)">RUNNING</text><path d="M428.253 338.188c0-18.667 94-18.667 94 0 0 18.666-94 18.666-94 0z" stroke="#323232" stroke-width="2" fill="#fff"/><text text-decoration="blink" font-family="微软雅黑" text-anchor="middle" font-size="13" x="37" y="13.325" transform="translate(438.253 330.063)">READY</text><path d="M414.753 228.188h121v33h-121z" fill="none"/><text text-decoration="blink" font-family="微软雅黑" text-anchor="middle" font-size="13" x="60.5" y="13.325" transform="translate(414.753 236.563)">RUNNABLE</text><path d="M499.003 323.188v-12h0v-1" stroke="#323232" stroke-width="2" fill="none" marker-end="url(#d)"/><path d="M452.003 297.188v12h0v1" stroke="#323232" stroke-width="2" fill="none" marker-end="url(#e)"/><path d="M475.253 364.188v45.5h0v30.263" stroke="#323232" stroke-width="2" fill="none" marker-end="url(#f)"/><path d="M475.253 364.188c91.75 13 147.75 27 191.679 68.532" stroke="#323232" stroke-width="2" fill="none" marker-end="url(#g)"/><path d="M669.003 458.188c-86-14-130-28-176.32-75.134" stroke="#323232" stroke-width="2" fill="none" marker-end="url(#h)"/><path d="M562.003 267.188c88-31 143-34 207.105.34" stroke="#323232" stroke-width="2" fill="none" marker-end="url(#i)"/><g><path d="M778.003 306.188c-62 18-120 34-201.834 1.607" stroke="#323232" stroke-width="2" fill="none" marker-end="url(#j)"/></g><g><path d="M483.003 167.188h89v30h-89z" fill="none"/><text text-decoration="blink" font-family="微软雅黑" text-anchor="middle" font-size="13" x="44.5" y="13.325" transform="translate(483.003 174.063)">thread.start()</text></g><g><path d="M168.003 352.188h123v59h-123z" fill="none"/><g font-family="微软雅黑" text-anchor="middle" font-size="13"><text text-decoration="blink" x="61.5" y="13.325" transform="translate(168.003 357.313)">Object.wait()</text><text text-decoration="blink" x="61.5" y="29.575" transform="translate(168.003 357.313)">Object.join()</text><text text-decoration="blink" x="61.5" y="45.825" transform="translate(168.003 357.313)">LockSupport.park()</text></g></g><g><path d="M152.003 164.188h194v68h-194z" fill="none"/><g font-family="微软雅黑" text-anchor="middle" font-size="13"><text text-decoration="blink" x="97" y="13.325" transform="translate(152.003 173.813)">Object.notify()</text><text text-decoration="blink" x="97" y="29.575" transform="translate(152.003 173.813)">Object.notifyAll()</text><text text-decoration="blink" x="97" y="45.825" transform="translate(152.003 173.813)">LockSupport.unpark(Thread)</text></g></g><g><path d="M652.003 161.188h182v82h-182z" fill="none"/><g font-family="微软雅黑" text-anchor="middle" font-size="13"><text text-decoration="blink" x="91" y="13.325" transform="translate(652.003 161.563)">Thread.sleep(long)</text><text text-decoration="blink" x="91" y="29.575" transform="translate(652.003 161.563)">Object.wait(long)</text><text text-decoration="blink" x="91" y="45.825" transform="translate(652.003 161.563)">Thread.join(long)</text><text text-decoration="blink" x="91" y="62.075" transform="translate(652.003 161.563)">LockSupport.parkNanos()</text><text text-decoration="blink" x="91" y="78.325" transform="translate(652.003 161.563)">LockSupport.parkUntil()</text></g></g><g><path d="M585.003 324.188h189v53h-189z" fill="none"/><g font-family="微软雅黑" text-anchor="middle" font-size="13"><text text-decoration="blink" x="94.5" y="13.325" transform="translate(585.003 326.313)">Object.notify()</text><text text-decoration="blink" x="94.5" y="29.575" transform="translate(585.003 326.313)">Object.notifyAll()</text><text text-decoration="blink" x="94.5" y="45.825" transform="translate(585.003 326.313)">LockSupport.unpark(Thread)</text></g></g><g><path d="M652.003 397.188h195v32h-195z" fill="none"/><text text-decoration="blink" font-family="微软雅黑" text-anchor="middle" font-size="13" x="97.5" y="13.325" transform="translate(652.003 405.063)">等待进入synchronized方法/块</text></g><g><path d="M583.003 455.188h69v24h-69z" fill="none"/><text text-decoration="blink" font-family="微软雅黑" text-anchor="middle" font-size="13" x="34.5" y="13.325" transform="translate(583.003 459.063)">获取到锁</text></g></svg>