<svg xmlns="http://www.w3.org/2000/svg" viewBox="215 35 788 499" width="788" height="499"><path d="M215 35h788v499H215V35z" fill="none"/><path d="M235 55h748v459H235z" stroke="#323232" stroke-width="2" fill="#ffe6cc"/><path d="M283 144q0-4 4-4h232q4 0 4 4v78q0 4-4 4H287q-4 0-4-4z" stroke="#323232" stroke-width="2" fill="#ff6"/><g font-size="13" font-family="微软雅黑" text-anchor="middle"><text x="109" y="13.325" transform="translate(293 166.75)">方法区</text><text x="109" y="29.575" transform="translate(293 166.75)">Method Area</text></g><path d="M269 276q0-4 4-4h260q4 0 4 4v103q0 4-4 4H273q-4 0-4-4z" stroke="#323232" stroke-width="2" fill="#ff6"/><g font-size="13" font-family="微软雅黑" text-anchor="middle"><text x="123" y="13.325" transform="translate(279 311.25)">堆</text><text x="123" y="29.575" transform="translate(279 311.25)">Heap</text></g><path d="M666 168q0-4 4-4h92q4 0 4 4v62q0 4-4 4h-92q-4 0-4-4z" stroke="#323232" stroke-width="2" fill="#3f3"/><g font-size="13" font-family="微软雅黑" text-anchor="middle"><text x="39" y="13.325" transform="translate(676 182.75)">虚拟机栈</text><text x="39" y="29.575" transform="translate(676 182.75)">VM Stack</text></g><path d="M829 164q0-4 4-4h87q4 0 4 4v62q0 4-4 4h-87q-4 0-4-4z" stroke="#323232" stroke-width="2" fill="#3f3"/><g font-size="13" font-family="微软雅黑" text-anchor="middle"><text x="36.5" y="13.325" transform="translate(839 162.5)">本地方法栈</text><text x="36.5" y="29.575" transform="translate(839 162.5)">Native</text><text x="36.5" y="45.825" transform="translate(839 162.5)">Method</text><text x="36.5" y="62.075" transform="translate(839 162.5)">Stack</text></g><path d="M660 286q0-4 4-4h266q4 0 4 4v59q0 4-4 4H664q-4 0-4-4z" stroke="#323232" stroke-width="2" fill="#3f3"/><g font-size="13" font-family="微软雅黑" text-anchor="middle"><text x="126" y="13.325" transform="translate(670 299.25)">程序计数器</text><text x="126" y="29.575" transform="translate(670 299.25)">Program Counter Register</text></g><path d="M455 73h308v23H455z" fill="none"/><text font-size="29" x="153" y="29.725" font-family="微软雅黑" font-weight="bold" text-anchor="middle" transform="translate(455 66.375)">运行时数据区</text><g><path d="M322 423h43v30h-43z" stroke="#323232" stroke-width="2" fill="#ff3"/></g><g><path d="M322 466h43v30h-43z" stroke="#323232" stroke-width="2" fill="#3f3"/></g><g><path d="M353 425h198v26H353z" fill="none"/><text font-size="15" x="98" y="15.375" font-family="微软雅黑" font-weight="bold" text-anchor="middle" transform="translate(353 428.625)">由所有线程共享的数据区</text></g><g><path d="M362 471h146v20H362z" fill="none"/><text font-size="16" x="72" y="16.4" font-family="微软雅黑" font-weight="bold" text-anchor="middle" transform="translate(362 471)">线程私有的数据区</text></g><g><path d="M235 406h748" stroke="#323232" stroke-width="2" stroke-dasharray="10.0 4.0" fill="none"/><path d="M576.5 397.875h65v16.25h-65z" fill="#fff"/><text font-size="13" y="13.325" font-family="微软雅黑" text-anchor="middle" transform="translate(609 397.875)">我是分割线</text></g></svg>