<svg xmlns="http://www.w3.org/2000/svg" viewBox="153 62 830 359" width="830" height="359"><defs><marker id="a" markerUnits="userSpaceOnUse" orient="auto" markerWidth="16.236" markerHeight="10.551" viewBox="-1 -1.376 16.236 10.551" refX="-1" refY="3.899"><path d="M12 3.899l-12 3.9V0z" stroke="#323232" stroke-width="2" fill="#323232"/></marker><marker id="b" markerUnits="userSpaceOnUse" orient="auto" markerWidth="16.236" markerHeight="10.551" viewBox="-1 -1.376 16.236 10.551" refX="-1" refY="3.899"><path d="M12 3.899l-12 3.9V0z" stroke="#323232" stroke-width="2" fill="#fff"/></marker><marker id="c" markerUnits="userSpaceOnUse" orient="auto" markerWidth="14.289" markerHeight="19.055" viewBox="-0.588 -0.809 14.289 19.055" refX="12" refY="8.719"><path d="M0 0l12 8.719-12 8.718" stroke="#323232" stroke-width="2" fill="none"/></marker><marker id="d" markerUnits="userSpaceOnUse" orient="auto" markerWidth="20.61" markerHeight="10.888" viewBox="-2.305 -1.591 20.61 10.888" refX="16" refY="3.853"><path d="M0 3.853L8 0l8 3.853-8 3.852z" stroke="#323232" stroke-width="2" fill="#fff"/></marker><marker id="e" markerUnits="userSpaceOnUse" orient="auto" markerWidth="14.289" markerHeight="19.055" viewBox="-0.588 -0.809 14.289 19.055" refX="12" refY="8.719"><path d="M0 0l12 8.719-12 8.718" stroke="#323232" stroke-width="2" fill="none"/></marker></defs><path d="M153 62h830v359H153V62z" fill="#fff"/><path d="M173 86q0-4 4-4h136q4 0 4 4v129q0 4-4 4H177q-4 0-4-4z" stroke="#323232" stroke-width="2" fill="#fff"/><path d="M173 112h144m-144 53.5h144" stroke="#323232" stroke-width="2" fill="none"/><path d="M173 82h144v137H173z" fill="none"/><text font-weight="bold" text-decoration="blink" font-family="微软雅黑" text-anchor="middle" font-size="13" x="62" y="13.325" transform="translate(183 88.875)">Waitress</text><g font-weight="bold" font-family="微软雅黑" text-anchor="middle" font-size="13"><text text-decoration="blink" x="62" y="13.325" transform="translate(183 167.875)">+receive()</text><text text-decoration="blink" x="62" y="29.575" transform="translate(183 167.875)">+cancel()</text><text text-decoration="blink" x="62" y="45.825" transform="translate(183 167.875)">+transmit()</text></g><path d="M816 101q0-4 4-4h139q4 0 4 4v99q0 4-4 4H820q-4 0-4-4z" stroke="#323232" stroke-width="2" fill="#fff"/><path d="M816 127h147m-147 38.5h147" stroke="#323232" stroke-width="2" fill="none"/><path d="M816 97h147v107H816z" fill="none"/><text font-weight="bold" text-decoration="blink" font-family="微软雅黑" text-anchor="middle" font-size="13" x="63.5" y="13.325" transform="translate(826 103.875)">Chef</text><g font-weight="bold" font-family="微软雅黑" text-anchor="middle" font-size="13"><text text-decoration="blink" x="63.5" y="13.325" transform="translate(826 168.5)">+bakeBeef()</text><text text-decoration="blink" x="63.5" y="29.575" transform="translate(826 168.5)">+bakeMutton()</text></g><g><path d="M632 298q0-4 4-4h139q4 0 4 4v99q0 4-4 4H636q-4 0-4-4z" stroke="#323232" stroke-width="2" fill="#fff"/><path d="M632 324h147m-147 38.5h147" stroke="#323232" stroke-width="2" fill="none"/><path d="M632 294h147v107H632z" fill="none"/><text font-weight="bold" text-decoration="blink" font-family="微软雅黑" text-anchor="middle" font-size="13" x="63.5" y="13.325" transform="translate(642 300.875)">BakeBeef</text><text font-weight="bold" text-decoration="blink" font-family="微软雅黑" text-anchor="middle" font-size="13" x="63.5" y="13.325" transform="translate(642 373.625)">+execute()</text></g><g><path d="M399 298q0-4 4-4h139q4 0 4 4v99q0 4-4 4H403q-4 0-4-4z" stroke="#323232" stroke-width="2" fill="#fff"/><path d="M399 324h147m-147 38.5h147" stroke="#323232" stroke-width="2" fill="none"/><path d="M399 294h147v107H399z" fill="none"/><text font-weight="bold" text-decoration="blink" font-family="微软雅黑" text-anchor="middle" font-size="13" x="63.5" y="13.325" transform="translate(409 300.875)">BakeMutton</text><text font-weight="bold" text-decoration="blink" font-family="微软雅黑" text-anchor="middle" font-size="13" x="63.5" y="13.325" transform="translate(409 373.625)">+execute()</text></g><g><path d="M513 101q0-4 4-4h139q4 0 4 4v99q0 4-4 4H517q-4 0-4-4z" stroke="#323232" stroke-width="2" fill="#fff"/><path d="M513 127h147m-147 38.5h147" stroke="#323232" stroke-width="2" fill="none"/><path d="M513 97h147v107H513z" fill="none"/><text font-weight="bold" text-decoration="blink" font-family="微软雅黑" text-anchor="middle" font-size="13" x="63.5" y="13.325" transform="translate(523 103.875)">Order</text><text font-weight="bold" text-decoration="blink" font-family="微软雅黑" text-anchor="middle" font-size="13" x="63.5" y="13.325" transform="translate(523 138.125)">#chef : Chef</text><text font-weight="bold" text-decoration="blink" font-family="微软雅黑" text-anchor="middle" font-size="13" x="63.5" y="13.325" transform="translate(523 176.625)">+execute()</text></g><g><path d="M472.5 294v-45h114v-29.764" stroke="#323232" stroke-width="2" fill="none" marker-end="url(#a)"/></g><g><path d="M705.5 294v-45h-119v-29.764" stroke="#323232" stroke-width="2" fill="none" marker-end="url(#b)"/></g><g><path d="M660 150.5h156" stroke="#323232" stroke-width="2" fill="none" marker-end="url(#c)"/></g><g><path d="M335.305 150.5H513" stroke="#323232" stroke-width="2" fill="none" marker-start="url(#d)" marker-end="url(#e)"/></g></svg>