<svg xmlns="http://www.w3.org/2000/svg" viewBox="96.003 259.551 495 248" width="495" height="248"><defs><marker id="a" markerUnits="userSpaceOnUse" orient="auto" markerWidth="16.236" markerHeight="10.551" viewBox="-1 -1.376 16.236 10.551" refX="-1" refY="3.899"><path d="M12 3.899l-12 3.9V0z" stroke="#323232" stroke-width="2" fill="#323232"/></marker><marker id="b" markerUnits="userSpaceOnUse" orient="auto" markerWidth="16.236" markerHeight="10.551" viewBox="-1 -1.376 16.236 10.551" refX="-1" refY="3.899"><path d="M12 3.899l-12 3.9V0z" stroke="#323232" stroke-width="2" fill="#323232"/></marker><marker id="c" markerUnits="userSpaceOnUse" orient="auto" markerWidth="16.236" markerHeight="10.551" viewBox="-1 -1.376 16.236 10.551" refX="-1" refY="3.899"><path d="M12 3.899l-12 3.9V0z" stroke="#323232" stroke-width="2" fill="#323232"/></marker></defs><path d="M96.003 259.551h495v248h-495v-248z" fill="none"/><path d="M116.003 279.551h100v70h-100z" stroke="#323232" stroke-width="2" fill="#fff"/><text text-decoration="blink" font-family="微软雅黑" text-anchor="middle" font-size="13" x="40" y="13.325" transform="translate(126.003 306.426)">Java代码</text><path d="M289.003 279.551h100v70h-100z" stroke="#323232" stroke-width="2" fill="#ffe6cc"/><text text-decoration="blink" font-family="微软雅黑" text-anchor="middle" font-size="13" x="40" y="13.325" transform="translate(299.003 306.426)">Java字节码</text><path d="M289.003 417.551h100l-16.667 70H305.67l-16.667-70z" stroke="#323232" stroke-width="2" fill="#f99"/><text text-decoration="blink" font-family="微软雅黑" text-anchor="middle" font-size="13" x="40" y="13.325" transform="translate(299.003 444.426)">JVM容器</text><path d="M471.003 425.884q25 16.667 50 0 25-16.666 50 0v53.334q-25-16.667-50 0-25 16.666-50 0v-53.334z" stroke="#323232" stroke-width="2" fill="#f66"/><text text-decoration="blink" font-family="微软雅黑" text-anchor="middle" font-size="13" x="50" y="13.325" transform="translate(471.003 444.426)">汇编指令</text><path d="M216.003 314.551H273.767" stroke="#323232" stroke-width="2" fill="none" marker-end="url(#a)"/><path d="M339.003 349.551v34h0v18.764" stroke="#323232" stroke-width="2" fill="none" marker-end="url(#b)"/><g><path d="M380.67 452.551h75.096" stroke="#323232" stroke-width="2" fill="none" marker-end="url(#c)"/></g><g><path d="M471.003 387.37h95v21.181h-95z" fill="none"/><text font-weight="bold" text-decoration="blink" font-family="微软雅黑" text-anchor="middle" font-size="16" x="47.5" y="16.4" transform="translate(471.003 387.96)">CPU</text></g><g><path d="M208.003 286.733h81v34h-81z" fill="none"/><text text-decoration="blink" font-family="微软雅黑" text-anchor="middle" font-size="13" x="40.5" y="13.325" transform="translate(208.003 295.608)">编译</text></g><g><path d="M284.003 364.551h72v44h-72z" fill="none"/><text text-decoration="blink" font-family="微软雅黑" text-anchor="middle" font-size="13" x="36" y="13.325" transform="translate(284.003 378.426)">加载</text></g></svg>