<svg xmlns="http://www.w3.org/2000/svg" viewBox="62 47 793 371" width="793" height="371"><defs><marker id="a" markerUnits="userSpaceOnUse" orient="auto" markerWidth="16.236" markerHeight="10.551" viewBox="-1 -1.376 16.236 10.551" refX="-1" refY="3.899"><path d="M12 3.899l-12 3.9V0z" stroke="#323232" stroke-width="2" fill="#323232"/></marker><marker id="b" markerUnits="userSpaceOnUse" orient="auto" markerWidth="16.236" markerHeight="10.551" viewBox="-1 -1.376 16.236 10.551" refX="-1" refY="3.899"><path d="M12 3.899l-12 3.9V0z" stroke="#323232" stroke-width="2" fill="#fff"/></marker><marker id="c" markerUnits="userSpaceOnUse" orient="auto" markerWidth="20.61" markerHeight="10.888" viewBox="-2.305 -1.591 20.61 10.888" refX="16" refY="3.853"><path d="M0 3.853L8 0l8 3.853-8 3.852z" stroke="#323232" stroke-width="2" fill="#fff"/></marker><marker id="d" markerUnits="userSpaceOnUse" orient="auto" markerWidth="14.289" markerHeight="19.055" viewBox="-0.588 -0.809 14.289 19.055" refX="12" refY="8.719"><path d="M0 0l12 8.719-12 8.718" stroke="#323232" stroke-width="2" fill="none"/></marker></defs><path d="M62 47h793v371H62V47z" fill="#fff"/><path d="M292 287q0-4 4-4h188q4 0 4 4v97q0 4-4 4H296q-4 0-4-4z" stroke="#323232" stroke-width="2" fill="#fff"/><path d="M292 313h196m-196 37.5h196" stroke="#323232" stroke-width="2" fill="none"/><path d="M292 283h196v105H292z" fill="none"/><text font-weight="bold" text-decoration="blink" font-family="微软雅黑" text-anchor="middle" font-size="13" x="88" y="13.325" transform="translate(302 289.875)">Normal</text><text font-weight="bold" text-decoration="blink" font-family="微软雅黑" text-anchor="middle" font-size="13" x="88" y="13.325" transform="translate(302 361.125)">+acceptCash() : double</text><path d="M445 83.5q0-4 4-4h195q4 0 4 4v77q0 4-4 4H449q-4 0-4-4z" stroke="#323232" stroke-width="2" fill="#fff"/><path d="M445 109.5h203" stroke="#323232" stroke-width="2" fill="none"/><path d="M445 79.5h203v85H445z" fill="none"/><text font-weight="bold" text-decoration="blink" font-family="微软雅黑" text-anchor="middle" font-size="13" x="91.5" y="13.325" transform="translate(455 86.375)">Strategy</text><text font-weight="bold" text-decoration="blink" font-family="微软雅黑" text-anchor="middle" font-size="13" x="91.5" y="13.325" transform="translate(455 128.875)">#acceptCash() : double</text><g><path d="M637 287q0-4 4-4h190q4 0 4 4v107q0 4-4 4H641q-4 0-4-4z" stroke="#323232" stroke-width="2" fill="#fff"/><path d="M637 313h198m-198 42.5h198" stroke="#323232" stroke-width="2" fill="none"/><path d="M637 283h198v115H637z" fill="none"/><text font-weight="bold" text-decoration="blink" font-family="微软雅黑" text-anchor="middle" font-size="13" x="89" y="13.325" transform="translate(647 289.875)">Rate</text><text font-weight="bold" text-decoration="blink" font-family="微软雅黑" text-anchor="middle" font-size="13" x="89" y="13.325" transform="translate(647 326.125)">-rate : double</text><text font-weight="bold" text-decoration="blink" font-family="微软雅黑" text-anchor="middle" font-size="13" x="89" y="13.325" transform="translate(647 368.625)">+acceptCash() : double</text></g><g><path d="M390 283v-59.25h156.5v-44.014" stroke="#323232" stroke-width="2" fill="none" marker-end="url(#a)"/></g><g><path d="M736 283v-59.25H546.5v-44.014" stroke="#323232" stroke-width="2" fill="none" marker-end="url(#b)"/></g><g><path d="M82 71q0-4 4-4h222q4 0 4 4v102q0 4-4 4H86q-4 0-4-4z" stroke="#323232" stroke-width="2" fill="#fff"/><path d="M82 97h230M82 138h230" stroke="#323232" stroke-width="2" fill="none"/><path d="M82 67h230v110H82z" fill="none"/><text font-weight="bold" text-decoration="blink" font-family="微软雅黑" text-anchor="middle" font-size="13" x="105" y="13.325" transform="translate(92 73.875)">Context</text><text font-weight="bold" text-decoration="blink" font-family="微软雅黑" text-anchor="middle" font-size="13" x="105" y="13.325" transform="translate(92 106.875)">-strategy : Strategy</text><text font-weight="bold" text-decoration="blink" font-family="微软雅黑" text-anchor="middle" font-size="13" x="105" y="13.325" transform="translate(92 149.875)">+getResult() : double</text></g><g><path d="M330.305 122H445" stroke="#323232" stroke-width="2" fill="none" marker-start="url(#c)" marker-end="url(#d)"/></g></svg>