<svg id="SvgjsSvg1006" width="1442" height="532" xmlns="http://www.w3.org/2000/svg" version="1.1" xmlns:xlink="http://www.w3.org/1999/xlink" xmlns:svgjs="http://svgjs.com/svgjs"><defs id="SvgjsDefs1007"><marker id="SvgjsMarker1124" markerWidth="16" markerHeight="12" refX="16" refY="6" viewBox="0 0 16 12" orient="auto" markerUnits="userSpaceOnUse"><path id="SvgjsPath1125" d="M0,2 L14,6 L0,11 L0,2" fill="#323232" stroke="#323232" stroke-width="2"></path></marker><marker id="SvgjsMarker1128" markerWidth="16" markerHeight="12" refX="16" refY="6" viewBox="0 0 16 12" orient="auto" markerUnits="userSpaceOnUse"><path id="SvgjsPath1129" d="M0,2 L14,6 L0,11 L0,2" fill="#323232" stroke="#323232" stroke-width="2"></path></marker><marker id="SvgjsMarker1132" markerWidth="16" markerHeight="12" refX="16" refY="6" viewBox="0 0 16 12" orient="auto" markerUnits="userSpaceOnUse"><path id="SvgjsPath1133" d="M0,2 L14,6 L0,11 L0,2" fill="#323232" stroke="#323232" stroke-width="2"></path></marker><marker id="SvgjsMarker1136" markerWidth="16" markerHeight="12" refX="16" refY="6" viewBox="0 0 16 12" orient="auto" markerUnits="userSpaceOnUse"><path id="SvgjsPath1137" d="M0,2 L14,6 L0,11 L0,2" fill="#323232" stroke="#323232" stroke-width="2"></path></marker><marker id="SvgjsMarker1140" markerWidth="16" markerHeight="12" refX="16" refY="6" viewBox="0 0 16 12" orient="auto" markerUnits="userSpaceOnUse"><path id="SvgjsPath1141" d="M0,2 L14,6 L0,11 L0,2" fill="#323232" stroke="#323232" stroke-width="2"></path></marker><marker id="SvgjsMarker1144" markerWidth="16" markerHeight="12" refX="16" refY="6" viewBox="0 0 16 12" orient="auto" markerUnits="userSpaceOnUse"><path id="SvgjsPath1145" d="M0,2 L14,6 L0,11 L0,2" fill="#323232" stroke="#323232" stroke-width="2"></path></marker><marker id="SvgjsMarker1148" markerWidth="16" markerHeight="12" refX="16" refY="6" viewBox="0 0 16 12" orient="auto" markerUnits="userSpaceOnUse"><path id="SvgjsPath1149" d="M0,2 L14,6 L0,11 L0,2" fill="#323232" stroke="#323232" stroke-width="2"></path></marker><marker id="SvgjsMarker1152" markerWidth="16" markerHeight="12" refX="16" refY="6" viewBox="0 0 16 12" orient="auto" markerUnits="userSpaceOnUse"><path id="SvgjsPath1153" d="M0,2 L14,6 L0,11 L0,2" fill="#323232" stroke="#323232" stroke-width="2"></path></marker><marker id="SvgjsMarker1156" markerWidth="16" markerHeight="12" refX="16" refY="6" viewBox="0 0 16 12" orient="auto" markerUnits="userSpaceOnUse"><path id="SvgjsPath1157" d="M0,2 L14,6 L0,11 L0,2" fill="#323232" stroke="#323232" stroke-width="2"></path></marker><marker id="SvgjsMarker1160" markerWidth="16" markerHeight="12" refX="16" refY="6" viewBox="0 0 16 12" orient="auto" markerUnits="userSpaceOnUse"><path id="SvgjsPath1161" d="M0,2 L14,6 L0,11 L0,2" fill="#323232" stroke="#323232" stroke-width="2"></path></marker><marker id="SvgjsMarker1164" markerWidth="16" markerHeight="12" refX="16" refY="6" viewBox="0 0 16 12" orient="auto" markerUnits="userSpaceOnUse"><path id="SvgjsPath1165" d="M0,2 L14,6 L0,11 L0,2" fill="#323232" stroke="#323232" stroke-width="2"></path></marker><marker id="SvgjsMarker1168" markerWidth="16" markerHeight="12" refX="16" refY="6" viewBox="0 0 16 12" orient="auto" markerUnits="userSpaceOnUse"><path id="SvgjsPath1169" d="M0,2 L14,6 L0,11 L0,2" fill="#323232" stroke="#323232" stroke-width="2"></path></marker><marker id="SvgjsMarker1172" markerWidth="16" markerHeight="12" refX="16" refY="6" viewBox="0 0 16 12" orient="auto" markerUnits="userSpaceOnUse"><path id="SvgjsPath1173" d="M0,2 L14,6 L0,11 L0,2" fill="#323232" stroke="#323232" stroke-width="2"></path></marker><marker id="SvgjsMarker1176" markerWidth="16" markerHeight="12" refX="16" refY="6" viewBox="0 0 16 12" orient="auto" markerUnits="userSpaceOnUse"><path id="SvgjsPath1177" d="M0,2 L14,6 L0,11 L0,2" fill="#323232" stroke="#323232" stroke-width="2"></path></marker><marker id="SvgjsMarker1180" markerWidth="16" markerHeight="12" refX="16" refY="6" viewBox="0 0 16 12" orient="auto" markerUnits="userSpaceOnUse"><path id="SvgjsPath1181" d="M0,2 L14,6 L0,11 L0,2" fill="#323232" stroke="#323232" stroke-width="2"></path></marker><marker id="SvgjsMarker1184" markerWidth="16" markerHeight="12" refX="16" refY="6" viewBox="0 0 16 12" orient="auto" markerUnits="userSpaceOnUse"><path id="SvgjsPath1185" d="M0,2 L14,6 L0,11 L0,2" fill="#323232" stroke="#323232" stroke-width="2"></path></marker><marker id="SvgjsMarker1188" markerWidth="16" markerHeight="12" refX="16" refY="6" viewBox="0 0 16 12" orient="auto" markerUnits="userSpaceOnUse"><path id="SvgjsPath1189" d="M0,2 L14,6 L0,11 L0,2" fill="#323232" stroke="#323232" stroke-width="2"></path></marker><marker id="SvgjsMarker1192" markerWidth="16" markerHeight="12" refX="16" refY="6" viewBox="0 0 16 12" orient="auto" markerUnits="userSpaceOnUse"><path id="SvgjsPath1193" d="M0,2 L14,6 L0,11 L0,2" fill="#323232" stroke="#323232" stroke-width="2"></path></marker></defs><g id="SvgjsG1008" transform="translate(695,25)"><path id="SvgjsPath1009" d="M 0 0L 142 0L 142 40L 0 40Z" stroke="#323232" stroke-width="2" fill-opacity="1" fill="#ffffff"></path><g id="SvgjsG1010"><text id="SvgjsText1011" font-family="微软雅黑" text-anchor="middle" font-size="18px" width="39" fill="#323232" font-weight="700" align="middle" anchor="middle" family="微软雅黑" size="18px" weight="700" font-style="" y="5.800000000000001" transform="rotate(0)"><tspan id="SvgjsTspan1012" dy="22" x="71"><tspan id="SvgjsTspan1013" style="text-decoration:;">[0, 9]</tspan></tspan></text></g></g><g id="SvgjsG1014" transform="translate(351,162)"><path id="SvgjsPath1015" d="M 0 0L 142 0L 142 40L 0 40Z" stroke="#323232" stroke-width="2" fill-opacity="1" fill="#ffffff"></path><g id="SvgjsG1016"><text id="SvgjsText1017" font-family="微软雅黑" text-anchor="middle" font-size="18px" width="39" fill="#323232" font-weight="700" align="middle" anchor="middle" family="微软雅黑" size="18px" weight="700" font-style="" y="5.800000000000001" transform="rotate(0)"><tspan id="SvgjsTspan1018" dy="22" x="71"><tspan id="SvgjsTspan1019" style="text-decoration:;">[0, 4]</tspan></tspan></text></g></g><g id="SvgjsG1020" transform="translate(1034,162)"><path id="SvgjsPath1021" d="M 0 0L 142 0L 142 40L 0 40Z" stroke="#323232" stroke-width="2" fill-opacity="1" fill="#ffffff"></path><g id="SvgjsG1022"><text id="SvgjsText1023" font-family="微软雅黑" text-anchor="middle" font-size="18px" width="39" fill="#323232" font-weight="700" align="middle" anchor="middle" family="微软雅黑" size="18px" weight="700" font-style="" y="5.800000000000001" transform="rotate(0)"><tspan id="SvgjsTspan1024" dy="22" x="71"><tspan id="SvgjsTspan1025" style="text-decoration:;">[5, 9]</tspan></tspan></text></g></g><g id="SvgjsG1026" transform="translate(203,266)"><path id="SvgjsPath1027" d="M 0 0L 142 0L 142 40L 0 40Z" stroke="#323232" stroke-width="2" fill-opacity="1" fill="#ffffff"></path><g id="SvgjsG1028"><text id="SvgjsText1029" font-family="微软雅黑" text-anchor="middle" font-size="18px" width="39" fill="#323232" font-weight="700" align="middle" anchor="middle" family="微软雅黑" size="18px" weight="700" font-style="" y="5.800000000000001" transform="rotate(0)"><tspan id="SvgjsTspan1030" dy="22" x="71"><tspan id="SvgjsTspan1031" style="text-decoration:;">[0, 2]</tspan></tspan></text></g></g><g id="SvgjsG1032" transform="translate(506,266)"><path id="SvgjsPath1033" d="M 0 0L 142 0L 142 40L 0 40Z" stroke="#323232" stroke-width="2" fill-opacity="1" fill="#ffffff"></path><g id="SvgjsG1034"><text id="SvgjsText1035" font-family="微软雅黑" text-anchor="middle" font-size="18px" width="39" fill="#323232" font-weight="700" align="middle" anchor="middle" family="微软雅黑" size="18px" weight="700" font-style="" y="5.800000000000001" transform="rotate(0)"><tspan id="SvgjsTspan1036" dy="22" x="71"><tspan id="SvgjsTspan1037" style="text-decoration:;">[3, 4]</tspan></tspan></text></g></g><g id="SvgjsG1038" transform="translate(104,373)"><path id="SvgjsPath1039" d="M 0 0L 142 0L 142 40L 0 40Z" stroke="#323232" stroke-width="2" fill-opacity="1" fill="#ffffff"></path><g id="SvgjsG1040"><text id="SvgjsText1041" font-family="微软雅黑" text-anchor="middle" font-size="18px" width="39" fill="#323232" font-weight="700" align="middle" anchor="middle" family="微软雅黑" size="18px" weight="700" font-style="" y="5.800000000000001" transform="rotate(0)"><tspan id="SvgjsTspan1042" dy="22" x="71"><tspan id="SvgjsTspan1043" style="text-decoration:;">[0, 1]</tspan></tspan></text></g></g><g id="SvgjsG1044" transform="translate(274,373)"><path id="SvgjsPath1045" d="M 0 0L 142 0L 142 40L 0 40Z" stroke="#323232" stroke-width="2" fill-opacity="1" fill="#ffffff"></path><g id="SvgjsG1046"><text id="SvgjsText1047" font-family="微软雅黑" text-anchor="middle" font-size="18px" width="39" fill="#323232" font-weight="700" align="middle" anchor="middle" family="微软雅黑" size="18px" weight="700" font-style="" y="5.800000000000001" transform="rotate(0)"><tspan id="SvgjsTspan1048" dy="22" x="71"><tspan id="SvgjsTspan1049" style="text-decoration:;">[2, 2]</tspan></tspan></text></g></g><g id="SvgjsG1050" transform="translate(190,467)"><path id="SvgjsPath1051" d="M 0 0L 142 0L 142 40L 0 40Z" stroke="#323232" stroke-width="2" fill-opacity="1" fill="#ffffff"></path><g id="SvgjsG1052"><text id="SvgjsText1053" font-family="微软雅黑" text-anchor="middle" font-size="18px" width="39" fill="#323232" font-weight="700" align="middle" anchor="middle" family="微软雅黑" size="18px" weight="700" font-style="" y="5.800000000000001" transform="rotate(0)"><tspan id="SvgjsTspan1054" dy="22" x="71"><tspan id="SvgjsTspan1055" style="text-decoration:;">[1, 1]</tspan></tspan></text></g></g><g id="SvgjsG1056" transform="translate(25,467)"><path id="SvgjsPath1057" d="M 0 0L 142 0L 142 40L 0 40Z" stroke="#323232" stroke-width="2" fill-opacity="1" fill="#ffffff"></path><g id="SvgjsG1058"><text id="SvgjsText1059" font-family="微软雅黑" text-anchor="middle" font-size="18px" width="39" fill="#323232" font-weight="700" align="middle" anchor="middle" family="微软雅黑" size="18px" weight="700" font-style="" y="5.800000000000001" transform="rotate(0)"><tspan id="SvgjsTspan1060" dy="22" x="71"><tspan id="SvgjsTspan1061" style="text-decoration:;">[0, 0]</tspan></tspan></text></g></g><g id="SvgjsG1062" transform="translate(434,373)"><path id="SvgjsPath1063" d="M 0 0L 142 0L 142 40L 0 40Z" stroke="#323232" stroke-width="2" fill-opacity="1" fill="#ffffff"></path><g id="SvgjsG1064"><text id="SvgjsText1065" font-family="微软雅黑" text-anchor="middle" font-size="18px" width="39" fill="#323232" font-weight="700" align="middle" anchor="middle" family="微软雅黑" size="18px" weight="700" font-style="" y="5.800000000000001" transform="rotate(0)"><tspan id="SvgjsTspan1066" dy="22" x="71"><tspan id="SvgjsTspan1067" style="text-decoration:;">[3, 3]</tspan></tspan></text></g></g><g id="SvgjsG1068" transform="translate(596,373)"><path id="SvgjsPath1069" d="M 0 0L 142 0L 142 40L 0 40Z" stroke="#323232" stroke-width="2" fill-opacity="1" fill="#ffffff"></path><g id="SvgjsG1070"><text id="SvgjsText1071" font-family="微软雅黑" text-anchor="middle" font-size="18px" width="39" fill="#323232" font-weight="700" align="middle" anchor="middle" family="微软雅黑" size="18px" weight="700" font-style="" y="5.800000000000001" transform="rotate(0)"><tspan id="SvgjsTspan1072" dy="22" x="71"><tspan id="SvgjsTspan1073" style="text-decoration:;">[4, 4]</tspan></tspan></text></g></g><g id="SvgjsG1074" transform="translate(1193,266)"><path id="SvgjsPath1075" d="M 0 0L 142 0L 142 40L 0 40Z" stroke="#323232" stroke-width="2" fill-opacity="1" fill="#ffffff"></path><g id="SvgjsG1076"><text id="SvgjsText1077" font-family="微软雅黑" text-anchor="middle" font-size="18px" width="39" fill="#323232" font-weight="700" align="middle" anchor="middle" family="微软雅黑" size="18px" weight="700" font-style="" y="5.800000000000001" transform="rotate(0)"><tspan id="SvgjsTspan1078" dy="22" x="71"><tspan id="SvgjsTspan1079" style="text-decoration:;">[8, 9]</tspan></tspan></text></g></g><g id="SvgjsG1080" transform="translate(862,266)"><path id="SvgjsPath1081" d="M 0 0L 142 0L 142 40L 0 40Z" stroke="#323232" stroke-width="2" fill-opacity="1" fill="#ffffff"></path><g id="SvgjsG1082"><text id="SvgjsText1083" font-family="微软雅黑" text-anchor="middle" font-size="18px" width="39" fill="#323232" font-weight="700" align="middle" anchor="middle" family="微软雅黑" size="18px" weight="700" font-style="" y="5.800000000000001" transform="rotate(0)"><tspan id="SvgjsTspan1084" dy="22" x="71"><tspan id="SvgjsTspan1085" style="text-decoration:;">[5, 7]</tspan></tspan></text></g></g><g id="SvgjsG1086" transform="translate(950,369)"><path id="SvgjsPath1087" d="M 0 0L 142 0L 142 40L 0 40Z" stroke="#323232" stroke-width="2" fill-opacity="1" fill="#ffffff"></path><g id="SvgjsG1088"><text id="SvgjsText1089" font-family="微软雅黑" text-anchor="middle" font-size="18px" width="39" fill="#323232" font-weight="700" align="middle" anchor="middle" family="微软雅黑" size="18px" weight="700" font-style="" y="5.800000000000001" transform="rotate(0)"><tspan id="SvgjsTspan1090" dy="22" x="71"><tspan id="SvgjsTspan1091" style="text-decoration:;">[7, 7]</tspan></tspan></text></g></g><g id="SvgjsG1092" transform="translate(785,369)"><path id="SvgjsPath1093" d="M 0 0L 142 0L 142 40L 0 40Z" stroke="#323232" stroke-width="2" fill-opacity="1" fill="#ffffff"></path><g id="SvgjsG1094"><text id="SvgjsText1095" font-family="微软雅黑" text-anchor="middle" font-size="18px" width="39" fill="#323232" font-weight="700" align="middle" anchor="middle" family="微软雅黑" size="18px" weight="700" font-style="" y="5.800000000000001" transform="rotate(0)"><tspan id="SvgjsTspan1096" dy="22" x="71"><tspan id="SvgjsTspan1097" style="text-decoration:;">[5, 6]</tspan></tspan></text></g></g><g id="SvgjsG1098" transform="translate(858,464)"><path id="SvgjsPath1099" d="M 0 0L 142 0L 142 40L 0 40Z" stroke="#323232" stroke-width="2" fill-opacity="1" fill="#ffffff"></path><g id="SvgjsG1100"><text id="SvgjsText1101" font-family="微软雅黑" text-anchor="middle" font-size="18px" width="39" fill="#323232" font-weight="700" align="middle" anchor="middle" family="微软雅黑" size="18px" weight="700" font-style="" y="5.800000000000001" transform="rotate(0)"><tspan id="SvgjsTspan1102" dy="22" x="71"><tspan id="SvgjsTspan1103" style="text-decoration:;">[6, 6]</tspan></tspan></text></g></g><g id="SvgjsG1104" transform="translate(695,464)"><path id="SvgjsPath1105" d="M 0 0L 142 0L 142 40L 0 40Z" stroke="#323232" stroke-width="2" fill-opacity="1" fill="#ffffff"></path><g id="SvgjsG1106"><text id="SvgjsText1107" font-family="微软雅黑" text-anchor="middle" font-size="18px" width="39" fill="#323232" font-weight="700" align="middle" anchor="middle" family="微软雅黑" size="18px" weight="700" font-style="" y="5.800000000000001" transform="rotate(0)"><tspan id="SvgjsTspan1108" dy="22" x="71"><tspan id="SvgjsTspan1109" style="text-decoration:;">[5, 5]</tspan></tspan></text></g></g><g id="SvgjsG1110" transform="translate(1275,369)"><path id="SvgjsPath1111" d="M 0 0L 142 0L 142 40L 0 40Z" stroke="#323232" stroke-width="2" fill-opacity="1" fill="#ffffff"></path><g id="SvgjsG1112"><text id="SvgjsText1113" font-family="微软雅黑" text-anchor="middle" font-size="18px" width="39" fill="#323232" font-weight="700" align="middle" anchor="middle" family="微软雅黑" size="18px" weight="700" font-style="" y="5.800000000000001" transform="rotate(0)"><tspan id="SvgjsTspan1114" dy="22" x="71"><tspan id="SvgjsTspan1115" style="text-decoration:;">[9, 9]</tspan></tspan></text></g></g><g id="SvgjsG1116" transform="translate(1114,369)"><path id="SvgjsPath1117" d="M 0 0L 142 0L 142 40L 0 40Z" stroke="#323232" stroke-width="2" fill-opacity="1" fill="#ffffff"></path><g id="SvgjsG1118"><text id="SvgjsText1119" font-family="微软雅黑" text-anchor="middle" font-size="18px" width="39" fill="#323232" font-weight="700" align="middle" anchor="middle" family="微软雅黑" size="18px" weight="700" font-style="" y="5.800000000000001" transform="rotate(0)"><tspan id="SvgjsTspan1120" dy="22" x="71"><tspan id="SvgjsTspan1121" style="text-decoration:;">[8, 8]</tspan></tspan></text></g></g><g id="SvgjsG1122"><path id="SvgjsPath1123" d="M766 65C 628 101 551 124 422 162" stroke="#323232" stroke-width="2" fill="none" marker-end="url(#SvgjsMarker1124)"></path></g><g id="SvgjsG1126"><path id="SvgjsPath1127" d="M766 65L1105 162" stroke="#323232" stroke-width="2" fill="none" marker-end="url(#SvgjsMarker1128)"></path></g><g id="SvgjsG1130"><path id="SvgjsPath1131" d="M422 202L274 266" stroke="#323232" stroke-width="2" fill="none" marker-end="url(#SvgjsMarker1132)"></path></g><g id="SvgjsG1134"><path id="SvgjsPath1135" d="M422 202L577 266" stroke="#323232" stroke-width="2" fill="none" marker-end="url(#SvgjsMarker1136)"></path></g><g id="SvgjsG1138"><path id="SvgjsPath1139" d="M274 306L175 373" stroke="#323232" stroke-width="2" fill="none" marker-end="url(#SvgjsMarker1140)"></path></g><g id="SvgjsG1142"><path id="SvgjsPath1143" d="M274 306L345 373" stroke="#323232" stroke-width="2" fill="none" marker-end="url(#SvgjsMarker1144)"></path></g><g id="SvgjsG1146"><path id="SvgjsPath1147" d="M175 413L96 467" stroke="#323232" stroke-width="2" fill="none" marker-end="url(#SvgjsMarker1148)"></path></g><g id="SvgjsG1150"><path id="SvgjsPath1151" d="M175 413L261 467" stroke="#323232" stroke-width="2" fill="none" marker-end="url(#SvgjsMarker1152)"></path></g><g id="SvgjsG1154"><path id="SvgjsPath1155" d="M577 306L505 373" stroke="#323232" stroke-width="2" fill="none" marker-end="url(#SvgjsMarker1156)"></path></g><g id="SvgjsG1158"><path id="SvgjsPath1159" d="M577 306L667 373" stroke="#323232" stroke-width="2" fill="none" marker-end="url(#SvgjsMarker1160)"></path></g><g id="SvgjsG1162"><path id="SvgjsPath1163" d="M1105 202L933 266" stroke="#323232" stroke-width="2" fill="none" marker-end="url(#SvgjsMarker1164)"></path></g><g id="SvgjsG1166"><path id="SvgjsPath1167" d="M1105 202L1264 266" stroke="#323232" stroke-width="2" fill="none" marker-end="url(#SvgjsMarker1168)"></path></g><g id="SvgjsG1170"><path id="SvgjsPath1171" d="M933 306L856 369" stroke="#323232" stroke-width="2" fill="none" marker-end="url(#SvgjsMarker1172)"></path></g><g id="SvgjsG1174"><path id="SvgjsPath1175" d="M933 306L1021 369" stroke="#323232" stroke-width="2" fill="none" marker-end="url(#SvgjsMarker1176)"></path></g><g id="SvgjsG1178"><path id="SvgjsPath1179" d="M1264 306L1185 369" stroke="#323232" stroke-width="2" fill="none" marker-end="url(#SvgjsMarker1180)"></path></g><g id="SvgjsG1182"><path id="SvgjsPath1183" d="M1264 306L1346 369" stroke="#323232" stroke-width="2" fill="none" marker-end="url(#SvgjsMarker1184)"></path></g><g id="SvgjsG1186"><path id="SvgjsPath1187" d="M856 409L766 464" stroke="#323232" stroke-width="2" fill="none" marker-end="url(#SvgjsMarker1188)"></path></g><g id="SvgjsG1190"><path id="SvgjsPath1191" d="M856 409L929 464" stroke="#323232" stroke-width="2" fill="none" marker-end="url(#SvgjsMarker1192)"></path></g></svg>