<svg id="SvgjsSvg1006" width="575" height="372" xmlns="http://www.w3.org/2000/svg" version="1.1" xmlns:xlink="http://www.w3.org/1999/xlink" xmlns:svgjs="http://svgjs.com/svgjs"><defs id="SvgjsDefs1007"><marker id="SvgjsMarker1052" markerWidth="16" markerHeight="12" refX="16" refY="6" viewBox="0 0 16 12" orient="auto" markerUnits="userSpaceOnUse"><path id="SvgjsPath1053" d="M0,2 L14,6 L0,11 L0,2" fill="#323232" stroke="#323232" stroke-width="2"></path></marker><marker id="SvgjsMarker1056" markerWidth="16" markerHeight="12" refX="16" refY="6" viewBox="0 0 16 12" orient="auto" markerUnits="userSpaceOnUse"><path id="SvgjsPath1057" d="M0,2 L14,6 L0,11 L0,2" fill="#323232" stroke="#323232" stroke-width="2"></path></marker><marker id="SvgjsMarker1060" markerWidth="16" markerHeight="12" refX="16" refY="6" viewBox="0 0 16 12" orient="auto" markerUnits="userSpaceOnUse"><path id="SvgjsPath1061" d="M0,2 L14,6 L0,11 L0,2" fill="#323232" stroke="#323232" stroke-width="2"></path></marker><marker id="SvgjsMarker1064" markerWidth="16" markerHeight="12" refX="16" refY="6" viewBox="0 0 16 12" orient="auto" markerUnits="userSpaceOnUse"><path id="SvgjsPath1065" d="M0,2 L14,6 L0,11 L0,2" fill="#323232" stroke="#323232" stroke-width="2"></path></marker><marker id="SvgjsMarker1068" markerWidth="16" markerHeight="12" refX="16" refY="6" viewBox="0 0 16 12" orient="auto" markerUnits="userSpaceOnUse"><path id="SvgjsPath1069" d="M0,2 L14,6 L0,11 L0,2" fill="#323232" stroke="#323232" stroke-width="2"></path></marker><marker id="SvgjsMarker1072" markerWidth="16" markerHeight="12" refX="16" refY="6" viewBox="0 0 16 12" orient="auto" markerUnits="userSpaceOnUse"><path id="SvgjsPath1073" d="M0,2 L14,6 L0,11 L0,2" fill="#323232" stroke="#323232" stroke-width="2"></path></marker></defs><g id="SvgjsG1008" transform="translate(244,58)"><path id="SvgjsPath1009" d="M 0 0L 107 0L 107 43L 0 43Z" stroke="#323232" stroke-width="2" fill-opacity="1" fill="#ffffff"></path><g id="SvgjsG1010"><text id="SvgjsText1011" font-family="微软雅黑" text-anchor="middle" font-size="20px" width="43" fill="#323232" font-weight="700" align="middle" anchor="middle" family="微软雅黑" size="20px" weight="700" font-style="" y="6" transform="rotate(0)"><tspan id="SvgjsTspan1012" dy="25" x="53.5"><tspan id="SvgjsTspan1013" style="text-decoration:;">[0, 3]</tspan></tspan></text></g></g><g id="SvgjsG1014" transform="translate(380,162)"><path id="SvgjsPath1015" d="M 0 0L 107 0L 107 43L 0 43Z" stroke="#323232" stroke-width="2" fill-opacity="1" fill="#ffffff"></path><g id="SvgjsG1016"><text id="SvgjsText1017" font-family="微软雅黑" text-anchor="middle" font-size="20px" width="43" fill="#323232" font-weight="700" align="middle" anchor="middle" family="微软雅黑" size="20px" weight="700" font-style="" y="6" transform="rotate(0)"><tspan id="SvgjsTspan1018" dy="25" x="53.5"><tspan id="SvgjsTspan1019" style="text-decoration:;">[2, 3]</tspan></tspan></text></g></g><g id="SvgjsG1020" transform="translate(104,162)"><path id="SvgjsPath1021" d="M 0 0L 107 0L 107 43L 0 43Z" stroke="#323232" stroke-width="2" fill-opacity="1" fill="#ffffff"></path><g id="SvgjsG1022"><text id="SvgjsText1023" font-family="微软雅黑" text-anchor="middle" font-size="20px" width="43" fill="#323232" font-weight="700" align="middle" anchor="middle" family="微软雅黑" size="20px" weight="700" font-style="" y="6" transform="rotate(0)"><tspan id="SvgjsTspan1024" dy="25" x="53.5"><tspan id="SvgjsTspan1025" style="text-decoration:;">[0, 1]</tspan></tspan></text></g></g><g id="SvgjsG1026" transform="translate(160,264)"><path id="SvgjsPath1027" d="M 0 0L 107 0L 107 43L 0 43Z" stroke="#323232" stroke-width="2" fill-opacity="1" fill="#99ff33"></path><g id="SvgjsG1028"><text id="SvgjsText1029" font-family="微软雅黑" text-anchor="middle" font-size="20px" width="43" fill="#323232" font-weight="700" align="middle" anchor="middle" family="微软雅黑" size="20px" weight="700" font-style="" y="6" transform="rotate(0)"><tspan id="SvgjsTspan1030" dy="25" x="53.5"><tspan id="SvgjsTspan1031" style="text-decoration:;">[1, 1]</tspan></tspan></text></g></g><g id="SvgjsG1032" transform="translate(25,264)"><path id="SvgjsPath1033" d="M 0 0L 107 0L 107 43L 0 43Z" stroke="#323232" stroke-width="2" fill-opacity="1" fill="#99ff33"></path><g id="SvgjsG1034"><text id="SvgjsText1035" font-family="微软雅黑" text-anchor="middle" font-size="20px" width="43" fill="#323232" font-weight="700" align="middle" anchor="middle" family="微软雅黑" size="20px" weight="700" font-style="" y="6" transform="rotate(0)"><tspan id="SvgjsTspan1036" dy="25" x="53.5"><tspan id="SvgjsTspan1037" style="text-decoration:;">[0, 0]</tspan></tspan></text></g></g><g id="SvgjsG1038" transform="translate(443,264)"><path id="SvgjsPath1039" d="M 0 0L 107 0L 107 43L 0 43Z" stroke="#323232" stroke-width="2" fill-opacity="1" fill="#99ff33"></path><g id="SvgjsG1040"><text id="SvgjsText1041" font-family="微软雅黑" text-anchor="middle" font-size="20px" width="43" fill="#323232" font-weight="700" align="middle" anchor="middle" family="微软雅黑" size="20px" weight="700" font-style="" y="6" transform="rotate(0)"><tspan id="SvgjsTspan1042" dy="25" x="53.5"><tspan id="SvgjsTspan1043" style="text-decoration:;">[3, 3]</tspan></tspan></text></g></g><g id="SvgjsG1044" transform="translate(303,264)"><path id="SvgjsPath1045" d="M 0 0L 107 0L 107 43L 0 43Z" stroke="#323232" stroke-width="2" fill-opacity="1" fill="#99ff33"></path><g id="SvgjsG1046"><text id="SvgjsText1047" font-family="微软雅黑" text-anchor="middle" font-size="20px" width="43" fill="#323232" font-weight="700" align="middle" anchor="middle" family="微软雅黑" size="20px" weight="700" font-style="" y="6" transform="rotate(0)"><tspan id="SvgjsTspan1048" dy="25" x="53.5"><tspan id="SvgjsTspan1049" style="text-decoration:;">[2, 2]</tspan></tspan></text></g></g><g id="SvgjsG1050"><path id="SvgjsPath1051" d="M297.5 101L157.5 162" stroke="#323232" stroke-width="2" fill="none" marker-end="url(#SvgjsMarker1052)"></path></g><g id="SvgjsG1054"><path id="SvgjsPath1055" d="M297.5 101L433.5 162" stroke="#323232" stroke-width="2" fill="none" marker-end="url(#SvgjsMarker1056)"></path></g><g id="SvgjsG1058"><path id="SvgjsPath1059" d="M157.5 205L78.5 264" stroke="#323232" stroke-width="2" fill="none" marker-end="url(#SvgjsMarker1060)"></path></g><g id="SvgjsG1062"><path id="SvgjsPath1063" d="M157.5 205L213.5 264" stroke="#323232" stroke-width="2" fill="none" marker-end="url(#SvgjsMarker1064)"></path></g><g id="SvgjsG1066"><path id="SvgjsPath1067" d="M433.5 205L356.5 264" stroke="#323232" stroke-width="2" fill="none" marker-end="url(#SvgjsMarker1068)"></path></g><g id="SvgjsG1070"><path id="SvgjsPath1071" d="M433.5 205L496.5 264" stroke="#323232" stroke-width="2" fill="none" marker-end="url(#SvgjsMarker1072)"></path></g><g id="SvgjsG1074" transform="translate(258,25)"><path id="SvgjsPath1075" d="M 0 0L 79 0L 79 30L 0 30Z" stroke="none" fill="none"></path><g id="SvgjsG1076"><text id="SvgjsText1077" font-family="微软雅黑" text-anchor="middle" font-size="20px" width="67" fill="#323232" font-weight="700" align="middle" anchor="middle" family="微软雅黑" size="20px" weight="700" font-style="italic" y="-0.5" transform="rotate(0)"><tspan id="SvgjsTspan1078" dy="25" x="39.5"><tspan id="SvgjsTspan1079" style="text-decoration:;">index=0</tspan></tspan></text></g></g><g id="SvgjsG1080" transform="translate(440.5,129)"><path id="SvgjsPath1081" d="M 0 0L 79 0L 79 30L 0 30Z" stroke="none" fill="none"></path><g id="SvgjsG1082"><text id="SvgjsText1083" font-family="微软雅黑" text-anchor="middle" font-size="20px" width="67" fill="#323232" font-weight="700" align="middle" anchor="middle" family="微软雅黑" size="20px" weight="700" font-style="italic" y="-0.5" transform="rotate(0)"><tspan id="SvgjsTspan1084" dy="25" x="39.5"><tspan id="SvgjsTspan1085" style="text-decoration:;">index=2</tspan></tspan></text></g></g><g id="SvgjsG1086" transform="translate(70.5,129)"><path id="SvgjsPath1087" d="M 0 0L 79 0L 79 30L 0 30Z" stroke="none" fill="none"></path><g id="SvgjsG1088"><text id="SvgjsText1089" font-family="微软雅黑" text-anchor="middle" font-size="20px" width="67" fill="#323232" font-weight="700" align="middle" anchor="middle" family="微软雅黑" size="20px" weight="700" font-style="italic" y="-0.5" transform="rotate(0)"><tspan id="SvgjsTspan1090" dy="25" x="39.5"><tspan id="SvgjsTspan1091" style="text-decoration:;">index=1</tspan></tspan></text></g></g><g id="SvgjsG1092" transform="translate(170.5,317)"><path id="SvgjsPath1093" d="M 0 0L 79 0L 79 30L 0 30Z" stroke="none" fill="none"></path><g id="SvgjsG1094"><text id="SvgjsText1095" font-family="微软雅黑" text-anchor="middle" font-size="20px" width="67" fill="#323232" font-weight="700" align="middle" anchor="middle" family="微软雅黑" size="20px" weight="700" font-style="italic" y="-0.5" transform="rotate(0)"><tspan id="SvgjsTspan1096" dy="25" x="39.5"><tspan id="SvgjsTspan1097" style="text-decoration:;">index=4</tspan></tspan></text></g></g><g id="SvgjsG1098" transform="translate(36.5,317)"><path id="SvgjsPath1099" d="M 0 0L 79 0L 79 30L 0 30Z" stroke="none" fill="none"></path><g id="SvgjsG1100"><text id="SvgjsText1101" font-family="微软雅黑" text-anchor="middle" font-size="20px" width="67" fill="#323232" font-weight="700" align="middle" anchor="middle" family="微软雅黑" size="20px" weight="700" font-style="italic" y="-0.5" transform="rotate(0)"><tspan id="SvgjsTspan1102" dy="25" x="39.5"><tspan id="SvgjsTspan1103" style="text-decoration:;">index=3</tspan></tspan></text></g></g><g id="SvgjsG1104" transform="translate(460.5,317)"><path id="SvgjsPath1105" d="M 0 0L 79 0L 79 30L 0 30Z" stroke="none" fill="none"></path><g id="SvgjsG1106"><text id="SvgjsText1107" font-family="微软雅黑" text-anchor="middle" font-size="20px" width="67" fill="#323232" font-weight="700" align="middle" anchor="middle" family="微软雅黑" size="20px" weight="700" font-style="italic" y="-0.5" transform="rotate(0)"><tspan id="SvgjsTspan1108" dy="25" x="39.5"><tspan id="SvgjsTspan1109" style="text-decoration:;">index=6</tspan></tspan></text></g></g><g id="SvgjsG1110" transform="translate(322.5,317)"><path id="SvgjsPath1111" d="M 0 0L 79 0L 79 30L 0 30Z" stroke="none" fill="none"></path><g id="SvgjsG1112"><text id="SvgjsText1113" font-family="微软雅黑" text-anchor="middle" font-size="20px" width="67" fill="#323232" font-weight="700" align="middle" anchor="middle" family="微软雅黑" size="20px" weight="700" font-style="italic" y="-0.5" transform="rotate(0)"><tspan id="SvgjsTspan1114" dy="25" x="39.5"><tspan id="SvgjsTspan1115" style="text-decoration:;">index=5</tspan></tspan></text></g></g></svg>