<svg id="SvgjsSvg1006" width="1508.25" height="673" xmlns="http://www.w3.org/2000/svg" version="1.1" xmlns:xlink="http://www.w3.org/1999/xlink" xmlns:svgjs="http://svgjs.com/svgjs"><defs id="SvgjsDefs1007"><marker id="SvgjsMarker1124" markerWidth="16" markerHeight="12" refX="16" refY="6" viewBox="0 0 16 12" orient="auto" markerUnits="userSpaceOnUse"><path id="SvgjsPath1125" d="M0,2 L14,6 L0,11 L0,2" fill="#323232" stroke="#323232" stroke-width="2"></path></marker><marker id="SvgjsMarker1128" markerWidth="16" markerHeight="12" refX="16" refY="6" viewBox="0 0 16 12" orient="auto" markerUnits="userSpaceOnUse"><path id="SvgjsPath1129" d="M0,2 L14,6 L0,11 L0,2" fill="#323232" stroke="#323232" stroke-width="2"></path></marker><marker id="SvgjsMarker1132" markerWidth="16" markerHeight="12" refX="16" refY="6" viewBox="0 0 16 12" orient="auto" markerUnits="userSpaceOnUse"><path id="SvgjsPath1133" d="M0,2 L14,6 L0,11 L0,2" fill="#323232" stroke="#323232" stroke-width="2"></path></marker><marker id="SvgjsMarker1136" markerWidth="16" markerHeight="12" refX="16" refY="6" viewBox="0 0 16 12" orient="auto" markerUnits="userSpaceOnUse"><path id="SvgjsPath1137" d="M0,2 L14,6 L0,11 L0,2" fill="#323232" stroke="#323232" stroke-width="2"></path></marker><marker id="SvgjsMarker1140" markerWidth="16" markerHeight="12" refX="16" refY="6" viewBox="0 0 16 12" orient="auto" markerUnits="userSpaceOnUse"><path id="SvgjsPath1141" d="M0,2 L14,6 L0,11 L0,2" fill="#323232" stroke="#323232" stroke-width="2"></path></marker><marker id="SvgjsMarker1144" markerWidth="16" markerHeight="12" refX="16" refY="6" viewBox="0 0 16 12" orient="auto" markerUnits="userSpaceOnUse"><path id="SvgjsPath1145" d="M0,2 L14,6 L0,11 L0,2" fill="#323232" stroke="#323232" stroke-width="2"></path></marker><marker id="SvgjsMarker1148" markerWidth="16" markerHeight="12" refX="16" refY="6" viewBox="0 0 16 12" orient="auto" markerUnits="userSpaceOnUse"><path id="SvgjsPath1149" d="M0,2 L14,6 L0,11 L0,2" fill="#323232" stroke="#323232" stroke-width="2"></path></marker><marker id="SvgjsMarker1152" markerWidth="16" markerHeight="12" refX="16" refY="6" viewBox="0 0 16 12" orient="auto" markerUnits="userSpaceOnUse"><path id="SvgjsPath1153" d="M0,2 L14,6 L0,11 L0,2" fill="#323232" stroke="#323232" stroke-width="2"></path></marker><marker id="SvgjsMarker1156" markerWidth="16" markerHeight="12" refX="16" refY="6" viewBox="0 0 16 12" orient="auto" markerUnits="userSpaceOnUse"><path id="SvgjsPath1157" d="M0,2 L14,6 L0,11 L0,2" fill="#323232" stroke="#323232" stroke-width="2"></path></marker><marker id="SvgjsMarker1160" markerWidth="16" markerHeight="12" refX="16" refY="6" viewBox="0 0 16 12" orient="auto" markerUnits="userSpaceOnUse"><path id="SvgjsPath1161" d="M0,2 L14,6 L0,11 L0,2" fill="#323232" stroke="#323232" stroke-width="2"></path></marker><marker id="SvgjsMarker1164" markerWidth="16" markerHeight="12" refX="16" refY="6" viewBox="0 0 16 12" orient="auto" markerUnits="userSpaceOnUse"><path id="SvgjsPath1165" d="M0,2 L14,6 L0,11 L0,2" fill="#323232" stroke="#323232" stroke-width="2"></path></marker><marker id="SvgjsMarker1168" markerWidth="16" markerHeight="12" refX="16" refY="6" viewBox="0 0 16 12" orient="auto" markerUnits="userSpaceOnUse"><path id="SvgjsPath1169" d="M0,2 L14,6 L0,11 L0,2" fill="#323232" stroke="#323232" stroke-width="2"></path></marker><marker id="SvgjsMarker1172" markerWidth="16" markerHeight="12" refX="16" refY="6" viewBox="0 0 16 12" orient="auto" markerUnits="userSpaceOnUse"><path id="SvgjsPath1173" d="M0,2 L14,6 L0,11 L0,2" fill="#323232" stroke="#323232" stroke-width="2"></path></marker><marker id="SvgjsMarker1176" markerWidth="16" markerHeight="12" refX="16" refY="6" viewBox="0 0 16 12" orient="auto" markerUnits="userSpaceOnUse"><path id="SvgjsPath1177" d="M0,2 L14,6 L0,11 L0,2" fill="#323232" stroke="#323232" stroke-width="2"></path></marker><marker id="SvgjsMarker1180" markerWidth="16" markerHeight="12" refX="16" refY="6" viewBox="0 0 16 12" orient="auto" markerUnits="userSpaceOnUse"><path id="SvgjsPath1181" d="M0,2 L14,6 L0,11 L0,2" fill="#323232" stroke="#323232" stroke-width="2"></path></marker><marker id="SvgjsMarker1184" markerWidth="16" markerHeight="12" refX="16" refY="6" viewBox="0 0 16 12" orient="auto" markerUnits="userSpaceOnUse"><path id="SvgjsPath1185" d="M0,2 L14,6 L0,11 L0,2" fill="#323232" stroke="#323232" stroke-width="2"></path></marker><marker id="SvgjsMarker1188" markerWidth="16" markerHeight="12" refX="16" refY="6" viewBox="0 0 16 12" orient="auto" markerUnits="userSpaceOnUse"><path id="SvgjsPath1189" d="M0,2 L14,6 L0,11 L0,2" fill="#323232" stroke="#323232" stroke-width="2"></path></marker><marker id="SvgjsMarker1192" markerWidth="16" markerHeight="12" refX="16" refY="6" viewBox="0 0 16 12" orient="auto" markerUnits="userSpaceOnUse"><path id="SvgjsPath1193" d="M0,2 L14,6 L0,11 L0,2" fill="#323232" stroke="#323232" stroke-width="2"></path></marker><marker id="SvgjsMarker1454" markerWidth="16" markerHeight="12" refX="16" refY="6" viewBox="0 0 16 12" orient="auto" markerUnits="userSpaceOnUse"><path id="SvgjsPath1455" d="M0,2 L14,6 L0,11 L0,2" fill="#323232" stroke="#323232" stroke-width="2"></path></marker><marker id="SvgjsMarker1458" markerWidth="16" markerHeight="12" refX="16" refY="6" viewBox="0 0 16 12" orient="auto" markerUnits="userSpaceOnUse"><path id="SvgjsPath1459" d="M0,2 L14,6 L0,11 L0,2" fill="#323232" stroke="#323232" stroke-width="2"></path></marker><marker id="SvgjsMarker1462" markerWidth="16" markerHeight="12" refX="16" refY="6" viewBox="0 0 16 12" orient="auto" markerUnits="userSpaceOnUse"><path id="SvgjsPath1463" d="M0,2 L14,6 L0,11 L0,2" fill="#323232" stroke="#323232" stroke-width="2"></path></marker><marker id="SvgjsMarker1466" markerWidth="16" markerHeight="12" refX="16" refY="6" viewBox="0 0 16 12" orient="auto" markerUnits="userSpaceOnUse"><path id="SvgjsPath1467" d="M0,2 L14,6 L0,11 L0,2" fill="#323232" stroke="#323232" stroke-width="2"></path></marker><marker id="SvgjsMarker1470" markerWidth="16" markerHeight="12" refX="16" refY="6" viewBox="0 0 16 12" orient="auto" markerUnits="userSpaceOnUse"><path id="SvgjsPath1471" d="M0,2 L14,6 L0,11 L0,2" fill="#323232" stroke="#323232" stroke-width="2"></path></marker><marker id="SvgjsMarker1474" markerWidth="16" markerHeight="12" refX="16" refY="6" viewBox="0 0 16 12" orient="auto" markerUnits="userSpaceOnUse"><path id="SvgjsPath1475" d="M0,2 L14,6 L0,11 L0,2" fill="#323232" stroke="#323232" stroke-width="2"></path></marker><marker id="SvgjsMarker1478" markerWidth="16" markerHeight="12" refX="16" refY="6" viewBox="0 0 16 12" orient="auto" markerUnits="userSpaceOnUse"><path id="SvgjsPath1479" d="M0,2 L14,6 L0,11 L0,2" fill="#323232" stroke="#323232" stroke-width="2"></path></marker><marker id="SvgjsMarker1482" markerWidth="16" markerHeight="12" refX="16" refY="6" viewBox="0 0 16 12" orient="auto" markerUnits="userSpaceOnUse"><path id="SvgjsPath1483" d="M0,2 L14,6 L0,11 L0,2" fill="#323232" stroke="#323232" stroke-width="2"></path></marker><marker id="SvgjsMarker1486" markerWidth="16" markerHeight="12" refX="16" refY="6" viewBox="0 0 16 12" orient="auto" markerUnits="userSpaceOnUse"><path id="SvgjsPath1487" d="M0,2 L14,6 L0,11 L0,2" fill="#323232" stroke="#323232" stroke-width="2"></path></marker><marker id="SvgjsMarker1490" markerWidth="16" markerHeight="12" refX="16" refY="6" viewBox="0 0 16 12" orient="auto" markerUnits="userSpaceOnUse"><path id="SvgjsPath1491" d="M0,2 L14,6 L0,11 L0,2" fill="#323232" stroke="#323232" stroke-width="2"></path></marker><marker id="SvgjsMarker1494" markerWidth="16" markerHeight="12" refX="16" refY="6" viewBox="0 0 16 12" orient="auto" markerUnits="userSpaceOnUse"><path id="SvgjsPath1495" d="M0,2 L14,6 L0,11 L0,2" fill="#323232" stroke="#323232" stroke-width="2"></path></marker><marker id="SvgjsMarker1498" markerWidth="16" markerHeight="12" refX="16" refY="6" viewBox="0 0 16 12" orient="auto" markerUnits="userSpaceOnUse"><path id="SvgjsPath1499" d="M0,2 L14,6 L0,11 L0,2" fill="#323232" stroke="#323232" stroke-width="2"></path></marker></defs><g id="SvgjsG1008" transform="translate(695,55)"><path id="SvgjsPath1009" d="M 0 0L 142 0L 142 40L 0 40Z" stroke="#323232" stroke-width="2" fill-opacity="1" fill="#ffffff"></path><g id="SvgjsG1010"><text id="SvgjsText1011" font-family="微软雅黑" text-anchor="middle" font-size="18px" width="39" fill="#323232" font-weight="700" align="middle" anchor="middle" family="微软雅黑" size="18px" weight="700" font-style="" y="5.800000000000001" transform="rotate(0)"><tspan id="SvgjsTspan1012" dy="22" x="71"><tspan id="SvgjsTspan1013" style="text-decoration:;">[0, 9]</tspan></tspan></text></g></g><g id="SvgjsG1014" transform="translate(351,192)"><path id="SvgjsPath1015" d="M 0 0L 142 0L 142 40L 0 40Z" stroke="#323232" stroke-width="2" fill-opacity="1" fill="#ffffff"></path><g id="SvgjsG1016"><text id="SvgjsText1017" font-family="微软雅黑" text-anchor="middle" font-size="18px" width="39" fill="#323232" font-weight="700" align="middle" anchor="middle" family="微软雅黑" size="18px" weight="700" font-style="" y="5.800000000000001" transform="rotate(0)"><tspan id="SvgjsTspan1018" dy="22" x="71"><tspan id="SvgjsTspan1019" style="text-decoration:;">[0, 4]</tspan></tspan></text></g></g><g id="SvgjsG1020" transform="translate(1034,192)"><path id="SvgjsPath1021" d="M 0 0L 142 0L 142 40L 0 40Z" stroke="#323232" stroke-width="2" fill-opacity="1" fill="#ffffff"></path><g id="SvgjsG1022"><text id="SvgjsText1023" font-family="微软雅黑" text-anchor="middle" font-size="18px" width="39" fill="#323232" font-weight="700" align="middle" anchor="middle" family="微软雅黑" size="18px" weight="700" font-style="" y="5.800000000000001" transform="rotate(0)"><tspan id="SvgjsTspan1024" dy="22" x="71"><tspan id="SvgjsTspan1025" style="text-decoration:;">[5, 9]</tspan></tspan></text></g></g><g id="SvgjsG1026" transform="translate(203,296)"><path id="SvgjsPath1027" d="M 0 0L 142 0L 142 40L 0 40Z" stroke="#323232" stroke-width="2" fill-opacity="1" fill="#ffffff"></path><g id="SvgjsG1028"><text id="SvgjsText1029" font-family="微软雅黑" text-anchor="middle" font-size="18px" width="39" fill="#323232" font-weight="700" align="middle" anchor="middle" family="微软雅黑" size="18px" weight="700" font-style="" y="5.800000000000001" transform="rotate(0)"><tspan id="SvgjsTspan1030" dy="22" x="71"><tspan id="SvgjsTspan1031" style="text-decoration:;">[0, 2]</tspan></tspan></text></g></g><g id="SvgjsG1032" transform="translate(506,296)"><path id="SvgjsPath1033" d="M 0 0L 142 0L 142 40L 0 40Z" stroke="#323232" stroke-width="2" fill-opacity="1" fill="#ffffff"></path><g id="SvgjsG1034"><text id="SvgjsText1035" font-family="微软雅黑" text-anchor="middle" font-size="18px" width="39" fill="#323232" font-weight="700" align="middle" anchor="middle" family="微软雅黑" size="18px" weight="700" font-style="" y="5.800000000000001" transform="rotate(0)"><tspan id="SvgjsTspan1036" dy="22" x="71"><tspan id="SvgjsTspan1037" style="text-decoration:;">[3, 4]</tspan></tspan></text></g></g><g id="SvgjsG1038" transform="translate(104,403)"><path id="SvgjsPath1039" d="M 0 0L 142 0L 142 40L 0 40Z" stroke="#323232" stroke-width="2" fill-opacity="1" fill="#ffffff"></path><g id="SvgjsG1040"><text id="SvgjsText1041" font-family="微软雅黑" text-anchor="middle" font-size="18px" width="39" fill="#323232" font-weight="700" align="middle" anchor="middle" family="微软雅黑" size="18px" weight="700" font-style="" y="5.800000000000001" transform="rotate(0)"><tspan id="SvgjsTspan1042" dy="22" x="71"><tspan id="SvgjsTspan1043" style="text-decoration:;">[0, 1]</tspan></tspan></text></g></g><g id="SvgjsG1044" transform="translate(274,403)"><path id="SvgjsPath1045" d="M 0 0L 142 0L 142 40L 0 40Z" stroke="#323232" stroke-width="2" fill-opacity="1" fill="#b3ff66"></path><g id="SvgjsG1046"><text id="SvgjsText1047" font-family="微软雅黑" text-anchor="middle" font-size="18px" width="39" fill="#323232" font-weight="700" align="middle" anchor="middle" family="微软雅黑" size="18px" weight="700" font-style="" y="5.800000000000001" transform="rotate(0)"><tspan id="SvgjsTspan1048" dy="22" x="71"><tspan id="SvgjsTspan1049" style="text-decoration:;">[2, 2]</tspan></tspan></text></g></g><g id="SvgjsG1050" transform="translate(190,500)"><path id="SvgjsPath1051" d="M 0 0L 142 0L 142 40L 0 40Z" stroke="#323232" stroke-width="2" fill-opacity="1" fill="#b3ff66"></path><g id="SvgjsG1052"><text id="SvgjsText1053" font-family="微软雅黑" text-anchor="middle" font-size="18px" width="39" fill="#323232" font-weight="700" align="middle" anchor="middle" family="微软雅黑" size="18px" weight="700" font-style="" y="5.800000000000001" transform="rotate(0)"><tspan id="SvgjsTspan1054" dy="22" x="71"><tspan id="SvgjsTspan1055" style="text-decoration:;">[1, 1]</tspan></tspan></text></g></g><g id="SvgjsG1056" transform="translate(25,497)"><path id="SvgjsPath1057" d="M 0 0L 142 0L 142 40L 0 40Z" stroke="#323232" stroke-width="2" fill-opacity="1" fill="#b3ff66"></path><g id="SvgjsG1058"><text id="SvgjsText1059" font-family="微软雅黑" text-anchor="middle" font-size="18px" width="39" fill="#323232" font-weight="700" align="middle" anchor="middle" family="微软雅黑" size="18px" weight="700" font-style="" y="5.800000000000001" transform="rotate(0)"><tspan id="SvgjsTspan1060" dy="22" x="71"><tspan id="SvgjsTspan1061" style="text-decoration:;">[0, 0]</tspan></tspan></text></g></g><g id="SvgjsG1062" transform="translate(434,403)"><path id="SvgjsPath1063" d="M 0 0L 142 0L 142 40L 0 40Z" stroke="#323232" stroke-width="2" fill-opacity="1" fill="#b3ff66"></path><g id="SvgjsG1064"><text id="SvgjsText1065" font-family="微软雅黑" text-anchor="middle" font-size="18px" width="39" fill="#323232" font-weight="700" align="middle" anchor="middle" family="微软雅黑" size="18px" weight="700" font-style="" y="5.800000000000001" transform="rotate(0)"><tspan id="SvgjsTspan1066" dy="22" x="71"><tspan id="SvgjsTspan1067" style="text-decoration:;">[3, 3]</tspan></tspan></text></g></g><g id="SvgjsG1068" transform="translate(597,403)"><path id="SvgjsPath1069" d="M 0 0L 142 0L 142 40L 0 40Z" stroke="#323232" stroke-width="2" fill-opacity="1" fill="#b3ff66"></path><g id="SvgjsG1070"><text id="SvgjsText1071" font-family="微软雅黑" text-anchor="middle" font-size="18px" width="39" fill="#323232" font-weight="700" align="middle" anchor="middle" family="微软雅黑" size="18px" weight="700" font-style="" y="5.800000000000001" transform="rotate(0)"><tspan id="SvgjsTspan1072" dy="22" x="71"><tspan id="SvgjsTspan1073" style="text-decoration:;">[4, 4]</tspan></tspan></text></g></g><g id="SvgjsG1074" transform="translate(1193,296)"><path id="SvgjsPath1075" d="M 0 0L 142 0L 142 40L 0 40Z" stroke="#323232" stroke-width="2" fill-opacity="1" fill="#ffffff"></path><g id="SvgjsG1076"><text id="SvgjsText1077" font-family="微软雅黑" text-anchor="middle" font-size="18px" width="39" fill="#323232" font-weight="700" align="middle" anchor="middle" family="微软雅黑" size="18px" weight="700" font-style="" y="5.800000000000001" transform="rotate(0)"><tspan id="SvgjsTspan1078" dy="22" x="71"><tspan id="SvgjsTspan1079" style="text-decoration:;">[8, 9]</tspan></tspan></text></g></g><g id="SvgjsG1080" transform="translate(862,296)"><path id="SvgjsPath1081" d="M 0 0L 142 0L 142 40L 0 40Z" stroke="#323232" stroke-width="2" fill-opacity="1" fill="#ffffff"></path><g id="SvgjsG1082"><text id="SvgjsText1083" font-family="微软雅黑" text-anchor="middle" font-size="18px" width="39" fill="#323232" font-weight="700" align="middle" anchor="middle" family="微软雅黑" size="18px" weight="700" font-style="" y="5.800000000000001" transform="rotate(0)"><tspan id="SvgjsTspan1084" dy="22" x="71"><tspan id="SvgjsTspan1085" style="text-decoration:;">[5, 7]</tspan></tspan></text></g></g><g id="SvgjsG1086" transform="translate(950,399)"><path id="SvgjsPath1087" d="M 0 0L 142 0L 142 40L 0 40Z" stroke="#323232" stroke-width="2" fill-opacity="1" fill="#b3ff66"></path><g id="SvgjsG1088"><text id="SvgjsText1089" font-family="微软雅黑" text-anchor="middle" font-size="18px" width="39" fill="#323232" font-weight="700" align="middle" anchor="middle" family="微软雅黑" size="18px" weight="700" font-style="" y="5.800000000000001" transform="rotate(0)"><tspan id="SvgjsTspan1090" dy="22" x="71"><tspan id="SvgjsTspan1091" style="text-decoration:;">[7, 7]</tspan></tspan></text></g></g><g id="SvgjsG1092" transform="translate(785,399)"><path id="SvgjsPath1093" d="M 0 0L 142 0L 142 40L 0 40Z" stroke="#323232" stroke-width="2" fill-opacity="1" fill="#ffffff"></path><g id="SvgjsG1094"><text id="SvgjsText1095" font-family="微软雅黑" text-anchor="middle" font-size="18px" width="39" fill="#323232" font-weight="700" align="middle" anchor="middle" family="微软雅黑" size="18px" weight="700" font-style="" y="5.800000000000001" transform="rotate(0)"><tspan id="SvgjsTspan1096" dy="22" x="71"><tspan id="SvgjsTspan1097" style="text-decoration:;">[5, 6]</tspan></tspan></text></g></g><g id="SvgjsG1098" transform="translate(858,494)"><path id="SvgjsPath1099" d="M 0 0L 142 0L 142 40L 0 40Z" stroke="#323232" stroke-width="2" fill-opacity="1" fill="#b3ff66"></path><g id="SvgjsG1100"><text id="SvgjsText1101" font-family="微软雅黑" text-anchor="middle" font-size="18px" width="39" fill="#323232" font-weight="700" align="middle" anchor="middle" family="微软雅黑" size="18px" weight="700" font-style="" y="5.800000000000001" transform="rotate(0)"><tspan id="SvgjsTspan1102" dy="22" x="71"><tspan id="SvgjsTspan1103" style="text-decoration:;">[6, 6]</tspan></tspan></text></g></g><g id="SvgjsG1104" transform="translate(695,494)"><path id="SvgjsPath1105" d="M 0 0L 142 0L 142 40L 0 40Z" stroke="#323232" stroke-width="2" fill-opacity="1" fill="#b3ff66"></path><g id="SvgjsG1106"><text id="SvgjsText1107" font-family="微软雅黑" text-anchor="middle" font-size="18px" width="39" fill="#323232" font-weight="700" align="middle" anchor="middle" family="微软雅黑" size="18px" weight="700" font-style="" y="5.800000000000001" transform="rotate(0)"><tspan id="SvgjsTspan1108" dy="22" x="71"><tspan id="SvgjsTspan1109" style="text-decoration:;">[5, 5]</tspan></tspan></text></g></g><g id="SvgjsG1110" transform="translate(1275,399)"><path id="SvgjsPath1111" d="M 0 0L 142 0L 142 40L 0 40Z" stroke="#323232" stroke-width="2" fill-opacity="1" fill="#b3ff66"></path><g id="SvgjsG1112"><text id="SvgjsText1113" font-family="微软雅黑" text-anchor="middle" font-size="18px" width="39" fill="#323232" font-weight="700" align="middle" anchor="middle" family="微软雅黑" size="18px" weight="700" font-style="" y="5.800000000000001" transform="rotate(0)"><tspan id="SvgjsTspan1114" dy="22" x="71"><tspan id="SvgjsTspan1115" style="text-decoration:;">[9, 9]</tspan></tspan></text></g></g><g id="SvgjsG1116" transform="translate(1114,399)"><path id="SvgjsPath1117" d="M 0 0L 142 0L 142 40L 0 40Z" stroke="#323232" stroke-width="2" fill-opacity="1" fill="#b3ff66"></path><g id="SvgjsG1118"><text id="SvgjsText1119" font-family="微软雅黑" text-anchor="middle" font-size="18px" width="39" fill="#323232" font-weight="700" align="middle" anchor="middle" family="微软雅黑" size="18px" weight="700" font-style="" y="5.800000000000001" transform="rotate(0)"><tspan id="SvgjsTspan1120" dy="22" x="71"><tspan id="SvgjsTspan1121" style="text-decoration:;">[8, 8]</tspan></tspan></text></g></g><g id="SvgjsG1122"><path id="SvgjsPath1123" d="M766 95C 628 131 551 154 422 192" stroke="#323232" stroke-width="2" fill="none" marker-end="url(#SvgjsMarker1124)"></path></g><g id="SvgjsG1126"><path id="SvgjsPath1127" d="M766 95L1105 192" stroke="#323232" stroke-width="2" fill="none" marker-end="url(#SvgjsMarker1128)"></path></g><g id="SvgjsG1130"><path id="SvgjsPath1131" d="M422 232L274 296" stroke="#323232" stroke-width="2" fill="none" marker-end="url(#SvgjsMarker1132)"></path></g><g id="SvgjsG1134"><path id="SvgjsPath1135" d="M422 232L577 296" stroke="#323232" stroke-width="2" fill="none" marker-end="url(#SvgjsMarker1136)"></path></g><g id="SvgjsG1138"><path id="SvgjsPath1139" d="M274 336L175 403" stroke="#323232" stroke-width="2" fill="none" marker-end="url(#SvgjsMarker1140)"></path></g><g id="SvgjsG1142"><path id="SvgjsPath1143" d="M274 336L345 403" stroke="#323232" stroke-width="2" fill="none" marker-end="url(#SvgjsMarker1144)"></path></g><g id="SvgjsG1146"><path id="SvgjsPath1147" d="M175 443L96 497" stroke="#323232" stroke-width="2" fill="none" marker-end="url(#SvgjsMarker1148)"></path></g><g id="SvgjsG1150"><path id="SvgjsPath1151" d="M175 443L261 500" stroke="#323232" stroke-width="2" fill="none" marker-end="url(#SvgjsMarker1152)"></path></g><g id="SvgjsG1154"><path id="SvgjsPath1155" d="M577 336L505 403" stroke="#323232" stroke-width="2" fill="none" marker-end="url(#SvgjsMarker1156)"></path></g><g id="SvgjsG1158"><path id="SvgjsPath1159" d="M577 336L668 403" stroke="#323232" stroke-width="2" fill="none" marker-end="url(#SvgjsMarker1160)"></path></g><g id="SvgjsG1162"><path id="SvgjsPath1163" d="M1105 232L933 296" stroke="#323232" stroke-width="2" fill="none" marker-end="url(#SvgjsMarker1164)"></path></g><g id="SvgjsG1166"><path id="SvgjsPath1167" d="M1105 232L1264 296" stroke="#323232" stroke-width="2" fill="none" marker-end="url(#SvgjsMarker1168)"></path></g><g id="SvgjsG1170"><path id="SvgjsPath1171" d="M933 336L856 399" stroke="#323232" stroke-width="2" fill="none" marker-end="url(#SvgjsMarker1172)"></path></g><g id="SvgjsG1174"><path id="SvgjsPath1175" d="M933 336L1021 399" stroke="#323232" stroke-width="2" fill="none" marker-end="url(#SvgjsMarker1176)"></path></g><g id="SvgjsG1178"><path id="SvgjsPath1179" d="M1264 336L1185 399" stroke="#323232" stroke-width="2" fill="none" marker-end="url(#SvgjsMarker1180)"></path></g><g id="SvgjsG1182"><path id="SvgjsPath1183" d="M1264 336L1346 399" stroke="#323232" stroke-width="2" fill="none" marker-end="url(#SvgjsMarker1184)"></path></g><g id="SvgjsG1186"><path id="SvgjsPath1187" d="M856 439L766 494" stroke="#323232" stroke-width="2" fill="none" marker-end="url(#SvgjsMarker1188)"></path></g><g id="SvgjsG1190"><path id="SvgjsPath1191" d="M856 439L929 494" stroke="#323232" stroke-width="2" fill="none" marker-end="url(#SvgjsMarker1192)"></path></g><g id="SvgjsG1194" transform="translate(692,25)"><path id="SvgjsPath1195" d="M 0 0L 79 0L 79 30L 0 30Z" stroke="none" fill="none"></path><g id="SvgjsG1196"><text id="SvgjsText1197" font-family="微软雅黑" text-anchor="middle" font-size="21px" width="70" fill="#323232" font-weight="400" align="middle" anchor="middle" family="微软雅黑" size="21px" weight="400" font-style="italic" y="-1.15" transform="rotate(0)"><tspan id="SvgjsTspan1198" dy="26" x="39.5"><tspan id="SvgjsTspan1199" style="text-decoration:;">index=0</tspan></tspan></text></g></g><g id="SvgjsG1200" transform="translate(846,263)"><path id="SvgjsPath1201" d="M 0 0L 79 0L 79 30L 0 30Z" stroke="none" fill="none"></path><g id="SvgjsG1202"><text id="SvgjsText1203" font-family="微软雅黑" text-anchor="middle" font-size="21px" width="70" fill="#323232" font-weight="400" align="middle" anchor="middle" family="微软雅黑" size="21px" weight="400" font-style="italic" y="-1.15" transform="rotate(0)"><tspan id="SvgjsTspan1204" dy="26" x="39.5"><tspan id="SvgjsTspan1205" style="text-decoration:;">index=5</tspan></tspan></text></g></g><g id="SvgjsG1206" transform="translate(576,255)"><path id="SvgjsPath1207" d="M 0 0L 79 0L 79 30L 0 30Z" stroke="none" fill="none"></path><g id="SvgjsG1208"><text id="SvgjsText1209" font-family="微软雅黑" text-anchor="middle" font-size="21px" width="70" fill="#323232" font-weight="400" align="middle" anchor="middle" family="微软雅黑" size="21px" weight="400" font-style="italic" y="-1.15" transform="rotate(0)"><tspan id="SvgjsTspan1210" dy="26" x="39.5"><tspan id="SvgjsTspan1211" style="text-decoration:;">index=4</tspan></tspan></text></g></g><g id="SvgjsG1212" transform="translate(190,258)"><path id="SvgjsPath1213" d="M 0 0L 79 0L 79 30L 0 30Z" stroke="none" fill="none"></path><g id="SvgjsG1214"><text id="SvgjsText1215" font-family="微软雅黑" text-anchor="middle" font-size="21px" width="70" fill="#323232" font-weight="400" align="middle" anchor="middle" family="微软雅黑" size="21px" weight="400" font-style="italic" y="-1.15" transform="rotate(0)"><tspan id="SvgjsTspan1216" dy="26" x="39.5"><tspan id="SvgjsTspan1217" style="text-decoration:;">index=3</tspan></tspan></text></g></g><g id="SvgjsG1218" transform="translate(1122,153)"><path id="SvgjsPath1219" d="M 0 0L 79 0L 79 30L 0 30Z" stroke="none" fill="none"></path><g id="SvgjsG1220"><text id="SvgjsText1221" font-family="微软雅黑" text-anchor="middle" font-size="21px" width="70" fill="#323232" font-weight="400" align="middle" anchor="middle" family="微软雅黑" size="21px" weight="400" font-style="italic" y="-1.15" transform="rotate(0)"><tspan id="SvgjsTspan1222" dy="26" x="39.5"><tspan id="SvgjsTspan1223" style="text-decoration:;">index=2</tspan></tspan></text></g></g><g id="SvgjsG1224" transform="translate(337,162)"><path id="SvgjsPath1225" d="M 0 0L 79 0L 79 30L 0 30Z" stroke="none" fill="none"></path><g id="SvgjsG1226"><text id="SvgjsText1227" font-family="微软雅黑" text-anchor="middle" font-size="21px" width="70" fill="#323232" font-weight="400" align="middle" anchor="middle" family="微软雅黑" size="21px" weight="400" font-style="italic" y="-1.15" transform="rotate(0)"><tspan id="SvgjsTspan1228" dy="26" x="39.5"><tspan id="SvgjsTspan1229" style="text-decoration:;">index=1</tspan></tspan></text></g></g><g id="SvgjsG1230" transform="translate(209.5,549)"><path id="SvgjsPath1231" d="M 0 0L 90.5 0L 90.5 20L 0 20Z" stroke="none" fill="none"></path><g id="SvgjsG1232"><text id="SvgjsText1233" font-family="微软雅黑" text-anchor="middle" font-size="21px" width="81" fill="#323232" font-weight="400" align="middle" anchor="middle" family="微软雅黑" size="21px" weight="400" font-style="italic" y="-6.15" transform="rotate(0)"><tspan id="SvgjsTspan1234" dy="26" x="45.5"><tspan id="SvgjsTspan1235" style="text-decoration:;">index=16</tspan></tspan></text></g></g><g id="SvgjsG1236" transform="translate(1356,364)"><path id="SvgjsPath1237" d="M 0 0L 88 0L 88 25L 0 25Z" stroke="none" fill="none"></path><g id="SvgjsG1238"><text id="SvgjsText1239" font-family="微软雅黑" text-anchor="middle" font-size="21px" width="81" fill="#323232" font-weight="400" align="middle" anchor="middle" family="微软雅黑" size="21px" weight="400" font-style="italic" y="-3.65" transform="rotate(0)"><tspan id="SvgjsTspan1240" dy="26" x="44"><tspan id="SvgjsTspan1241" style="text-decoration:;">index=14</tspan></tspan></text></g></g><g id="SvgjsG1242" transform="translate(36,544)"><path id="SvgjsPath1243" d="M 0 0L 82 0L 82 25L 0 25Z" stroke="none" fill="none"></path><g id="SvgjsG1244"><text id="SvgjsText1245" font-family="微软雅黑" text-anchor="middle" font-size="21px" width="81" fill="#323232" font-weight="400" align="middle" anchor="middle" family="微软雅黑" size="21px" weight="400" font-style="italic" y="-3.65" transform="rotate(0)"><tspan id="SvgjsTspan1246" dy="26" x="41"><tspan id="SvgjsTspan1247" style="text-decoration:;">index=15</tspan></tspan></text></g></g><g id="SvgjsG1248" transform="translate(95,369)"><path id="SvgjsPath1249" d="M 0 0L 79 0L 79 30L 0 30Z" stroke="none" fill="none"></path><g id="SvgjsG1250"><text id="SvgjsText1251" font-family="微软雅黑" text-anchor="middle" font-size="21px" width="70" fill="#323232" font-weight="400" align="middle" anchor="middle" family="微软雅黑" size="21px" weight="400" font-style="italic" y="-1.15" transform="rotate(0)"><tspan id="SvgjsTspan1252" dy="26" x="39.5"><tspan id="SvgjsTspan1253" style="text-decoration:;">index=7</tspan></tspan></text></g></g><g id="SvgjsG1254" transform="translate(1290,258)"><path id="SvgjsPath1255" d="M 0 0L 79 0L 79 30L 0 30Z" stroke="none" fill="none"></path><g id="SvgjsG1256"><text id="SvgjsText1257" font-family="微软雅黑" text-anchor="middle" font-size="21px" width="70" fill="#323232" font-weight="400" align="middle" anchor="middle" family="微软雅黑" size="21px" weight="400" font-style="italic" y="-1.15" transform="rotate(0)"><tspan id="SvgjsTspan1258" dy="26" x="39.5"><tspan id="SvgjsTspan1259" style="text-decoration:;">index=6</tspan></tspan></text></g></g><g id="SvgjsG1260" transform="translate(345,369)"><path id="SvgjsPath1261" d="M 0 0L 79 0L 79 30L 0 30Z" stroke="none" fill="none"></path><g id="SvgjsG1262"><text id="SvgjsText1263" font-family="微软雅黑" text-anchor="middle" font-size="21px" width="70" fill="#323232" font-weight="400" align="middle" anchor="middle" family="微软雅黑" size="21px" weight="400" font-style="italic" y="-1.15" transform="rotate(0)"><tspan id="SvgjsTspan1264" dy="26" x="39.5"><tspan id="SvgjsTspan1265" style="text-decoration:;">index=8</tspan></tspan></text></g></g><g id="SvgjsG1266" transform="translate(1111,364)"><path id="SvgjsPath1267" d="M 0 0L 90 0L 90 30L 0 30Z" stroke="none" fill="none"></path><g id="SvgjsG1268"><text id="SvgjsText1269" font-family="微软雅黑" text-anchor="middle" font-size="21px" width="81" fill="#323232" font-weight="400" align="middle" anchor="middle" family="微软雅黑" size="21px" weight="400" font-style="italic" y="-1.15" transform="rotate(0)"><tspan id="SvgjsTspan1270" dy="26" x="45"><tspan id="SvgjsTspan1271" style="text-decoration:;">index=13</tspan></tspan></text></g></g><g id="SvgjsG1272" transform="translate(1019.5,364)"><path id="SvgjsPath1273" d="M 0 0L 83.5 0L 83.5 30L 0 30Z" stroke="none" fill="none"></path><g id="SvgjsG1274"><text id="SvgjsText1275" font-family="微软雅黑" text-anchor="middle" font-size="21px" width="81" fill="#323232" font-weight="400" align="middle" anchor="middle" family="微软雅黑" size="21px" weight="400" font-style="italic" y="-1.15" transform="rotate(0)"><tspan id="SvgjsTspan1276" dy="26" x="42"><tspan id="SvgjsTspan1277" style="text-decoration:;">index=12</tspan></tspan></text></g></g><g id="SvgjsG1278" transform="translate(664.5,369)"><path id="SvgjsPath1279" d="M 0 0L 88.5 0L 88.5 20L 0 20Z" stroke="none" fill="none"></path><g id="SvgjsG1280"><text id="SvgjsText1281" font-family="微软雅黑" text-anchor="middle" font-size="21px" width="81" fill="#323232" font-weight="400" align="middle" anchor="middle" family="微软雅黑" size="21px" weight="400" font-style="italic" y="-6.15" transform="rotate(0)"><tspan id="SvgjsTspan1282" dy="26" x="44.5"><tspan id="SvgjsTspan1283" style="text-decoration:;">index=10</tspan></tspan></text></g></g><g id="SvgjsG1284" transform="translate(437.5,369)"><path id="SvgjsPath1285" d="M 0 0L 79 0L 79 30L 0 30Z" stroke="none" fill="none"></path><g id="SvgjsG1286"><text id="SvgjsText1287" font-family="微软雅黑" text-anchor="middle" font-size="21px" width="70" fill="#323232" font-weight="400" align="middle" anchor="middle" family="微软雅黑" size="21px" weight="400" font-style="italic" y="-1.15" transform="rotate(0)"><tspan id="SvgjsTspan1288" dy="26" x="39.5"><tspan id="SvgjsTspan1289" style="text-decoration:;">index=9</tspan></tspan></text></g></g><g id="SvgjsG1290" transform="translate(774.5,364)"><path id="SvgjsPath1291" d="M 0 0L 83.5 0L 83.5 25L 0 25Z" stroke="none" fill="none"></path><g id="SvgjsG1292"><text id="SvgjsText1293" font-family="微软雅黑" text-anchor="middle" font-size="21px" width="79" fill="#323232" font-weight="400" align="middle" anchor="middle" family="微软雅黑" size="21px" weight="400" font-style="italic" y="-3.65" transform="rotate(0)"><tspan id="SvgjsTspan1294" dy="26" x="42"><tspan id="SvgjsTspan1295" style="text-decoration:;">index=11</tspan></tspan></text></g></g><g id="SvgjsG1296" transform="translate(925,464)"><path id="SvgjsPath1297" d="M 0 0L 87 0L 87 23L 0 23Z" stroke="none" fill="none"></path><g id="SvgjsG1298"><text id="SvgjsText1299" font-family="微软雅黑" text-anchor="middle" font-size="21px" width="81" fill="#323232" font-weight="400" align="middle" anchor="middle" family="微软雅黑" size="21px" weight="400" font-style="italic" y="-4.65" transform="rotate(0)"><tspan id="SvgjsTspan1300" dy="26" x="43.5"><tspan id="SvgjsTspan1301" style="text-decoration:;">index=24</tspan></tspan></text></g></g><g id="SvgjsG1302" transform="translate(687.5,467)"><path id="SvgjsPath1303" d="M 0 0L 83.5 0L 83.5 24L 0 24Z" stroke="none" fill="none"></path><g id="SvgjsG1304"><text id="SvgjsText1305" font-family="微软雅黑" text-anchor="middle" font-size="21px" width="81" fill="#323232" font-weight="400" align="middle" anchor="middle" family="微软雅黑" size="21px" weight="400" font-style="italic" y="-4.15" transform="rotate(0)"><tspan id="SvgjsTspan1306" dy="26" x="42"><tspan id="SvgjsTspan1307" style="text-decoration:;">index=23</tspan></tspan></text></g></g><g id="SvgjsG1308" transform="translate(424,494)"><path id="SvgjsPath1309" d="M 0 0L 63 0L 63 34L 0 34Z" stroke="#323232" stroke-width="2" fill-opacity="1" fill="#ff0000"></path><g id="SvgjsG1310"><text id="SvgjsText1311" font-family="微软雅黑" text-anchor="middle" font-size="13px" width="35" fill="#323232" font-weight="400" align="middle" anchor="middle" family="微软雅黑" size="13px" weight="400" font-style="" y="7.05" transform="rotate(0)"><tspan id="SvgjsTspan1312" dy="16" x="31.5"><tspan id="SvgjsTspan1313" style="text-decoration:;">NULL</tspan></tspan></text></g></g><g id="SvgjsG1314" transform="translate(374.5,583)"><path id="SvgjsPath1315" d="M 0 0L 63 0L 63 34L 0 34Z" stroke="#323232" stroke-width="2" fill-opacity="1" fill="#ff0000"></path><g id="SvgjsG1316"><text id="SvgjsText1317" font-family="微软雅黑" text-anchor="middle" font-size="13px" width="35" fill="#323232" font-weight="400" align="middle" anchor="middle" family="微软雅黑" size="13px" weight="400" font-style="" y="7.05" transform="rotate(0)"><tspan id="SvgjsTspan1318" dy="16" x="31.5"><tspan id="SvgjsTspan1319" style="text-decoration:;">NULL</tspan></tspan></text></g></g><g id="SvgjsG1320" transform="translate(296,583)"><path id="SvgjsPath1321" d="M 0 0L 63 0L 63 34L 0 34Z" stroke="#323232" stroke-width="2" fill-opacity="1" fill="#ff0000"></path><g id="SvgjsG1322"><text id="SvgjsText1323" font-family="微软雅黑" text-anchor="middle" font-size="13px" width="35" fill="#323232" font-weight="400" align="middle" anchor="middle" family="微软雅黑" size="13px" weight="400" font-style="" y="7.05" transform="rotate(0)"><tspan id="SvgjsTspan1324" dy="16" x="31.5"><tspan id="SvgjsTspan1325" style="text-decoration:;">NULL</tspan></tspan></text></g></g><g id="SvgjsG1326" transform="translate(513,494)"><path id="SvgjsPath1327" d="M 0 0L 63 0L 63 34L 0 34Z" stroke="#323232" stroke-width="2" fill-opacity="1" fill="#ff0000"></path><g id="SvgjsG1328"><text id="SvgjsText1329" font-family="微软雅黑" text-anchor="middle" font-size="13px" width="35" fill="#323232" font-weight="400" align="middle" anchor="middle" family="微软雅黑" size="13px" weight="400" font-style="" y="7.05" transform="rotate(0)"><tspan id="SvgjsTspan1330" dy="16" x="31.5"><tspan id="SvgjsTspan1331" style="text-decoration:;">NULL</tspan></tspan></text></g></g><g id="SvgjsG1332" transform="translate(652,576)"><path id="SvgjsPath1333" d="M 0 0L 63 0L 63 34L 0 34Z" stroke="#323232" stroke-width="2" fill-opacity="1" fill="#ff0000"></path><g id="SvgjsG1334"><text id="SvgjsText1335" font-family="微软雅黑" text-anchor="middle" font-size="13px" width="35" fill="#323232" font-weight="400" align="middle" anchor="middle" family="微软雅黑" size="13px" weight="400" font-style="" y="7.05" transform="rotate(0)"><tspan id="SvgjsTspan1336" dy="16" x="31.5"><tspan id="SvgjsTspan1337" style="text-decoration:;">NULL</tspan></tspan></text></g></g><g id="SvgjsG1338" transform="translate(563,576)"><path id="SvgjsPath1339" d="M 0 0L 63 0L 63 34L 0 34Z" stroke="#323232" stroke-width="2" fill-opacity="1" fill="#ff0000"></path><g id="SvgjsG1340"><text id="SvgjsText1341" font-family="微软雅黑" text-anchor="middle" font-size="13px" width="35" fill="#323232" font-weight="400" align="middle" anchor="middle" family="微软雅黑" size="13px" weight="400" font-style="" y="7.05" transform="rotate(0)"><tspan id="SvgjsTspan1342" dy="16" x="31.5"><tspan id="SvgjsTspan1343" style="text-decoration:;">NULL</tspan></tspan></text></g></g><g id="SvgjsG1344" transform="translate(1397,494)"><path id="SvgjsPath1345" d="M 0 0L 63 0L 63 34L 0 34Z" stroke="#323232" stroke-width="2" fill-opacity="1" fill="#ff0000"></path><g id="SvgjsG1346"><text id="SvgjsText1347" font-family="微软雅黑" text-anchor="middle" font-size="13px" width="35" fill="#323232" font-weight="400" align="middle" anchor="middle" family="微软雅黑" size="13px" weight="400" font-style="" y="7.05" transform="rotate(0)"><tspan id="SvgjsTspan1348" dy="16" x="31.5"><tspan id="SvgjsTspan1349" style="text-decoration:;">NULL</tspan></tspan></text></g></g><g id="SvgjsG1350" transform="translate(1301,494)"><path id="SvgjsPath1351" d="M 0 0L 63 0L 63 34L 0 34Z" stroke="#323232" stroke-width="2" fill-opacity="1" fill="#ff0000"></path><g id="SvgjsG1352"><text id="SvgjsText1353" font-family="微软雅黑" text-anchor="middle" font-size="13px" width="35" fill="#323232" font-weight="400" align="middle" anchor="middle" family="微软雅黑" size="13px" weight="400" font-style="" y="7.05" transform="rotate(0)"><tspan id="SvgjsTspan1354" dy="16" x="31.5"><tspan id="SvgjsTspan1355" style="text-decoration:;">NULL</tspan></tspan></text></g></g><g id="SvgjsG1356" transform="translate(1205,494)"><path id="SvgjsPath1357" d="M 0 0L 63 0L 63 34L 0 34Z" stroke="#323232" stroke-width="2" fill-opacity="1" fill="#ff0000"></path><g id="SvgjsG1358"><text id="SvgjsText1359" font-family="微软雅黑" text-anchor="middle" font-size="13px" width="35" fill="#323232" font-weight="400" align="middle" anchor="middle" family="微软雅黑" size="13px" weight="400" font-style="" y="7.05" transform="rotate(0)"><tspan id="SvgjsTspan1360" dy="16" x="31.5"><tspan id="SvgjsTspan1361" style="text-decoration:;">NULL</tspan></tspan></text></g></g><g id="SvgjsG1362" transform="translate(1118,494)"><path id="SvgjsPath1363" d="M 0 0L 63 0L 63 34L 0 34Z" stroke="#323232" stroke-width="2" fill-opacity="1" fill="#ff0000"></path><g id="SvgjsG1364"><text id="SvgjsText1365" font-family="微软雅黑" text-anchor="middle" font-size="13px" width="35" fill="#323232" font-weight="400" align="middle" anchor="middle" family="微软雅黑" size="13px" weight="400" font-style="" y="7.05" transform="rotate(0)"><tspan id="SvgjsTspan1366" dy="16" x="31.5"><tspan id="SvgjsTspan1367" style="text-decoration:;">NULL</tspan></tspan></text></g></g><g id="SvgjsG1368" transform="translate(1055,555)"><path id="SvgjsPath1369" d="M 0 0L 63 0L 63 34L 0 34Z" stroke="#323232" stroke-width="2" fill-opacity="1" fill="#ff0000"></path><g id="SvgjsG1370"><text id="SvgjsText1371" font-family="微软雅黑" text-anchor="middle" font-size="13px" width="35" fill="#323232" font-weight="400" align="middle" anchor="middle" family="微软雅黑" size="13px" weight="400" font-style="" y="7.05" transform="rotate(0)"><tspan id="SvgjsTspan1372" dy="16" x="31.5"><tspan id="SvgjsTspan1373" style="text-decoration:;">NULL</tspan></tspan></text></g></g><g id="SvgjsG1374" transform="translate(971,555)"><path id="SvgjsPath1375" d="M 0 0L 63 0L 63 34L 0 34Z" stroke="#323232" stroke-width="2" fill-opacity="1" fill="#ff0000"></path><g id="SvgjsG1376"><text id="SvgjsText1377" font-family="微软雅黑" text-anchor="middle" font-size="13px" width="35" fill="#323232" font-weight="400" align="middle" anchor="middle" family="微软雅黑" size="13px" weight="400" font-style="" y="7.05" transform="rotate(0)"><tspan id="SvgjsTspan1378" dy="16" x="31.5"><tspan id="SvgjsTspan1379" style="text-decoration:;">NULL</tspan></tspan></text></g></g><g id="SvgjsG1380" transform="translate(384.5,628)"><path id="SvgjsPath1381" d="M 0 0L 90.5 0L 90.5 20L 0 20Z" stroke="none" fill="none"></path><g id="SvgjsG1382"><text id="SvgjsText1383" font-family="微软雅黑" text-anchor="middle" font-size="21px" width="81" fill="#323232" font-weight="400" align="middle" anchor="middle" family="微软雅黑" size="21px" weight="400" font-style="italic" y="-6.15" transform="rotate(0)"><tspan id="SvgjsTspan1384" dy="26" x="45.5"><tspan id="SvgjsTspan1385" style="text-decoration:;">index=18</tspan></tspan></text></g></g><g id="SvgjsG1386" transform="translate(260.5,628)"><path id="SvgjsPath1387" d="M 0 0L 90.5 0L 90.5 20L 0 20Z" stroke="none" fill="none"></path><g id="SvgjsG1388"><text id="SvgjsText1389" font-family="微软雅黑" text-anchor="middle" font-size="21px" width="81" fill="#323232" font-weight="400" align="middle" anchor="middle" family="微软雅黑" size="21px" weight="400" font-style="italic" y="-6.15" transform="rotate(0)"><tspan id="SvgjsTspan1390" dy="26" x="45.5"><tspan id="SvgjsTspan1391" style="text-decoration:;">index=17</tspan></tspan></text></g></g><g id="SvgjsG1392" transform="translate(502.5,535)"><path id="SvgjsPath1393" d="M 0 0L 90.5 0L 90.5 20L 0 20Z" stroke="none" fill="none"></path><g id="SvgjsG1394"><text id="SvgjsText1395" font-family="微软雅黑" text-anchor="middle" font-size="21px" width="81" fill="#323232" font-weight="400" align="middle" anchor="middle" family="微软雅黑" size="21px" weight="400" font-style="italic" y="-6.15" transform="rotate(0)"><tspan id="SvgjsTspan1396" dy="26" x="45.5"><tspan id="SvgjsTspan1397" style="text-decoration:;">index=20</tspan></tspan></text></g></g><g id="SvgjsG1398" transform="translate(396.5,535)"><path id="SvgjsPath1399" d="M 0 0L 90.5 0L 90.5 20L 0 20Z" stroke="none" fill="none"></path><g id="SvgjsG1400"><text id="SvgjsText1401" font-family="微软雅黑" text-anchor="middle" font-size="21px" width="81" fill="#323232" font-weight="400" align="middle" anchor="middle" family="微软雅黑" size="21px" weight="400" font-style="italic" y="-6.15" transform="rotate(0)"><tspan id="SvgjsTspan1402" dy="26" x="45.5"><tspan id="SvgjsTspan1403" style="text-decoration:;">index=19</tspan></tspan></text></g></g><g id="SvgjsG1404" transform="translate(542.5,625)"><path id="SvgjsPath1405" d="M 0 0L 90.5 0L 90.5 20L 0 20Z" stroke="none" fill="none"></path><g id="SvgjsG1406"><text id="SvgjsText1407" font-family="微软雅黑" text-anchor="middle" font-size="21px" width="81" fill="#323232" font-weight="400" align="middle" anchor="middle" family="微软雅黑" size="21px" weight="400" font-style="italic" y="-6.15" transform="rotate(0)"><tspan id="SvgjsTspan1408" dy="26" x="45.5"><tspan id="SvgjsTspan1409" style="text-decoration:;">index=21</tspan></tspan></text></g></g><g id="SvgjsG1410" transform="translate(652,625)"><path id="SvgjsPath1411" d="M 0 0L 90.5 0L 90.5 20L 0 20Z" stroke="none" fill="none"></path><g id="SvgjsG1412"><text id="SvgjsText1413" font-family="微软雅黑" text-anchor="middle" font-size="21px" width="81" fill="#323232" font-weight="400" align="middle" anchor="middle" family="微软雅黑" size="21px" weight="400" font-style="italic" y="-6.15" transform="rotate(0)"><tspan id="SvgjsTspan1414" dy="26" x="45.5"><tspan id="SvgjsTspan1415" style="text-decoration:;">index=22</tspan></tspan></text></g></g><g id="SvgjsG1416" transform="translate(1287.25,535)"><path id="SvgjsPath1417" d="M 0 0L 90.5 0L 90.5 20L 0 20Z" stroke="none" fill="none"></path><g id="SvgjsG1418"><text id="SvgjsText1419" font-family="微软雅黑" text-anchor="middle" font-size="21px" width="81" fill="#323232" font-weight="400" align="middle" anchor="middle" family="微软雅黑" size="21px" weight="400" font-style="italic" y="-6.15" transform="rotate(0)"><tspan id="SvgjsTspan1420" dy="26" x="45.5"><tspan id="SvgjsTspan1421" style="text-decoration:;">index=29</tspan></tspan></text></g></g><g id="SvgjsG1422" transform="translate(1194.75,535)"><path id="SvgjsPath1423" d="M 0 0L 90.5 0L 90.5 20L 0 20Z" stroke="none" fill="none"></path><g id="SvgjsG1424"><text id="SvgjsText1425" font-family="微软雅黑" text-anchor="middle" font-size="21px" width="81" fill="#323232" font-weight="400" align="middle" anchor="middle" family="微软雅黑" size="21px" weight="400" font-style="italic" y="-6.15" transform="rotate(0)"><tspan id="SvgjsTspan1426" dy="26" x="45.5"><tspan id="SvgjsTspan1427" style="text-decoration:;">index=28</tspan></tspan></text></g></g><g id="SvgjsG1428" transform="translate(1104.25,535)"><path id="SvgjsPath1429" d="M 0 0L 90.5 0L 90.5 20L 0 20Z" stroke="none" fill="none"></path><g id="SvgjsG1430"><text id="SvgjsText1431" font-family="微软雅黑" text-anchor="middle" font-size="21px" width="81" fill="#323232" font-weight="400" align="middle" anchor="middle" family="微软雅黑" size="21px" weight="400" font-style="italic" y="-6.15" transform="rotate(0)"><tspan id="SvgjsTspan1432" dy="26" x="45.5"><tspan id="SvgjsTspan1433" style="text-decoration:;">index=27</tspan></tspan></text></g></g><g id="SvgjsG1434" transform="translate(1041.25,602)"><path id="SvgjsPath1435" d="M 0 0L 90.5 0L 90.5 20L 0 20Z" stroke="none" fill="none"></path><g id="SvgjsG1436"><text id="SvgjsText1437" font-family="微软雅黑" text-anchor="middle" font-size="21px" width="81" fill="#323232" font-weight="400" align="middle" anchor="middle" family="微软雅黑" size="21px" weight="400" font-style="italic" y="-6.15" transform="rotate(0)"><tspan id="SvgjsTspan1438" dy="26" x="45.5"><tspan id="SvgjsTspan1439" style="text-decoration:;">index=26</tspan></tspan></text></g></g><g id="SvgjsG1440" transform="translate(941,602)"><path id="SvgjsPath1441" d="M 0 0L 90.5 0L 90.5 20L 0 20Z" stroke="none" fill="none"></path><g id="SvgjsG1442"><text id="SvgjsText1443" font-family="微软雅黑" text-anchor="middle" font-size="21px" width="81" fill="#323232" font-weight="400" align="middle" anchor="middle" family="微软雅黑" size="21px" weight="400" font-style="italic" y="-6.15" transform="rotate(0)"><tspan id="SvgjsTspan1444" dy="26" x="45.5"><tspan id="SvgjsTspan1445" style="text-decoration:;">index=25</tspan></tspan></text></g></g><g id="SvgjsG1446" transform="translate(1392.25,535)"><path id="SvgjsPath1447" d="M 0 0L 90.5 0L 90.5 20L 0 20Z" stroke="none" fill="none"></path><g id="SvgjsG1448"><text id="SvgjsText1449" font-family="微软雅黑" text-anchor="middle" font-size="21px" width="81" fill="#323232" font-weight="400" align="middle" anchor="middle" family="微软雅黑" size="21px" weight="400" font-style="italic" y="-6.15" transform="rotate(0)"><tspan id="SvgjsTspan1450" dy="26" x="45.5"><tspan id="SvgjsTspan1451" style="text-decoration:;">index=30</tspan></tspan></text></g></g><g id="SvgjsG1452"><path id="SvgjsPath1453" d="M345 443C 345 499.4358042380899 341 535 327.5 583" stroke="#323232" stroke-width="2" fill="none" marker-end="url(#SvgjsMarker1454)"></path></g><g id="SvgjsG1456"><path id="SvgjsPath1457" d="M345 443C 345 504.084859007777 387 525 406 583" stroke="#323232" stroke-width="2" fill="none" marker-end="url(#SvgjsMarker1458)"></path></g><g id="SvgjsG1460"><path id="SvgjsPath1461" d="M505 443L455.5 494" stroke="#323232" stroke-width="2" fill="none" marker-end="url(#SvgjsMarker1462)"></path></g><g id="SvgjsG1464"><path id="SvgjsPath1465" d="M505 443L544.5 494" stroke="#323232" stroke-width="2" fill="none" marker-end="url(#SvgjsMarker1466)"></path></g><g id="SvgjsG1468"><path id="SvgjsPath1469" d="M1185 439L1149.5 494" stroke="#323232" stroke-width="2" fill="none" marker-end="url(#SvgjsMarker1470)"></path></g><g id="SvgjsG1472"><path id="SvgjsPath1473" d="M1185 439L1236.5 494" stroke="#323232" stroke-width="2" fill="none" marker-end="url(#SvgjsMarker1474)"></path></g><g id="SvgjsG1476"><path id="SvgjsPath1477" d="M1346 439L1332.5 494" stroke="#323232" stroke-width="2" fill="none" marker-end="url(#SvgjsMarker1478)"></path></g><g id="SvgjsG1480"><path id="SvgjsPath1481" d="M1346 439L1428.5 494" stroke="#323232" stroke-width="2" fill="none" marker-end="url(#SvgjsMarker1482)"></path></g><g id="SvgjsG1484"><path id="SvgjsPath1485" d="M668 443L594.5 576" stroke="#323232" stroke-width="2" fill="none" marker-end="url(#SvgjsMarker1486)"></path></g><g id="SvgjsG1488"><path id="SvgjsPath1489" d="M668 443L683.5 576" stroke="#323232" stroke-width="2" fill="none" marker-end="url(#SvgjsMarker1490)"></path></g><g id="SvgjsG1492"><path id="SvgjsPath1493" d="M1021 439L1002.5 555" stroke="#323232" stroke-width="2" fill="none" marker-end="url(#SvgjsMarker1494)"></path></g><g id="SvgjsG1496"><path id="SvgjsPath1497" d="M1021 439L1086.5 555" stroke="#323232" stroke-width="2" fill="none" marker-end="url(#SvgjsMarker1498)"></path></g></svg>