<svg xmlns="http://www.w3.org/2000/svg" viewBox="52 69.5 947 672.5" width="947" height="672.5"><defs><marker id="a" markerUnits="userSpaceOnUse" orient="auto" markerWidth="16.236" markerHeight="10.551" viewBox="-1 -1.376 16.236 10.551" refX="-1" refY="3.899"><path d="M12 3.899l-12 3.9V0z" stroke="#323232" stroke-width="2" fill="#323232"/></marker><marker id="b" markerUnits="userSpaceOnUse" orient="auto" markerWidth="16.236" markerHeight="10.551" viewBox="-1 -1.376 16.236 10.551" refX="-1" refY="3.899"><path d="M12 3.899l-12 3.9V0z" stroke="#323232" stroke-width="2" fill="#fff"/></marker><marker id="c" markerUnits="userSpaceOnUse" orient="auto" markerWidth="16.236" markerHeight="10.551" viewBox="-1 -1.376 16.236 10.551" refX="-1" refY="3.899"><path d="M12 3.899l-12 3.9V0z" stroke="#323232" stroke-width="2" fill="#fff"/></marker><marker id="d" markerUnits="userSpaceOnUse" orient="auto" markerWidth="16.236" markerHeight="10.551" viewBox="-1 -1.376 16.236 10.551" refX="-1" refY="3.899"><path d="M12 3.899l-12 3.9V0z" stroke="#323232" stroke-width="2" fill="#fff"/></marker><marker id="e" markerUnits="userSpaceOnUse" orient="auto" markerWidth="14.289" markerHeight="19.055" viewBox="-0.588 -0.809 14.289 19.055" refX="12" refY="8.719"><path d="M0 0l12 8.719-12 8.718" stroke="#323232" stroke-width="2" fill="none"/></marker><marker id="f" markerUnits="userSpaceOnUse" orient="auto" markerWidth="14.289" markerHeight="19.055" viewBox="-0.588 -0.809 14.289 19.055" refX="12" refY="8.719"><path d="M0 0l12 8.719-12 8.718" stroke="#323232" stroke-width="2" fill="none"/></marker><marker id="g" markerUnits="userSpaceOnUse" orient="auto" markerWidth="20.61" markerHeight="10.888" viewBox="-2.305 -1.591 20.61 10.888" refX="16" refY="3.853"><path d="M0 3.853L8 0l8 3.853-8 3.852z" stroke="#323232" stroke-width="2" fill="#fff"/></marker><marker id="h" markerUnits="userSpaceOnUse" orient="auto" markerWidth="14.289" markerHeight="19.055" viewBox="-0.588 -0.809 14.289 19.055" refX="12" refY="8.719"><path d="M0 0l12 8.719-12 8.718" stroke="#323232" stroke-width="2" fill="none"/></marker><marker id="i" markerUnits="userSpaceOnUse" orient="auto" markerWidth="14.289" markerHeight="19.055" viewBox="-0.588 -0.809 14.289 19.055" refX="12" refY="8.719"><path d="M0 0l12 8.719-12 8.718" stroke="#323232" stroke-width="2" fill="none"/></marker></defs><path d="M52 69.5h947V742H52V69.5z" fill="#fff"/><path d="M151 312.5q0-4 4-4h229q4 0 4 4v121q0 4-4 4H155q-4 0-4-4z" stroke="#323232" stroke-width="2" fill="#fff"/><path d="M151 338.5h237M151 388h237" stroke="#323232" stroke-width="2" fill="none"/><path d="M151 308.5h237v129H151z" fill="none"/><text font-weight="bold" text-decoration="blink" font-family="微软雅黑" text-anchor="middle" font-size="13" x="108.5" y="13.325" transform="translate(161 315.375)">Person</text><text font-weight="bold" text-decoration="blink" font-family="微软雅黑" text-anchor="middle" font-size="13" x="108.5" y="13.325" transform="translate(161 404.625)">+getAttitude(Aspect aspect)</text><path d="M328 537q0-4 4-4h157q4 0 4 4v118q0 4-4 4H332q-4 0-4-4z" stroke="#323232" stroke-width="2" fill="#fff"/><path d="M328 563h165m-165 48h165" stroke="#323232" stroke-width="2" fill="none"/><path d="M328 533h165v126H328z" fill="none"/><text font-weight="bold" text-decoration="blink" font-family="微软雅黑" text-anchor="middle" font-size="13" x="72.5" y="13.325" transform="translate(338 539.875)">Woman</text><text font-weight="bold" text-decoration="blink" font-family="微软雅黑" text-anchor="middle" font-size="13" x="72.5" y="13.325" transform="translate(338 626.875)">+getAttitude</text><path d="M652 524q0-4 4-4h257q4 0 4 4v128q0 4-4 4H656q-4 0-4-4z" stroke="#323232" stroke-width="2" fill="#fff"/><path d="M652 550h265m-265 53h265" stroke="#323232" stroke-width="2" fill="none"/><path d="M652 520h265v136H652z" fill="none"/><text font-weight="bold" text-decoration="blink" font-family="微软雅黑" text-anchor="middle" font-size="13" x="122.5" y="13.325" transform="translate(662 526.875)">Aspect</text><g font-weight="bold" font-family="微软雅黑" text-anchor="middle" font-size="13"><text text-decoration="blink" x="122.5" y="13.325" transform="translate(662 605.125)">+getManAttitude(Man man)</text><text text-decoration="blink" x="122.5" y="29.575" transform="translate(662 605.125)">+getWomanAttitude(Woman woma</text><text text-decoration="blink" x="122.5" y="45.825" transform="translate(662 605.125)">n)</text></g><g><path d="M72 537q0-4 4-4h157q4 0 4 4v118q0 4-4 4H76q-4 0-4-4z" stroke="#323232" stroke-width="2" fill="#fff"/><path d="M72 563h165M72 611h165" stroke="#323232" stroke-width="2" fill="none"/><path d="M72 533h165v126H72z" fill="none"/><text font-weight="bold" text-decoration="blink" font-family="微软雅黑" text-anchor="middle" font-size="13" x="72.5" y="13.325" transform="translate(82 539.875)">Man</text><text font-weight="bold" text-decoration="blink" font-family="微软雅黑" text-anchor="middle" font-size="13" x="72.5" y="13.325" transform="translate(82 626.875)">+getAttitude</text></g><g><path d="M814 301.5q0-4 4-4h157q4 0 4 4v118q0 4-4 4H818q-4 0-4-4z" stroke="#323232" stroke-width="2" fill="#fff"/><path d="M814 327.5h165m-165 48h165" stroke="#323232" stroke-width="2" fill="none"/><path d="M814 297.5h165v126H814z" fill="none"/><text font-weight="bold" text-decoration="blink" font-family="微软雅黑" text-anchor="middle" font-size="13" x="72.5" y="13.325" transform="translate(824 304.375)">Love</text><g font-weight="bold" font-family="微软雅黑" text-anchor="middle" font-size="13"><text text-decoration="blink" x="72.5" y="13.325" transform="translate(824 383.25)">+getManAttitude</text><text text-decoration="blink" x="72.5" y="29.575" transform="translate(824 383.25)">+getWomanAttitude</text></g></g><g><path d="M417 93.5q0-4 4-4h214q4 0 4 4v143q0 4-4 4H421q-4 0-4-4z" stroke="#323232" stroke-width="2" fill="#fff"/><path d="M417 119.5h222M417 180h222" stroke="#323232" stroke-width="2" fill="none"/><path d="M417 89.5h222v151H417z" fill="none"/><text font-weight="bold" text-decoration="blink" font-family="微软雅黑" text-anchor="middle" font-size="13" x="101" y="13.325" transform="translate(427 96.375)">ObjectStructure</text><text font-weight="bold" text-decoration="blink" font-family="微软雅黑" text-anchor="middle" font-size="13" x="101" y="13.325" transform="translate(427 141.625)">-elements : List&lt;Person&gt;</text><g font-weight="bold" font-family="微软雅黑" text-anchor="middle" font-size="13"><text text-decoration="blink" x="101" y="13.325" transform="translate(427 185.875)">+attach(Person p)</text><text text-decoration="blink" x="101" y="29.575" transform="translate(427 185.875)">+detach(Person p)</text><text text-decoration="blink" x="101" y="45.825" transform="translate(427 185.875)">+display(Aspect aspect)</text></g></g><g><path d="M565 301.5q0-4 4-4h157q4 0 4 4v118q0 4-4 4H569q-4 0-4-4z" stroke="#323232" stroke-width="2" fill="#fff"/><path d="M565 327.5h165m-165 48h165" stroke="#323232" stroke-width="2" fill="none"/><path d="M565 297.5h165v126H565z" fill="none"/><text font-weight="bold" text-decoration="blink" font-family="微软雅黑" text-anchor="middle" font-size="13" x="72.5" y="13.325" transform="translate(575 304.375)">Success</text><g font-weight="bold" font-family="微软雅黑" text-anchor="middle" font-size="13"><text text-decoration="blink" x="72.5" y="13.325" transform="translate(575 383.25)">+getManAttitude</text><text text-decoration="blink" x="72.5" y="29.575" transform="translate(575 383.25)">+getWomanAttitude</text></g></g><g><path d="M154.5 533v-47.75h115v-32.514" stroke="#323232" stroke-width="2" fill="none" marker-end="url(#a)"/></g><g><path d="M410.5 533v-47.75h-141v-32.514" stroke="#323232" stroke-width="2" fill="none" marker-end="url(#b)"/></g><g><path d="M647.5 423.5v48.25h137v33.014" stroke="#323232" stroke-width="2" fill="none" marker-end="url(#c)"/></g><g><path d="M896.5 423.5v48.25h-112v33.014" stroke="#323232" stroke-width="2" fill="none" marker-end="url(#d)"/></g><g><path d="M784.5 656v66h-630v-63" stroke="#323232" stroke-width="2" stroke-dasharray="10.0 4.0" fill="none" marker-end="url(#e)"/></g><g><path d="M784.5 656v33h-374v-30" stroke="#323232" stroke-width="2" stroke-dasharray="10.0 4.0" fill="none" marker-end="url(#f)"/></g><g><path d="M398.695 165H269.5v143.5" stroke="#323232" stroke-width="2" fill="none" marker-start="url(#g)" marker-end="url(#h)"/></g><g><path d="M528 240.5V588h124" stroke="#323232" stroke-width="2" stroke-dasharray="10.0 4.0" fill="none" marker-end="url(#i)"/></g></svg>