<svg xmlns="http://www.w3.org/2000/svg" viewBox="94 92 926 429" width="926" height="429"><path d="M94 92h926v429H94V92z" fill="none"/><path d="M404 116h207v38H404z" stroke="#323232" stroke-width="2" fill="#fff"/><text font-size="17" x="92.5" y="17.425" font-family="微软雅黑" font-weight="bold" text-anchor="middle" transform="translate(414 124.375)">T(N)</text><path d="M373 394h207v38H373z" stroke="#323232" stroke-width="2" fill="#fff"/><text font-size="17" x="92.5" y="17.425" font-family="微软雅黑" font-weight="bold" text-anchor="middle" transform="translate(383 402.375)">T(N/4)</text><path d="M114 390h207v38H114z" stroke="#323232" stroke-width="2" fill="#fff"/><text font-size="17" x="92.5" y="17.425" font-family="微软雅黑" font-weight="bold" text-anchor="middle" transform="translate(124 398.375)">T(N/4)</text><path d="M253 266h207v38H253z" stroke="#323232" stroke-width="2" fill="#fff"/><text font-size="17" x="92.5" y="17.425" font-family="微软雅黑" font-weight="bold" text-anchor="middle" transform="translate(263 274.375)">T(N/2)</text><path d="M564 266h207v38H564z" stroke="#323232" stroke-width="2" fill="#fff"/><text font-size="17" x="92.5" y="17.425" font-family="微软雅黑" font-weight="bold" text-anchor="middle" transform="translate(574 274.375)">T(N/2)</text><path d="M507.5 154l-151 112" stroke="#323232" stroke-width="2" fill="none"/><g><path d="M507.5 154l160 112" stroke="#323232" stroke-width="2" fill="none"/></g><g><path d="M356.5 304l-139 86" stroke="#323232" stroke-width="2" fill="none"/></g><g><path d="M356.5 304l120 90" stroke="#323232" stroke-width="2" fill="none"/></g><g fill="none"><path d="M824 501q3.6 0 3.6-9V315.5q0-9 18.4-9-18.4 0-18.4-9V121q0-9-3.6-9" stroke="#323232" stroke-width="2"/><path d="M824 112h36v389h-36z"/></g><g><path d="M853 284.5h147v44H853z" fill="none"/><text font-size="19" x="72.5" y="19.475" font-family="微软雅黑" font-weight="bold" text-anchor="middle" transform="translate(853 294.625)">深度为: lg(N)</text></g></svg>