<svg id="SvgjsSvg1062" width="453.1875" height="410.421875" xmlns="http://www.w3.org/2000/svg" version="1.1" xmlns:xlink="http://www.w3.org/1999/xlink" xmlns:svgjs="http://svgjs.com/svgjs"><defs id="SvgjsDefs1063"></defs><g id="SvgjsG1064" transform="translate(273.09375,71.53125)"><path id="SvgjsPath1065" d="M 0 25.5C 0 -8.5 50 -8.5 50 25.5C 50 59.5 0 59.5 0 25.5Z" stroke="rgba(50,50,50,1)" stroke-width="2" fill-opacity="1" fill="#ffffff"></path><g id="SvgjsG1066"><text id="SvgjsText1067" font-family="微软雅黑" text-anchor="middle" font-size="20px" width="30px" fill="#323232" font-weight="700" align="middle" lineHeight="125%" anchor="middle" family="微软雅黑" size="20px" weight="700" font-style="" opacity="1" y="10.5" transform="rotate(0)"><tspan id="SvgjsTspan1068" dy="25" x="25"><tspan id="SvgjsTspan1069" style="text-decoration:;">u</tspan></tspan></text></g></g><g id="SvgjsG1070" transform="translate(224.09375,182.53125)"><path id="SvgjsPath1071" d="M 0 25.5C 0 -8.5 50 -8.5 50 25.5C 50 59.5 0 59.5 0 25.5Z" stroke="rgba(50,50,50,1)" stroke-width="2" fill-opacity="1" fill="#ffffff"></path><g id="SvgjsG1072"><text id="SvgjsText1073" font-family="微软雅黑" text-anchor="middle" font-size="20px" width="30px" fill="#323232" font-weight="700" align="middle" lineHeight="125%" anchor="middle" family="微软雅黑" size="20px" weight="700" font-style="" opacity="1" y="10.5" transform="rotate(0)"><tspan id="SvgjsTspan1074" dy="25" x="25"><tspan id="SvgjsTspan1075" style="text-decoration:;">w</tspan></tspan></text></g></g><g id="SvgjsG1076" transform="translate(174.09375,295.53125)"><path id="SvgjsPath1077" d="M 0 25.5C 0 -8.5 50 -8.5 50 25.5C 50 59.5 0 59.5 0 25.5Z" stroke="rgba(50,50,50,1)" stroke-width="2" fill-opacity="1" fill="#ffffff"></path><g id="SvgjsG1078"><text id="SvgjsText1079" font-family="微软雅黑" text-anchor="middle" font-size="20px" width="30px" fill="#323232" font-weight="700" align="middle" lineHeight="125%" anchor="middle" family="微软雅黑" size="20px" weight="700" font-style="" opacity="1" y="10.5" transform="rotate(0)"><tspan id="SvgjsTspan1080" dy="25" x="25"><tspan id="SvgjsTspan1081" style="text-decoration:;">v</tspan></tspan></text></g></g><g id="SvgjsG1082" transform="matrix(0.9063077870366499,0.42261826174069944,-0.42261826174069944,0.9063077870366499,141.46659631738672,25.0015454493429)"><path id="SvgjsPath1083" d="M 116.64905739299365 0Q 107.64905739299365 0 107.64905739299365 9L 107.64905739299365 128.79059965154195Q 107.64905739299365 137.79059965154195 94.64905739299365 137.79059965154195Q 107.64905739299365 137.79059965154195 107.64905739299365 146.79059965154195L 107.64905739299365 266.5811993030839Q 107.64905739299365 275.5811993030839 116.64905739299365 275.5811993030839" stroke="rgba(50,50,50,1)" stroke-width="2" fill="none"></path><path id="SvgjsPath1084" d="M 0 0L 116.64905739299365 0L 116.64905739299365 275.5811993030839L 0 275.5811993030839Z" stroke="none" fill="none"></path><g id="SvgjsG1085"><text id="SvgjsText1086" font-family="微软雅黑" text-anchor="end" font-size="13px" width="90px" fill="#323232" font-weight="400" align="middle" lineHeight="125%" anchor="end" family="微软雅黑" size="13px" weight="400" font-style="" opacity="1" y="128.16559965154195" transform="rotate(0)"></text></g></g><g id="SvgjsG1087" transform="matrix(0.9063077870366499,0.42261826174069944,-0.42261826174069944,0.9063077870366499,342.08284172352825,107.28059679496296)"><path id="SvgjsPath1088" d="M 0 125.14311014954097Q 9 125.14311014954097 9 116.14311014954097L 9 71.57155507477049Q 9 62.57155507477049 22 62.57155507477049Q 9 62.57155507477049 9 53.57155507477049L 9 9Q 9 0 0 0" stroke="rgba(50,50,50,1)" stroke-width="2" fill="none"></path><path id="SvgjsPath1089" d="M 0 0L 94.902532256384 0L 94.902532256384 125.14311014954097L 0 125.14311014954097Z" stroke="none" fill="none"></path><g id="SvgjsG1090"><text id="SvgjsText1091" font-family="微软雅黑" text-anchor="start" font-size="20px" width="68px" fill="#323232" font-weight="700" align="middle" lineHeight="125%" anchor="start" family="微软雅黑" size="20px" weight="700" font-style="" opacity="1" y="47.57155507477049" transform="rotate(0)"></text></g></g><g id="SvgjsG1092" transform="matrix(0.9063077870366499,0.42261826174069944,-0.42261826174069944,0.9063077870366499,284.08284172352825,232.4237013481856)"><path id="SvgjsPath1093" d="M 0 125.14311014954097Q 9 125.14311014954097 9 116.14311014954097L 9 71.57155507477049Q 9 62.57155507477049 22 62.57155507477049Q 9 62.57155507477049 9 53.57155507477049L 9 9Q 9 0 0 0" stroke="rgba(50,50,50,1)" stroke-width="2" fill="none"></path><path id="SvgjsPath1094" d="M 0 0L 94.902532256384 0L 94.902532256384 125.14311014954097L 0 125.14311014954097Z" stroke="none" fill="none"></path><g id="SvgjsG1095"><text id="SvgjsText1096" font-family="微软雅黑" text-anchor="start" font-size="13px" width="68px" fill="#323232" font-weight="400" align="middle" lineHeight="125%" anchor="start" family="微软雅黑" size="13px" weight="400" font-style="" opacity="1" y="52.94655507477049" transform="rotate(0)"></text></g></g><g id="SvgjsG1097" transform="translate(66.41827869649683,152.53125)"><path id="SvgjsPath1098" d="M 0 0L 128 0L 128 57L 0 57Z" stroke="none" fill="none"></path><g id="SvgjsG1099"><text id="SvgjsText1100" font-family="微软雅黑" text-anchor="middle" font-size="25px" width="128px" fill="#323232" font-weight="700" align="middle" lineHeight="125%" anchor="middle" family="微软雅黑" size="25px" weight="700" font-style="" opacity="1" y="7.875" transform="rotate(0)"><tspan id="SvgjsTspan1101" dy="31" x="64"><tspan id="SvgjsTspan1102" style="text-decoration:;">2^j</tspan></tspan></text></g></g><g id="SvgjsG1103" transform="translate(311.1931500349673,148.03125)"><path id="SvgjsPath1104" d="M 0 0L 116 0L 116 66L 0 66Z" stroke="none" fill="none"></path><g id="SvgjsG1105"><text id="SvgjsText1106" font-family="微软雅黑" text-anchor="middle" font-size="19px" width="116px" fill="#323232" font-weight="700" align="middle" lineHeight="125%" anchor="middle" family="微软雅黑" size="19px" weight="700" font-style="" opacity="1" y="19.125" transform="rotate(0)"><tspan id="SvgjsTspan1107" dy="23" x="58"><tspan id="SvgjsTspan1108" style="text-decoration:;">2^(j-1)</tspan></tspan></text></g></g><g id="SvgjsG1109" transform="translate(259.09375,272.53125)"><path id="SvgjsPath1110" d="M 0 0L 116 0L 116 66L 0 66Z" stroke="none" fill="none"></path><g id="SvgjsG1111"><text id="SvgjsText1112" font-family="微软雅黑" text-anchor="middle" font-size="19px" width="116px" fill="#323232" font-weight="700" align="middle" lineHeight="125%" anchor="middle" family="微软雅黑" size="19px" weight="700" font-style="" opacity="1" y="19.125" transform="rotate(0)"><tspan id="SvgjsTspan1113" dy="23" x="58"><tspan id="SvgjsTspan1114" style="text-decoration:;">2^(j-1)</tspan></tspan></text></g></g></svg>