<svg id="SvgjsSvg1006" width="543" height="547" xmlns="http://www.w3.org/2000/svg" version="1.1" xmlns:xlink="http://www.w3.org/1999/xlink" xmlns:svgjs="http://svgjs.com/svgjs"><defs id="SvgjsDefs1007"></defs><g id="SvgjsG1008"><path id="SvgjsPath1009" d="M176 25L176 238L176 238L176 451" stroke="#323232" stroke-width="2" fill="none"></path></g><g id="SvgjsG1010" transform="translate(25,28)"><path id="SvgjsPath1011" d="M 94 0Q 85 0 85 9L 85 200Q 85 209 72 209Q 85 209 85 218L 85 409Q 85 418 94 418" stroke="rgba(50,50,50,1)" stroke-width="2" fill="none"></path><path id="SvgjsPath1012" d="M 0 0L 94 0L 94 418L 0 418Z" stroke="none" fill="none"></path><g id="SvgjsG1013"><text id="SvgjsText1014" font-family="微软雅黑" text-anchor="end" font-size="22px" width="67px" fill="#323232" font-weight="700" align="middle" lineHeight="125%" anchor="end" family="微软雅黑" size="22px" weight="700" font-style="" opacity="1" y="190.75" transform="rotate(0)"><tspan id="SvgjsTspan1015" dy="27" x="67"><tspan id="SvgjsTspan1016" style="text-decoration:;">高度h</tspan></tspan></text></g></g><g id="SvgjsG1017" transform="translate(231,28)"><path id="SvgjsPath1018" d="M 0 216Q 9 216 9 207L 9 117Q 9 108 22 108Q 9 108 9 99L 9 9Q 9 0 0 0" stroke="rgba(50,50,50,1)" stroke-width="2" fill="none"></path><path id="SvgjsPath1019" d="M 0 0L 96 0L 96 216L 0 216Z" stroke="none" fill="none"></path><g id="SvgjsG1020"><text id="SvgjsText1021" font-family="微软雅黑" text-anchor="start" font-size="19px" width="69px" fill="#323232" font-weight="700" align="middle" lineHeight="125%" anchor="start" family="微软雅黑" size="19px" weight="700" font-style="" opacity="1" y="94.125" transform="rotate(0)"><tspan id="SvgjsTspan1022" dy="23" x="27"><tspan id="SvgjsTspan1023" style="text-decoration:;">h/2</tspan></tspan></text></g></g><g id="SvgjsG1024" transform="translate(322,140)"><path id="SvgjsPath1025" d="M 0 98Q 9 98 9 89L 9 58Q 9 49 22 49Q 9 49 9 40L 9 9Q 9 0 0 0" stroke="rgba(50,50,50,1)" stroke-width="2" fill="none"></path><path id="SvgjsPath1026" d="M 0 0L 96 0L 96 98L 0 98Z" stroke="none" fill="none"></path><g id="SvgjsG1027"><text id="SvgjsText1028" font-family="微软雅黑" text-anchor="start" font-size="17px" width="69px" fill="#323232" font-weight="700" align="middle" lineHeight="125%" anchor="start" family="微软雅黑" size="17px" weight="700" font-style="" opacity="1" y="36.375" transform="rotate(0)"><tspan id="SvgjsTspan1029" dy="21" x="27"><tspan id="SvgjsTspan1030" style="text-decoration:;">h/4</tspan></tspan></text></g></g><g id="SvgjsG1031" transform="translate(424,140)"><path id="SvgjsPath1032" d="M 0 43Q 9 43 9 38.7L 9 25.8Q 9 21.5 22 21.5Q 9 21.5 9 17.2L 9 4.3Q 9 0 0 0" stroke="rgba(50,50,50,1)" stroke-width="2" fill="none"></path><path id="SvgjsPath1033" d="M 0 0L 94 0L 94 43L 0 43Z" stroke="none" fill="none"></path><g id="SvgjsG1034"><text id="SvgjsText1035" font-family="微软雅黑" text-anchor="start" font-size="17px" width="67px" fill="#323232" font-weight="700" align="middle" lineHeight="125%" anchor="start" family="微软雅黑" size="17px" weight="700" font-style="" opacity="1" y="8.875" transform="rotate(0)"><tspan id="SvgjsTspan1036" dy="21" x="27"><tspan id="SvgjsTspan1037" style="text-decoration:;">h/8</tspan></tspan></text></g></g><g id="SvgjsG1038" transform="translate(58,486)"><path id="SvgjsPath1039" d="M 0 0L 95 0L 95 36L 0 36Z" stroke="rgba(50,50,50,1)" stroke-width="2" fill-opacity="1" fill="#ffffff"></path><g id="SvgjsG1040"><text id="SvgjsText1041" font-family="微软雅黑" text-anchor="middle" font-size="18px" width="75px" fill="#323232" font-weight="700" align="middle" lineHeight="125%" anchor="middle" family="微软雅黑" size="18px" weight="700" font-style="" opacity="1" y="4.75" transform="rotate(0)"><tspan id="SvgjsTspan1042" dy="22" x="47.5"><tspan id="SvgjsTspan1043" style="text-decoration:;">第1次</tspan></tspan></text></g></g><g id="SvgjsG1044" transform="translate(188,258)"><path id="SvgjsPath1045" d="M 0 0L 95 0L 95 36L 0 36Z" stroke="rgba(50,50,50,1)" stroke-width="2" fill-opacity="1" fill="#ffffff"></path><g id="SvgjsG1046"><text id="SvgjsText1047" font-family="微软雅黑" text-anchor="middle" font-size="18px" width="75px" fill="#323232" font-weight="700" align="middle" lineHeight="125%" anchor="middle" family="微软雅黑" size="18px" weight="700" font-style="" opacity="1" y="4.75" transform="rotate(0)"><tspan id="SvgjsTspan1048" dy="22" x="47.5"><tspan id="SvgjsTspan1049" style="text-decoration:;">第2次</tspan></tspan></text></g></g><g id="SvgjsG1050" transform="translate(412,258)"><path id="SvgjsPath1051" d="M 0 0L 95 0L 95 36L 0 36Z" stroke="rgba(50,50,50,1)" stroke-width="2" fill-opacity="1" fill="#ffffff"></path><g id="SvgjsG1052"><text id="SvgjsText1053" font-family="微软雅黑" text-anchor="middle" font-size="18px" width="75px" fill="#323232" font-weight="700" align="middle" lineHeight="125%" anchor="middle" family="微软雅黑" size="18px" weight="700" font-style="" opacity="1" y="4.75" transform="rotate(0)"><tspan id="SvgjsTspan1054" dy="22" x="47.5"><tspan id="SvgjsTspan1055" style="text-decoration:;">第4次</tspan></tspan></text></g></g><g id="SvgjsG1056" transform="translate(304,258)"><path id="SvgjsPath1057" d="M 0 0L 95 0L 95 36L 0 36Z" stroke="rgba(50,50,50,1)" stroke-width="2" fill-opacity="1" fill="#ffffff"></path><g id="SvgjsG1058"><text id="SvgjsText1059" font-family="微软雅黑" text-anchor="middle" font-size="18px" width="75px" fill="#323232" font-weight="700" align="middle" lineHeight="125%" anchor="middle" family="微软雅黑" size="18px" weight="700" font-style="" opacity="1" y="4.75" transform="rotate(0)"><tspan id="SvgjsTspan1060" dy="22" x="47.5"><tspan id="SvgjsTspan1061" style="text-decoration:;">第3次</tspan></tspan></text></g></g></svg>