<svg id="SvgjsSvg1006" width="458" height="293" xmlns="http://www.w3.org/2000/svg" version="1.1" xmlns:xlink="http://www.w3.org/1999/xlink" xmlns:svgjs="http://svgjs.com/svgjs"><defs id="SvgjsDefs1007"></defs><g id="SvgjsG1008" transform="translate(205,25)"><path id="SvgjsPath1009" d="M 0 24C 0 -8 49 -8 49 24C 49 56 0 56 0 24Z" stroke="rgba(50,50,50,1)" stroke-width="2" fill-opacity="1" fill="#ffffff"></path><g id="SvgjsG1010"><text id="SvgjsText1011" font-family="微软雅黑" text-anchor="middle" font-size="20px" width="29px" fill="#323232" font-weight="700" align="middle" lineHeight="125%" anchor="middle" family="微软雅黑" size="20px" weight="700" font-style="" opacity="1" y="9" transform="rotate(0)"><tspan id="SvgjsTspan1012" dy="25" x="24.5"><tspan id="SvgjsTspan1013" style="text-decoration:;">0</tspan></tspan></text></g></g><g id="SvgjsG1014" transform="translate(93,126)"><path id="SvgjsPath1015" d="M 0 23C 0 -7.666666666666667 48 -7.666666666666667 48 23C 48 53.666666666666664 0 53.666666666666664 0 23Z" stroke="rgba(50,50,50,1)" stroke-width="2" fill-opacity="1" fill="#ffffff"></path><g id="SvgjsG1016"><text id="SvgjsText1017" font-family="微软雅黑" text-anchor="middle" font-size="20px" width="28px" fill="#323232" font-weight="700" align="middle" lineHeight="125%" anchor="middle" family="微软雅黑" size="20px" weight="700" font-style="" opacity="1" y="8" transform="rotate(0)"><tspan id="SvgjsTspan1018" dy="25" x="24"><tspan id="SvgjsTspan1019" style="text-decoration:;">1</tspan></tspan></text></g></g><g id="SvgjsG1020" transform="translate(313,120)"><path id="SvgjsPath1021" d="M 0 24C 0 -8 49 -8 49 24C 49 56 0 56 0 24Z" stroke="rgba(50,50,50,1)" stroke-width="2" fill-opacity="1" fill="#ffffff"></path><g id="SvgjsG1022"><text id="SvgjsText1023" font-family="微软雅黑" text-anchor="middle" font-size="20px" width="29px" fill="#323232" font-weight="700" align="middle" lineHeight="125%" anchor="middle" family="微软雅黑" size="20px" weight="700" font-style="" opacity="1" y="9" transform="rotate(0)"><tspan id="SvgjsTspan1024" dy="25" x="24.5"><tspan id="SvgjsTspan1025" style="text-decoration:;">2</tspan></tspan></text></g></g><g id="SvgjsG1026" transform="translate(160,215)"><path id="SvgjsPath1027" d="M 0 24C 0 -8 49 -8 49 24C 49 56 0 56 0 24Z" stroke="rgba(50,50,50,1)" stroke-width="2" fill-opacity="1" fill="#ffffff"></path><g id="SvgjsG1028"><text id="SvgjsText1029" font-family="微软雅黑" text-anchor="middle" font-size="20px" width="29px" fill="#323232" font-weight="700" align="middle" lineHeight="125%" anchor="middle" family="微软雅黑" size="20px" weight="700" font-style="" opacity="1" y="9" transform="rotate(0)"><tspan id="SvgjsTspan1030" dy="25" x="24.5"><tspan id="SvgjsTspan1031" style="text-decoration:;">4</tspan></tspan></text></g></g><g id="SvgjsG1032" transform="translate(25,215)"><path id="SvgjsPath1033" d="M 0 24C 0 -8 49 -8 49 24C 49 56 0 56 0 24Z" stroke="rgba(50,50,50,1)" stroke-width="2" fill-opacity="1" fill="#ffffff"></path><g id="SvgjsG1034"><text id="SvgjsText1035" font-family="微软雅黑" text-anchor="middle" font-size="20px" width="29px" fill="#323232" font-weight="700" align="middle" lineHeight="125%" anchor="middle" family="微软雅黑" size="20px" weight="700" font-style="" opacity="1" y="9" transform="rotate(0)"><tspan id="SvgjsTspan1036" dy="25" x="24.5"><tspan id="SvgjsTspan1037" style="text-decoration:;">3</tspan></tspan></text></g></g><g id="SvgjsG1038" transform="translate(384,215)"><path id="SvgjsPath1039" d="M 0 24C 0 -8 49 -8 49 24C 49 56 0 56 0 24Z" stroke="rgba(50,50,50,1)" stroke-width="2" fill-opacity="1" fill="#ffffff"></path><g id="SvgjsG1040"><text id="SvgjsText1041" font-family="微软雅黑" text-anchor="middle" font-size="20px" width="29px" fill="#323232" font-weight="700" align="middle" lineHeight="125%" anchor="middle" family="微软雅黑" size="20px" weight="700" font-style="" opacity="1" y="9" transform="rotate(0)"><tspan id="SvgjsTspan1042" dy="25" x="24.5"><tspan id="SvgjsTspan1043" style="text-decoration:;">6</tspan></tspan></text></g></g><g id="SvgjsG1044" transform="translate(254,220)"><path id="SvgjsPath1045" d="M 0 24C 0 -8 49 -8 49 24C 49 56 0 56 0 24Z" stroke="rgba(50,50,50,1)" stroke-width="2" fill-opacity="1" fill="#ffffff"></path><g id="SvgjsG1046"><text id="SvgjsText1047" font-family="微软雅黑" text-anchor="middle" font-size="20px" width="29px" fill="#323232" font-weight="700" align="middle" lineHeight="125%" anchor="middle" family="微软雅黑" size="20px" weight="700" font-style="" opacity="1" y="9" transform="rotate(0)"><tspan id="SvgjsTspan1048" dy="25" x="24.5"><tspan id="SvgjsTspan1049" style="text-decoration:;">5</tspan></tspan></text></g></g><g id="SvgjsG1050"><path id="SvgjsPath1051" d="M229.5 73C 167 110 172 106 132.75735931288074 131.24264068711926" stroke="#323232" stroke-width="2" fill="none"></path></g><g id="SvgjsG1052"><path id="SvgjsPath1053" d="M117 172C 77 197 79 196 49.5 215" stroke="#323232" stroke-width="2" fill="none"></path></g><g id="SvgjsG1054"><path id="SvgjsPath1055" d="M229.5 73C 276 95 279 96 337.5 120" stroke="#323232" stroke-width="2" fill="none"></path></g><g id="SvgjsG1056"><path id="SvgjsPath1057" d="M117 172C 152 198 146 192 184.5 215" stroke="#323232" stroke-width="2" fill="none"></path></g><g id="SvgjsG1058"><path id="SvgjsPath1059" d="M337.5 168C 282 216 337 170 278.5 220" stroke="#323232" stroke-width="2" fill="none"></path></g><g id="SvgjsG1060"><path id="SvgjsPath1061" d="M337.5 168C 404 212 340 169 408.5 215" stroke="#323232" stroke-width="2" fill="none"></path></g></svg>