<svg xmlns="http://www.w3.org/2000/svg" viewBox="96 55.843 758 553.157" width="758" height="553.157"><defs><marker id="a" markerUnits="userSpaceOnUse" orient="auto" markerWidth="16.236" markerHeight="10.551" viewBox="-1 -1.376 16.236 10.551" refX="-1" refY="3.899"><path d="M12 3.899l-12 3.9V0z" stroke="#323232" stroke-width="2" fill="#323232"/></marker><marker id="b" markerUnits="userSpaceOnUse" orient="auto" markerWidth="16.236" markerHeight="10.551" viewBox="-1 -1.376 16.236 10.551" refX="-1" refY="3.899"><path d="M12 3.899l-12 3.9V0z" stroke="#323232" stroke-width="2" fill="#323232"/></marker><marker id="c" markerUnits="userSpaceOnUse" orient="auto" markerWidth="16.236" markerHeight="10.551" viewBox="-1 -1.376 16.236 10.551" refX="-1" refY="3.899"><path d="M12 3.899l-12 3.9V0z" stroke="#323232" stroke-width="2" fill="#323232"/></marker><marker id="d" markerUnits="userSpaceOnUse" orient="auto" markerWidth="16.236" markerHeight="10.551" viewBox="-1 -1.376 16.236 10.551" refX="-1" refY="3.899"><path d="M12 3.899l-12 3.9V0z" stroke="#323232" stroke-width="2" fill="#323232"/></marker></defs><path d="M96 55.843h758V609H96V55.843z" fill="none"/><path d="M139.333 394.5c0-16.667 23.334-16.667 23.334 0s-23.334 16.667-23.334 0M151 407v50m0 0l-29.167 25M151 457l29.167 25M116 432h70" stroke="#323232" stroke-width="2" fill="#fff"/><path d="M116 382h70v100h-70z" fill="none"/><path d="M384 295h68v294h-68z" stroke="#323232" stroke-width="2" fill="#6ff"/><text font-weight="bold" text-decoration="blink" font-family="微软雅黑" text-anchor="middle" font-size="13" x="24" y="13.325" transform="translate(394 433.875)">Filter</text><path d="M207.683 405.14l151.488-55.138-2.257-6.202 12.817 5.977-5.976 12.817-2.258-6.202L210.01 411.53l-2.326-6.39zM209.217 477.415l12.817-5.976-2.258 6.202 153.17 55.749-2.325 6.39-153.17-55.75-2.258 6.202-5.976-12.817zM480 355h105v179H480z" stroke="#323232" stroke-width="2" fill="#fff"/><text font-weight="bold" text-decoration="blink" font-family="微软雅黑" text-anchor="middle" font-size="13" x="42.5" y="13.325" transform="translate(490 436.375)">Servlet</text><path d="M452 395h15" stroke="#323232" stroke-width="2" fill="none" marker-end="url(#a)"/><path d="M480 491h-14 0-1" stroke="#323232" stroke-width="2" fill="none" marker-end="url(#b)"/><path d="M640 342h194v211H640z" stroke="#323232" stroke-width="2" fill="#fff"/><text font-weight="bold" text-decoration="blink" font-family="微软雅黑" text-anchor="middle" font-size="13" x="87" y="13.325" transform="translate(650 439.375)">Model</text><path d="M585 406H624.764" stroke="#323232" stroke-width="2" fill="none" marker-end="url(#c)"/><g><path d="M640 504h-27.5 0-12.264" stroke="#323232" stroke-width="2" fill="none" marker-end="url(#d)"/></g><g><path d="M190.984 377.624L341.335 322.9l13.68 37.588-150.35 54.723z" fill="none"/><text text-decoration="blink" font-family="微软雅黑" text-anchor="middle" font-size="13" x="80" y="13.325" transform="rotate(-20 1199.97 -358.688)">用户请求</text></g><g fill="none"><path d="M599 271q0-9-9-9H480.633q-9 0-9-13 0 13-9 13H353.267q-9 0-9 9" stroke="#323232" stroke-width="2"/><path d="M344.267 271V135.42H599V271z"/></g><g><path d="M391.633 201h160v40h-160z" fill="none"/><text font-weight="bold" text-decoration="blink" font-family="微软雅黑" text-anchor="middle" font-size="13" x="80" y="13.325" transform="translate(391.633 212.875)">Controller层</text></g></svg>