<svg xmlns="http://www.w3.org/2000/svg" viewBox="60 59.75 615 386.25" width="615" height="386.25"><defs><marker id="a" markerUnits="userSpaceOnUse" orient="auto" markerWidth="16.236" markerHeight="10.551" viewBox="-1 -1.376 16.236 10.551" refX="-1" refY="3.899"><path d="M12 3.899l-12 3.9V0z" stroke="#323232" stroke-width="2" fill="#fff"/></marker><marker id="b" markerUnits="userSpaceOnUse" orient="auto" markerWidth="16.236" markerHeight="10.551" viewBox="-1 -1.376 16.236 10.551" refX="-1" refY="3.899"><path d="M12 3.899l-12 3.9V0z" stroke="#323232" stroke-width="2" fill="#fff"/></marker><marker id="c" markerUnits="userSpaceOnUse" orient="auto" markerWidth="20.61" markerHeight="10.888" viewBox="-2.305 -1.591 20.61 10.888" refX="16" refY="3.853"><path d="M0 3.853L8 0l8 3.853-8 3.852z" stroke="#323232" stroke-width="2" fill="#fff"/></marker><marker id="d" markerUnits="userSpaceOnUse" orient="auto" markerWidth="14.289" markerHeight="19.055" viewBox="-0.588 -0.809 14.289 19.055" refX="12" refY="8.719"><path d="M0 0l12 8.719-12 8.718" stroke="#323232" stroke-width="2" fill="none"/></marker></defs><path d="M60 59.75h615V446H60V59.75z" fill="#fff"/><path d="M80 290q0-4 4-4h156q4 0 4 4v132q0 4-4 4H84q-4 0-4-4z" stroke="#323232" stroke-width="2" fill="#fff"/><path d="M80 316h164M80 371h164" stroke="#323232" stroke-width="2" fill="none"/><path d="M80 286h164v140H80z" fill="none"/><text font-weight="bold" text-decoration="blink" font-family="微软雅黑" text-anchor="middle" font-size="13" x="72" y="13.325" transform="translate(90 292.875)">FatBuilder</text><g font-weight="bold" font-family="微软雅黑" text-anchor="middle" font-size="13"><text text-decoration="blink" x="72" y="13.325" transform="translate(90 382.25)">+hands() : void</text><text text-decoration="blink" x="72" y="29.575" transform="translate(90 382.25)">+legs() : void</text></g><path d="M164 85q0-4 4-4h150q4 0 4 4v88q0 4-4 4H168q-4 0-4-4z" stroke="#323232" stroke-width="2" fill="#fff"/><path d="M164 111h158" stroke="#323232" stroke-width="2" fill="none"/><path d="M164 81h158v96H164z" fill="none"/><g font-weight="bold" font-family="微软雅黑" text-anchor="middle" font-size="13"><text text-decoration="blink" x="69" y="13.325" transform="translate(174 79.75)">&lt;&lt;interface&gt;&gt;</text><text text-decoration="blink" x="69" y="29.575" transform="translate(174 79.75)">Builder</text></g><g font-weight="bold" font-family="微软雅黑" text-anchor="middle" font-size="13"><text text-decoration="blink" x="69" y="13.325" transform="translate(174 127.75)">+hands() : void</text><text text-decoration="blink" x="69" y="29.575" transform="translate(174 127.75)">+legs() : void</text></g><g><path d="M162 286v-54.5h81v-39.264" stroke="#323232" stroke-width="2" stroke-dasharray="10.0 4.0" fill="none" marker-end="url(#a)"/></g><g><path d="M312 290q0-4 4-4h151q4 0 4 4v132q0 4-4 4H316q-4 0-4-4z" stroke="#323232" stroke-width="2" fill="#fff"/><path d="M312 316h159m-159 55h159" stroke="#323232" stroke-width="2" fill="none"/><path d="M312 286h159v140H312z" fill="none"/><text font-weight="bold" text-decoration="blink" font-family="微软雅黑" text-anchor="middle" font-size="13" x="69.5" y="13.325" transform="translate(322 292.875)">ThinBuilder</text><g font-weight="bold" font-family="微软雅黑" text-anchor="middle" font-size="13"><text text-decoration="blink" x="69.5" y="13.325" transform="translate(322 382.25)">+hands() : void</text><text text-decoration="blink" x="69.5" y="29.575" transform="translate(322 382.25)">+legs() : void</text></g></g><g><path d="M485 85q0-4 4-4h162q4 0 4 4v104q0 4-4 4H489q-4 0-4-4z" stroke="#323232" stroke-width="2" fill="#fff"/><path d="M485 111h170m-170 41h170" stroke="#323232" stroke-width="2" fill="none"/><path d="M485 81h170v112H485z" fill="none"/><text font-weight="bold" text-decoration="blink" font-family="微软雅黑" text-anchor="middle" font-size="13" x="75" y="13.325" transform="translate(495 87.875)">Director</text><text font-weight="bold" text-decoration="blink" font-family="微软雅黑" text-anchor="middle" font-size="13" x="75" y="13.325" transform="translate(495 164.375)">+build() : void</text></g><g><path d="M391.5 286v-54.5H243v-39.264" stroke="#323232" stroke-width="2" stroke-dasharray="10.0 4.0" fill="none" marker-end="url(#b)"/></g><g><path d="M466.695 137H403.5v-.258H322" stroke="#323232" stroke-width="2" fill="none" marker-start="url(#c)" marker-end="url(#d)"/></g></svg>