<svg xmlns="http://www.w3.org/2000/svg" viewBox="65 69.5 855 378.5" width="855" height="378.5"><defs><marker id="a" markerUnits="userSpaceOnUse" orient="auto" markerWidth="14.289" markerHeight="19.055" viewBox="-0.588 -0.809 14.289 19.055" refX="12" refY="8.719"><path d="M0 0l12 8.719-12 8.718" stroke="#323232" stroke-width="2" fill="none"/></marker><marker id="b" markerUnits="userSpaceOnUse" orient="auto" markerWidth="16.236" markerHeight="10.551" viewBox="-1 -1.376 16.236 10.551" refX="-1" refY="3.899"><path d="M12 3.899l-12 3.9V0z" stroke="#323232" stroke-width="2" fill="#fff"/></marker><marker id="c" markerUnits="userSpaceOnUse" orient="auto" markerWidth="20.61" markerHeight="10.888" viewBox="-2.305 -1.591 20.61 10.888" refX="16" refY="3.853"><path d="M0 3.853L8 0l8 3.853-8 3.852z" stroke="#323232" stroke-width="2" fill="#fff"/></marker><marker id="d" markerUnits="userSpaceOnUse" orient="auto" markerWidth="14.289" markerHeight="19.055" viewBox="-0.588 -0.809 14.289 19.055" refX="12" refY="8.719"><path d="M0 0l12 8.719-12 8.718" stroke="#323232" stroke-width="2" fill="none"/></marker></defs><path d="M65 69.5h855V448H65V69.5z" fill="#fff"/><path d="M85 93.5q0-4 4-4h209q4 0 4 4v140q0 4-4 4H89q-4 0-4-4z" stroke="#323232" stroke-width="2" fill="#fff"/><path d="M85 119.5h217m-217 59h217" stroke="#323232" stroke-width="2" fill="none"/><path d="M85 89.5h217v148H85z" fill="none"/><text font-weight="bold" text-decoration="blink" font-family="微软雅黑" text-anchor="middle" font-size="13" x="98.5" y="13.325" transform="translate(95 96.375)">WebsiteFactory</text><text font-weight="bold" text-decoration="blink" font-family="微软雅黑" text-anchor="middle" font-size="13" x="98.5" y="13.325" transform="translate(95 140.875)">-webs : HashMap&lt;&gt;</text><g font-weight="bold" font-family="微软雅黑" text-anchor="middle" font-size="13"><text text-decoration="blink" x="98.5" y="13.325" transform="translate(95 191.75)">+getWebsite(String type)</text><text text-decoration="blink" x="98.5" y="29.575" transform="translate(95 191.75)">+capacity() : int</text></g><path d="M730 108.5q0-4 4-4h162q4 0 4 4v110q0 4-4 4H734q-4 0-4-4z" stroke="#323232" stroke-width="2" fill="#fff"/><path d="M730 134.5h170m-170 44h170" stroke="#323232" stroke-width="2" fill="none"/><path d="M730 104.5h170v118H730z" fill="none"/><text font-weight="bold" text-decoration="blink" font-family="微软雅黑" text-anchor="middle" font-size="13" x="75" y="13.325" transform="translate(740 111.375)">User</text><text font-weight="bold" text-decoration="blink" font-family="微软雅黑" text-anchor="middle" font-size="13" x="75" y="13.325" transform="translate(740 148.375)">-name : String</text><text font-weight="bold" text-decoration="blink" font-family="微软雅黑" text-anchor="middle" font-size="13" x="75" y="13.325" transform="translate(740 192.375)">+getName() : String</text><g><path d="M408.75 297q0-4 4-4h195.5q4 0 4 4v127q0 4-4 4h-195.5q-4 0-4-4z" stroke="#323232" stroke-width="2" fill="#fff"/><path d="M408.75 323h203.5m-203.5 52.5h203.5" stroke="#323232" stroke-width="2" fill="none"/><path d="M408.75 293h203.5v135h-203.5z" fill="none"/><text font-weight="bold" text-decoration="blink" font-family="微软雅黑" text-anchor="middle" font-size="13" x="91.75" y="13.325" transform="translate(418.75 299.875)">ConcreteWebsite</text><text font-weight="bold" text-decoration="blink" font-family="微软雅黑" text-anchor="middle" font-size="13" x="91.75" y="13.325" transform="translate(418.75 341.125)">-type : String</text><text font-weight="bold" text-decoration="blink" font-family="微软雅黑" text-anchor="middle" font-size="13" x="91.75" y="13.325" transform="translate(418.75 393.625)">+operation(User user)</text></g><g><path d="M416 107q0-4 4-4h181q4 0 4 4v113q0 4-4 4H420q-4 0-4-4z" stroke="#323232" stroke-width="2" fill="#fff"/><path d="M416 133h189m-189 45.5h189" stroke="#323232" stroke-width="2" fill="none"/><path d="M416 103h189v121H416z" fill="none"/><text font-weight="bold" text-decoration="blink" font-family="微软雅黑" text-anchor="middle" font-size="13" x="84.5" y="13.325" transform="translate(426 109.875)">Website</text><text font-weight="bold" text-decoration="blink" font-family="微软雅黑" text-anchor="middle" font-size="13" x="84.5" y="13.325" transform="translate(426 193.125)">+operation(User user)</text></g><g><path d="M605 163.5h125" stroke="#323232" stroke-width="2" stroke-dasharray="10.0 4.0" fill="none" marker-end="url(#a)"/></g><g><path d="M510.5 293v-34.5h0v-19.264" stroke="#323232" stroke-width="2" fill="none" marker-end="url(#b)"/></g><g><path d="M320.305 163.5H416" stroke="#323232" stroke-width="2" fill="none" marker-start="url(#c)" marker-end="url(#d)"/></g></svg>