<svg xmlns="http://www.w3.org/2000/svg" viewBox="73 62 882 390" width="882" height="390"><defs><marker id="a" markerUnits="userSpaceOnUse" orient="auto" markerWidth="16.236" markerHeight="10.551" viewBox="-1 -1.376 16.236 10.551" refX="-1" refY="3.899"><path d="M12 3.899l-12 3.9V0z" stroke="#323232" stroke-width="2" fill="#323232"/></marker><marker id="b" markerUnits="userSpaceOnUse" orient="auto" markerWidth="16.236" markerHeight="10.551" viewBox="-1 -1.376 16.236 10.551" refX="-1" refY="3.899"><path d="M12 3.899l-12 3.9V0z" stroke="#323232" stroke-width="2" fill="#fff"/></marker><marker id="c" markerUnits="userSpaceOnUse" orient="auto" markerWidth="14.289" markerHeight="19.055" viewBox="-0.588 -0.809 14.289 19.055" refX="12" refY="8.719"><path d="M0 0l12 8.719-12 8.718" stroke="#323232" stroke-width="2" fill="none"/></marker></defs><path d="M73 62h882v390H73V62z" fill="#fff"/><path d="M93 286q0-4 4-4h202q4 0 4 4v142q0 4-4 4H97q-4 0-4-4z" stroke="#323232" stroke-width="2" fill="#fff"/><path d="M93 312h210M93 372h210" stroke="#323232" stroke-width="2" fill="none"/><path d="M93 282h210v150H93z" fill="none"/><text font-weight="bold" text-decoration="blink" font-family="微软雅黑" text-anchor="middle" font-size="13" x="95" y="13.325" transform="translate(103 288.875)">Forward</text><text font-weight="bold" text-decoration="blink" font-family="微软雅黑" text-anchor="middle" font-size="13" x="95" y="13.325" transform="translate(103 393.875)">+attack() : void</text><path d="M265 86q0-4 4-4h142q4 0 4 4v84q0 4-4 4H269q-4 0-4-4z" stroke="#323232" stroke-width="2" fill="#fff"/><path d="M265 112h150" stroke="#323232" stroke-width="2" fill="none"/><path d="M265 82h150v92H265z" fill="none"/><text font-weight="bold" text-decoration="blink" font-family="微软雅黑" text-anchor="middle" font-size="13" x="65" y="13.325" transform="translate(275 88.875)">Player</text><text font-weight="bold" text-decoration="blink" font-family="微软雅黑" text-anchor="middle" font-size="13" x="65" y="13.325" transform="translate(275 134.875)">#attack() : void</text><g><path d="M198 282v-54h142v-38.764" stroke="#323232" stroke-width="2" fill="none" marker-end="url(#a)"/></g><g><path d="M418 286q0-4 4-4h202q4 0 4 4v142q0 4-4 4H422q-4 0-4-4z" stroke="#323232" stroke-width="2" fill="#fff"/><path d="M418 312h210m-210 60h210" stroke="#323232" stroke-width="2" fill="none"/><path d="M418 282h210v150H418z" fill="none"/><text font-weight="bold" text-decoration="blink" font-family="微软雅黑" text-anchor="middle" font-size="13" x="95" y="13.325" transform="translate(428 288.875)">PlayerAdapter</text><text font-weight="bold" text-decoration="blink" font-family="微软雅黑" text-anchor="middle" font-size="13" x="95" y="13.325" transform="translate(428 393.875)">+attack() : void</text></g><g><path d="M725 286q0-4 4-4h202q4 0 4 4v142q0 4-4 4H729q-4 0-4-4z" stroke="#323232" stroke-width="2" fill="#fff"/><path d="M725 312h210m-210 60h210" stroke="#323232" stroke-width="2" fill="none"/><path d="M725 282h210v150H725z" fill="none"/><text font-weight="bold" text-decoration="blink" font-family="微软雅黑" text-anchor="middle" font-size="13" x="95" y="13.325" transform="translate(735 288.875)">ForeignPlayer</text><text font-weight="bold" text-decoration="blink" font-family="微软雅黑" text-anchor="middle" font-size="13" x="95" y="13.325" transform="translate(735 393.875)">+进攻() : void</text></g><g><path d="M523 282v-54H340v-38.764" stroke="#323232" stroke-width="2" fill="none" marker-end="url(#b)"/></g><g><path d="M628 357h97" stroke="#323232" stroke-width="2" fill="none" marker-end="url(#c)"/></g></svg>