<svg xmlns="http://www.w3.org/2000/svg" viewBox="136.5 57 819.5 425" width="819.5" height="425"><defs><marker id="a" markerUnits="userSpaceOnUse" orient="auto" markerWidth="16.236" markerHeight="10.551" viewBox="-1 -1.376 16.236 10.551" refX="-1" refY="3.899"><path d="M12 3.899l-12 3.9V0z" stroke="#323232" stroke-width="2" fill="#fff"/></marker><marker id="b" markerUnits="userSpaceOnUse" orient="auto" markerWidth="16.236" markerHeight="10.551" viewBox="-1 -1.376 16.236 10.551" refX="-1" refY="3.899"><path d="M12 3.899l-12 3.9V0z" stroke="#323232" stroke-width="2" fill="#fff"/></marker><marker id="c" markerUnits="userSpaceOnUse" orient="auto" markerWidth="16.236" markerHeight="10.551" viewBox="-1 -1.376 16.236 10.551" refX="-1" refY="3.899"><path d="M12 3.899l-12 3.9V0z" stroke="#323232" stroke-width="2" fill="#fff"/></marker><marker id="d" markerUnits="userSpaceOnUse" orient="auto" markerWidth="14.289" markerHeight="19.055" viewBox="-0.588 -0.809 14.289 19.055" refX="12" refY="8.719"><path d="M0 0l12 8.719-12 8.718" stroke="#323232" stroke-width="2" fill="none"/></marker><marker id="e" markerUnits="userSpaceOnUse" orient="auto" markerWidth="14.289" markerHeight="19.055" viewBox="-0.588 -0.809 14.289 19.055" refX="12" refY="8.719"><path d="M0 0l12 8.719-12 8.718" stroke="#323232" stroke-width="2" fill="none"/></marker><marker id="f" markerUnits="userSpaceOnUse" orient="auto" markerWidth="14.289" markerHeight="19.055" viewBox="-0.588 -0.809 14.289 19.055" refX="12" refY="8.719"><path d="M0 0l12 8.719-12 8.718" stroke="#323232" stroke-width="2" fill="none"/></marker></defs><path d="M136.5 57H956v425H136.5V57z" fill="#fff"/><path d="M156.5 82q0-4 4-4h223q4 0 4 4v114q0 4-4 4h-223q-4 0-4-4z" stroke="#323232" stroke-width="2" fill="#fff"/><path d="M156.5 108h231m-231 46h231" stroke="#323232" stroke-width="2" fill="none"/><path d="M156.5 78h231v122h-231z" fill="none"/><text font-weight="bold" text-decoration="blink" font-family="微软雅黑" text-anchor="middle" font-size="13" x="105.5" y="13.325" transform="translate(166.5 84.875)">Mediator</text><text font-weight="bold" text-decoration="blink" font-family="微软雅黑" text-anchor="middle" font-size="13" x="105.5" y="13.325" transform="translate(166.5 168.875)">+send(message, country)</text><path d="M193 277q0-4 4-4h150q4 0 4 4v116q0 4-4 4H197q-4 0-4-4z" stroke="#323232" stroke-width="2" fill="#fff"/><path d="M193 303h158m-158 47h158" stroke="#323232" stroke-width="2" fill="none"/><path d="M193 273h158v124H193z" fill="none"/><text font-weight="bold" text-decoration="blink" font-family="微软雅黑" text-anchor="middle" font-size="13" x="69" y="13.325" transform="translate(203 279.875)">UnitedNations</text><g font-weight="bold" font-family="微软雅黑" text-anchor="middle" font-size="13"><text text-decoration="blink" x="69" y="13.325" transform="translate(203 310.25)">-china</text><text text-decoration="blink" x="69" y="29.575" transform="translate(203 310.25)">-america</text></g><text font-weight="bold" text-decoration="blink" font-family="微软雅黑" text-anchor="middle" font-size="13" x="69" y="13.325" transform="translate(203 365.375)">+send()</text><g><path d="M778 284q0-4 4-4h150q4 0 4 4v116q0 4-4 4H782q-4 0-4-4z" stroke="#323232" stroke-width="2" fill="#fff"/><path d="M778 310h158m-158 47h158" stroke="#323232" stroke-width="2" fill="none"/><path d="M778 280h158v124H778z" fill="none"/><text font-weight="bold" text-decoration="blink" font-family="微软雅黑" text-anchor="middle" font-size="13" x="69" y="13.325" transform="translate(788 286.875)">America</text><g font-weight="bold" font-family="微软雅黑" text-anchor="middle" font-size="13"><text text-decoration="blink" x="69" y="13.325" transform="translate(788 364.25)">+declare()</text><text text-decoration="blink" x="69" y="29.575" transform="translate(788 364.25)">+receive()</text></g></g><g><path d="M493 284q0-4 4-4h150q4 0 4 4v116q0 4-4 4H497q-4 0-4-4z" stroke="#323232" stroke-width="2" fill="#fff"/><path d="M493 310h158m-158 47h158" stroke="#323232" stroke-width="2" fill="none"/><path d="M493 280h158v124H493z" fill="none"/><text font-weight="bold" text-decoration="blink" font-family="微软雅黑" text-anchor="middle" font-size="13" x="69" y="13.325" transform="translate(503 286.875)">China</text><g font-weight="bold" font-family="微软雅黑" text-anchor="middle" font-size="13"><text text-decoration="blink" x="69" y="13.325" transform="translate(503 364.25)">+declare()</text><text text-decoration="blink" x="69" y="29.575" transform="translate(503 364.25)">+receive()</text></g></g><g><path d="M613 81q0-4 4-4h177q4 0 4 4v116q0 4-4 4H617q-4 0-4-4z" stroke="#323232" stroke-width="2" fill="#fff"/><path d="M613 107h185m-185 47h185" stroke="#323232" stroke-width="2" fill="none"/><path d="M613 77h185v124H613z" fill="none"/><text font-weight="bold" text-decoration="blink" font-family="微软雅黑" text-anchor="middle" font-size="13" x="82.5" y="13.325" transform="translate(623 83.875)">Country</text><text font-weight="bold" text-decoration="blink" font-family="微软雅黑" text-anchor="middle" font-size="13" x="82.5" y="13.325" transform="translate(623 122.375)">-mediator: Mediator</text></g><g><path d="M272 273v-36.5h0v-21.264" stroke="#323232" stroke-width="2" fill="none" marker-end="url(#a)"/></g><g><path d="M581 280v-39.5h124.5v-24.264" stroke="#323232" stroke-width="2" fill="none" marker-end="url(#b)"/></g><g><path d="M857 280v-39.5H705.5v-24.264" stroke="#323232" stroke-width="2" fill="none" marker-end="url(#c)"/></g><g><path d="M613 139H500.25h0H387.5" stroke="#323232" stroke-width="2" fill="none" marker-end="url(#d)"/></g><g><path d="M272 397v37h300v-30" stroke="#323232" stroke-width="2" fill="none" marker-end="url(#e)"/></g><g><path d="M272 397v65h585v-58" stroke="#323232" stroke-width="2" fill="none" marker-end="url(#f)"/></g></svg>